<svg xmlns="http://www.w3.org/2000/svg" viewBox="0 0 45.71 40"><defs><style>.cls-1{fill:#fff;}</style></defs><title>menu</title><g id="Layer_2" data-name="Layer 2"><g id="end"><path id="menu" class="cls-1" d="M42,7.35H3.67A3.69,3.69,0,0,1,0,3.67H0A3.68,3.68,0,0,1,3.67,0H42a3.68,3.68,0,0,1,3.67,3.67h0A3.69,3.69,0,0,1,42,7.35ZM45.71,20h0A3.68,3.68,0,0,0,42,16.33H3.67A3.68,3.68,0,0,0,0,20H0a3.68,3.68,0,0,0,3.67,3.67H42A3.68,3.68,0,0,0,45.71,20Zm0,16.33h0A3.69,3.69,0,0,0,42,32.65H3.67A3.69,3.69,0,0,0,0,36.33H0A3.68,3.68,0,0,0,3.67,40H42A3.68,3.68,0,0,0,45.71,36.33Z"/></g></g></svg>