<svg xmlns="http://www.w3.org/2000/svg" xmlns:xlink="http://www.w3.org/1999/xlink" viewBox="0 0 160.54 199.55"><defs><style>.cls-1{fill:url(#linear-gradient);}.cls-2{fill:url(#radial-gradient);}.cls-3{fill:url(#radial-gradient-2);}.cls-4{fill:url(#radial-gradient-3);}.cls-5{fill:url(#radial-gradient-4);}.cls-6{fill:url(#radial-gradient-5);}.cls-7{fill:url(#radial-gradient-6);}.cls-8{fill:url(#radial-gradient-7);}.cls-9{fill:url(#radial-gradient-8);}.cls-10{fill:url(#radial-gradient-9);}.cls-11{fill:url(#radial-gradient-10);}.cls-12{fill:url(#radial-gradient-11);}.cls-13{fill:url(#radial-gradient-12);}.cls-14{fill:url(#radial-gradient-13);}.cls-15{fill:url(#radial-gradient-14);}.cls-16{fill:url(#radial-gradient-15);}.cls-17{fill:url(#radial-gradient-16);}.cls-18{fill:url(#radial-gradient-17);}</style><linearGradient id="linear-gradient" x1="81.16" y1="158.83" x2="81.16" y2="224.18" gradientTransform="translate(71.96 -29.65) rotate(35.98)" gradientUnits="userSpaceOnUse"><stop offset="0" stop-color="#c0ca64"/><stop offset="0.06" stop-color="#b0bd5b"/><stop offset="0.18" stop-color="#97a84d"/><stop offset="0.31" stop-color="#839842"/><stop offset="0.47" stop-color="#758d3b"/><stop offset="0.66" stop-color="#6d8636"/><stop offset="1" stop-color="#6b8435"/></linearGradient><radialGradient id="radial-gradient" cx="49.43" cy="2.54" r="77.63" gradientTransform="translate(71.96 -29.65) rotate(35.98)" gradientUnits="userSpaceOnUse"><stop offset="0" stop-color="#c0ca64"/><stop offset="0.12" stop-color="#aebb5a"/><stop offset="0.34" stop-color="#91a34a"/><stop offset="0.57" stop-color="#7c923e"/><stop offset="0.79" stop-color="#6f8737"/><stop offset="1" stop-color="#6b8435"/></radialGradient><radialGradient id="radial-gradient-2" cx="106.26" cy="-0.14" r="75.37" xlink:href="#radial-gradient"/><radialGradient id="radial-gradient-3" cx="78.67" cy="-19.08" r="101.32" gradientTransform="matrix(-0.59, 0.81, -0.73, -0.54, 179.49, -72.51)" xlink:href="#radial-gradient"/><radialGradient id="radial-gradient-4" cx="48.95" cy="50.25" r="52.91" gradientTransform="matrix(-0.59, 0.81, -0.73, -0.54, 147.76, 27.27)" xlink:href="#radial-gradient"/><radialGradient id="radial-gradient-5" cx="38.5" cy="43.45" r="53.47" gradientTransform="matrix(-0.6, 0.8, -0.73, -0.54, 132.22, 20.94)" xlink:href="#radial-gradient"/><radialGradient id="radial-gradient-6" cx="22.89" cy="59.1" r="52.97" gradientTransform="translate(111.67 48.15) rotate(129.58) scale(1 0.91)" xlink:href="#radial-gradient"/><radialGradient id="radial-gradient-7" cx="166.18" cy="44.07" r="53.54" gradientTransform="matrix(-0.59, 0.8, 0.73, 0.54, 198.33, -89.22)" xlink:href="#radial-gradient"/><radialGradient id="radial-gradient-8" cx="154.64" cy="48.6" r="53.75" gradientTransform="matrix(-0.62, 0.79, 0.71, 0.56, 199.17, -70.24)" gradientUnits="userSpaceOnUse"><stop offset="0" stop-color="#c0ca64"/><stop offset="0.24" stop-color="#a9b757"/><stop offset="0.74" stop-color="#7c923f"/><stop offset="1" stop-color="#6b8435"/></radialGradient><radialGradient id="radial-gradient-9" cx="130.91" cy="59.92" r="52.97" gradientTransform="matrix(-0.66, 0.75, 0.68, 0.6, 196.84, -32.38)" xlink:href="#radial-gradient"/><radialGradient id="radial-gradient-10" cx="80.31" cy="28.69" r="105.64" xlink:href="#radial-gradient"/><radialGradient id="radial-gradient-11" cx="146" cy="166.66" r="84.84" gradientTransform="translate(71.96 -29.65) rotate(35.98)" gradientUnits="userSpaceOnUse"><stop offset="0" stop-color="#6b8435"/><stop offset="0.34" stop-color="#6d8636"/><stop offset="0.53" stop-color="#768d3b"/><stop offset="0.68" stop-color="#839842"/><stop offset="0.82" stop-color="#97a84d"/><stop offset="0.94" stop-color="#b0bd5b"/><stop offset="1" stop-color="#c0ca64"/></radialGradient><radialGradient id="radial-gradient-12" cx="25.75" cy="163.37" r="84.84" gradientTransform="translate(71.96 -29.65) rotate(35.98)" gradientUnits="userSpaceOnUse"><stop offset="0" stop-color="#6b8435"/><stop offset="0.2" stop-color="#708838"/><stop offset="0.43" stop-color="#7f9440"/><stop offset="0.68" stop-color="#96a84d"/><stop offset="0.94" stop-color="#b8c35f"/><stop offset="1" stop-color="#c0ca64"/></radialGradient><radialGradient id="radial-gradient-13" cx="128.71" cy="166.66" r="94.73" gradientTransform="translate(71.96 -29.65) rotate(35.98)" gradientUnits="userSpaceOnUse"><stop offset="0" stop-color="#6b8435"/><stop offset="0.48" stop-color="#96a74d"/><stop offset="1" stop-color="#c0ca64"/></radialGradient><radialGradient id="radial-gradient-14" cx="37.28" cy="179.43" r="84.84" xlink:href="#radial-gradient-12"/><radialGradient id="radial-gradient-15" cx="111" cy="165.84" r="84.83" xlink:href="#radial-gradient-12"/><radialGradient id="radial-gradient-16" cx="46.75" cy="167.48" r="84.84" xlink:href="#radial-gradient-12"/><radialGradient id="radial-gradient-17" cx="81.76" cy="162.54" r="84.84" xlink:href="#radial-gradient-12"/></defs><title>Artichoke</title><g id="Layer_2" data-name="Layer 2"><g id="artichoke"><g id="Artichoke-2" data-name="Artichoke"><path class="cls-1" d="M29.09,148.73s.36,13-14.51,26.12S0,190.73,0,190.73s.32,7.61,7.88,8.77S33.41,181.65,36.43,176A142.78,142.78,0,0,1,46,161l2.1-11.7L33.42,144Z"/><g id="Artichoke-3" data-name="Artichoke"><g id="_3rd_layer" data-name="3rd layer"><path class="cls-2" d="M79.39,26.71S84.54,16.47,92.08,13.8s31.57-9.14,31.57-9.14L72.43,69.47,61.77,42.69Z"/><path class="cls-3" d="M141.94,72.12s8.14-8.07,8.35-16.06-1.09-32.85-1.09-32.85L103.43,92l28.77,1.85Z"/><path class="cls-4" d="M94.35,68.89s-20.5-19.43-2.1-33.6S146.68,0,146.68,0,136,58.37,128.63,67.82s-19,19.27-23.39,14.06Z"/></g><g id="_2nd_layer" data-name="2nd layer"><path class="cls-5" d="M58.38,72.29s-12-16,5.9-23.71c9-3.87,31.92-22.12,31.92-22.12L34.57,158.66Z"/><path class="cls-6" d="M42.94,66.06s-3.92-20.55,5-25.8S81.39,20.8,81.39,20.8L34.57,158.66Z"/><path class="cls-7" d="M28.84,57.93S25.17,43.09,34.63,35.2,63.71,18.14,63.71,18.14L34.57,158.66Z"/><path class="cls-8" d="M108.92,109s12.44,8.4,14.22-11c.89-9.75,14.65-44.83,14.65-44.83L34.17,158.36Z"/><path class="cls-9" d="M119.63,121.74s11.44-5.33,13.67-15.41,15.83-41.44,15.83-41.44l-115,93.47Z"/><path class="cls-10" d="M131.71,132.63s15.26-1.11,19.83-12.55,9-31.64,9-31.64L34.17,158.36Z"/><path class="cls-11" d="M64.61,84.05s-9.72-15.31,6.66-23.27,55.32-33.12,55.32-33.12-11,50.52-17.29,61.25-1.1,8.57-13.6,17.71-61.13,52-61.13,52Z"/></g><g id="_1st_layer" data-name="1st layer"><path class="cls-12" d="M122.68,132.13,142,133s-27.7,28.81-34.65,28.79-72.73-3.1-72.73-3.1Z"/><path class="cls-13" d="M32,66.26,25.2,48.19S6.38,83.46,8.55,90.05,34,158.25,34,158.25Z"/><path class="cls-14" d="M104.26,126.81l25.92-7.31S104,166.84,90.64,167.42s-56.07-8.76-56.07-8.76Z"/><path class="cls-15" d="M43.6,82.77,42.53,55.86S5.63,95.46,9.21,108.29s25.69,50.6,25.69,50.6Z"/><path class="cls-16" d="M86.89,110.18l23.75-9.61S100.28,151.34,90.7,158s-56.13.67-56.13.67Z"/><path class="cls-17" d="M64,93.52,65.74,68S20.67,93.53,17.31,104.7s16.74,53.58,16.74,53.58Z"/><path class="cls-18" d="M34.57,158.66s-11.1-38-6.52-46.17S90,82.26,90,82.26s-4.53,60.45-15.31,66.88S34.57,158.66,34.57,158.66Z"/></g></g></g></g></g></svg>