<svg xmlns="http://www.w3.org/2000/svg" viewBox="0 0 204.4 193.86"><defs><style>.cls-1{fill:#7f2424;}.cls-2{fill:#8e3535;}.cls-3{fill:#b22f2f;}.cls-4{fill:#f7d3af;}</style></defs><title>Bacon</title><g id="Layer_2" data-name="Layer 2"><g id="bacon"><g id="Bacon-2" data-name="Bacon"><g id="Bacon-3" data-name="Bacon"><path class="cls-1" d="M0,113.9C10.78,89.36,22.63,88.28,44.18,89s20.6-7.79,24.19-20.72,6-21.2,22.87-21.49c21.2-.36,32.33-9,30.9-23.89C125.55,5.4,132.2,1.57,142.79,0l42.6,25.43C171,28.66,160.57,23,155.9,36.34S142.25,73,119.62,72.26,89.45,82.32,84.42,95.61s-18.68,27.66-39.16,25.14-37,21.92-39.87,29.1Z"/><path class="cls-2" d="M2.14,119.47c8.26-25.86,21.91-28,43.47-27.27s21.31-5.42,24.9-18.35,4.3-22.34,21.2-22.63c21.19-.36,31-6.95,31-23.11s12.58-24,22.27-22.54l44,22L187.53,31c-14.37,3.23-24.81-2.39-29.48,10.9S144.4,78.55,121.76,77.83s-30.17,10-35.2,23.35S67.88,128.84,47.4,126.32s-39,21.91-41.83,29.1Z"/><path class="cls-3" d="M.72,117.74C9,91.87,21.91,89.36,43.47,90.08S66.1,84,69.69,71s3.23-22.28,20.12-23,33.05-5.39,33.05-21.56,13.29-26.22,23-24.78L189,27.57c-14.37,3.23-28.38-1.08-33,12.21s-13.65,36.65-36.28,35.93S89.45,85.77,84.42,99.06,65.74,126.72,45.26,124.2s-37,21.92-39.87,29.1Z"/><path class="cls-4" d="M1.81,126c13.28-21.24,25.52-24.18,47-25.55C71.49,99.06,72.92,85.41,79.3,72.9c5.83-11.43,11.22-18.78,28.11-19.47s25.32-2.56,25.32-18,11.34-30.38,21-29L176,19.8c-14.37,3.08-27.6,3.38-32.27,16s-2,27.08-24.66,26.4S90.35,66.1,85.32,78.76,63.69,113.21,43.11,112c-24.25-1.44-26.94,12.57-39.26,29.61Z"/></g><g id="Bacon-4" data-name="Bacon"><path class="cls-1" d="M15.45,152.34c10.77-24.55,22.63-25.62,44.18-24.9s20.6-7.79,24.19-20.72,6-21.21,22.87-21.49c21.19-.36,32.33-9,30.89-23.89C141,43.84,147.64,40,158.24,38.44l42.59,25.43c-14.37,3.23-24.81-2.39-29.48,10.9s-13.65,36.64-36.28,35.93-30.18,10-35.21,23.35-18.68,27.66-39.15,25.14-37,21.91-39.87,29.1Z"/><path class="cls-2" d="M17.59,157.91c8.26-25.86,21.91-28,43.47-27.28s21.31-5.41,24.9-18.34,4.3-22.35,21.2-22.63c21.19-.36,31-7,31-23.11s12.57-24,22.27-22.54l44,22L203,69.44c-14.37,3.23-24.82-2.39-29.49,10.9S159.84,117,137.21,116.26,107,126.32,102,139.61s-18.68,27.66-39.16,25.15-39,21.91-41.84,29.1Z"/><path class="cls-3" d="M16.17,156.17c8.26-25.86,21.19-28.38,42.74-27.66s22.63-6.1,26.23-19,3.23-22.27,20.11-23S138.3,81.1,138.3,64.93s13.29-26.22,23-24.79L204.4,66C190,69.24,176,64.93,171.35,78.22s-13.65,36.64-36.28,35.92-30.18,10.06-35.21,23.35-18.68,27.66-39.15,25.15-37,21.91-39.87,29.1Z"/><path class="cls-4" d="M17.26,164.48c13.27-21.24,25.52-24.18,47-25.55,22.63-1.44,24.07-15.09,30.45-27.59,5.83-11.43,11.22-18.78,28.11-19.47s25.32-2.56,25.32-18,11.34-30.38,21-29l22.24,13.34c-14.37,3.08-27.61,3.38-32.28,16s-2,27.08-24.65,26.39-28.74,3.87-33.77,16.53-21.63,34.45-42.21,33.23C34.31,149,31.61,163,19.3,180Z"/></g></g></g></g></svg>