<svg xmlns="http://www.w3.org/2000/svg" viewBox="0 0 230.29 219.46"><defs><style>.cls-1{fill:#b4533b;}.cls-2{fill:#d58c6c;}.cls-3{fill:#bcbec0;}.cls-4{fill:#231f20;}.cls-5{fill:#5e4b37;}</style></defs><title>Asset 10</title><g id="Layer_2" data-name="Layer 2"><g id="cow"><path class="cls-1" d="M153.18,42S128,41.67,133.6,0c7.91,10,14.37,28.67,25,32.67S153.18,42,153.18,42Z"/><path class="cls-1" d="M187,34.67S210.51,29.33,218.85,7C224.51,33.33,199,45.67,199,45.67Z"/><path class="cls-2" d="M203.33,51s20.52-5,25.52,4.67-4.34,12.33-7.67,11-15.61-5.46-15.61-5.46Z"/><path class="cls-2" d="M149.51,44s-23.33,1.33-25.33,11.67,19.33,7.75,21,5.54S149.51,44,149.51,44Z"/><path class="cls-3" d="M68.87,79.33h72.64s-5-52.33,33.67-53S211.51,85,211.51,85s-14.33,27.33-17,43-8.17,50-7.52,83.67c-3.48,11-17.81,9-18.14,1.66s-1-33.66-1-33.66l-12,.33-2,32.33s-16,13.67-17.34.67.34-33,.34-33l-57-.33v31s-9.69,18.66-18.69.66c1.67-14,0-31,0-31L47.28,180s1.44,26.67,0,34.33S31.85,220.67,30.51,213s-1.63-54.67-4.81-63.33c-2.52,4.33-10.19,16.66-10.19,16.66l-2.66-2s9.66-17.66,9-31.66S24.56,83,68.87,79.33Z"/><path class="cls-4" d="M68.87,82c-6,2.29-12,21.33,2.31,24.67s23,.33,25.33-5.34c6.34,2.67,10,8.34,17,1.34s3-13.34-1.31-15.67S93,79,90.1,82,77.56,78.67,68.87,82Z"/><path class="cls-4" d="M95.51,148s-2-20.33,16.68-6.33c15.32,2.66,27.66,12,18,18.66S91.51,171.33,95.51,148Z"/><ellipse class="cls-4" cx="161.35" cy="58" rx="10.17" ry="12.33"/><circle class="cls-5" cx="158.58" cy="58.44" r="2.77"/><circle class="cls-5" cx="194.62" cy="58.44" r="2.77"/><ellipse class="cls-2" cx="179.39" cy="98.28" rx="45.79" ry="24.61"/><circle class="cls-5" cx="159.35" cy="102.17" r="6.17"/><circle class="cls-5" cx="199.54" cy="102.03" r="6.03"/><path class="cls-4" d="M12.85,164.33C4.51,167,0,163.67,0,180.67c7.51-2.34,15.34-6.41,15.51-14.34S12.85,164.33,12.85,164.33Z"/></g></g></svg>