<svg xmlns="http://www.w3.org/2000/svg" viewBox="0 0 277.67 510.49"><defs><style>.cls-1{fill:#e5e5e5;}.cls-2{fill:#7f7f7f;}.cls-3{fill:#c1c1c1;}.cls-4{fill:#c9c9c9;}.cls-5{fill:#515151;}.cls-6{fill:#fff;}.cls-7{fill:#c5e2ef;}.cls-8{fill:#a7cbd8;}.cls-9{fill:#7f9ba3;}.cls-10{fill:#ebf5f9;}</style></defs><title>Asset 1</title><g id="Layer_2" data-name="Layer 2"><g id="Layer_5" data-name="Layer 5"><ellipse class="cls-1" cx="119.83" cy="324.49" rx="50" ry="9.33"/><polygon class="cls-2" points="276.83 483.82 277.67 435.66 238.84 359.82 156.17 330.49 29.5 343.16 15.5 448.49 130.84 510.49 276.83 483.82"/><polygon class="cls-3" points="130.82 510.49 134.82 464.49 104.83 377.82 240.74 363.69 277.67 435.66 276.83 483.82 130.82 510.49"/><path class="cls-4" d="M69.83,324.49v23.84s56.17,18.66,100,.16v-24S137.83,343.16,69.83,324.49Z"/><rect class="cls-2" x="133.54" y="397.5" width="121.33" height="36.46" rx="17.42" ry="17.42" transform="translate(-54.6 30.19) rotate(-7.8)"/><polygon class="cls-5" points="156.42 413.15 160.42 431.48 173.09 429.48 169.75 411.15 156.42 413.15"/><polygon class="cls-6" points="159.09 410.48 163.09 428.82 175.75 426.82 172.42 408.48 159.09 410.48"/><polygon class="cls-7" points="164.25 423.32 174.59 421.82 172.25 408.48 161.59 409.82 164.25 423.32"/><polygon class="cls-5" points="174.59 410.48 178.59 428.82 191.25 426.82 187.92 408.48 174.59 410.48"/><polygon class="cls-6" points="177.25 407.82 181.25 426.15 193.92 424.15 190.59 405.82 177.25 407.82"/><polygon class="cls-3" points="182.42 420.65 192.75 419.15 190.42 405.82 179.75 407.15 182.42 420.65"/><polygon class="cls-5" points="194.5 407.32 198.5 425.65 211.17 423.65 207.84 405.32 194.5 407.32"/><polygon class="cls-6" points="197.17 404.65 201.17 422.98 213.84 420.98 210.5 402.65 197.17 404.65"/><polygon class="cls-3" points="202.34 417.48 212.67 415.98 210.34 402.65 199.67 403.98 202.34 417.48"/><polygon class="cls-5" points="212.67 404.65 216.67 422.98 229.34 420.98 226 402.65 212.67 404.65"/><polygon class="cls-6" points="215.34 401.98 219.34 420.32 232 418.32 228.67 399.98 215.34 401.98"/><polygon class="cls-3" points="220.5 414.82 230.84 413.32 228.5 399.98 217.84 401.32 220.5 414.82"/><path class="cls-8" d="M75.25,304.17h86.5v18.25s-12.25,6.25-40.75,5.75-39.75-2.5-45.75-5.75Z"/><ellipse class="cls-9" cx="118.17" cy="320.67" rx="41.03" ry="6.4"/><path class="cls-7" d="M9.83,46.37c-.33,9,44.67,231,44.67,231s17,41,65,35c0,0,40,1,61-27l39-246L82,56.37l-74.83-17Z"/><polygon class="cls-10" points="140.17 42.37 140.17 306.37 152.17 306.37 203.17 30.37 140.17 30.37 140.17 42.37"/><path class="cls-8" d="M8.13,41.9l63,14.47s17,218,19,227,4,20,11,26l-35-14s-19-13-21-37Z"/><path class="cls-10" d="M97.17,306.37c-15-21-18.5-36-18.5-36-13.5-23-24.5-221-24.5-221L30.33,43.7,52.17,175s11,98.34,19,109.34Z"/><path class="cls-8" d="M56,103.17v9l-19.67,3.5s-3-1-2.66,3.5l11.15,86,20.68,8v8l-26.07-10.5L28,204.12,17,103.17Z"/><path class="cls-10" d="M35,96.67l21,6.5-29.5,5.5s-4.5,2-3.5,11,16.43,91,16.43,91l-16.58-9.5L0,107.17s1.5-7.5,5-8Z"/><polygon class="cls-3" points="7.17 30.07 7.17 45.97 76.92 62.67 227.17 46.52 227.17 30.37 76.92 42.37 7.17 30.07"/><polygon class="cls-6" points="5.83 23.33 5.83 29.17 75.89 42.37 230.5 32.79 230.5 26.67 76.92 35.33 5.83 23.33"/><polygon class="cls-3" points="5.83 23.33 149.67 12.17 230.5 26.67 76.92 35.33 5.83 23.33"/><path class="cls-8" d="M77.14,14V26s14,4.37,36.19,4.37a148.22,148.22,0,0,0,38.84-5v-14Z"/><path class="cls-7" d="M114.65,20.85c20.85,0,40.85-6.76,40.85-6.76V7.33H71.16v8.2S92.46,20.85,114.65,20.85Z"/><ellipse class="cls-8" cx="113.33" cy="7.33" rx="42.17" ry="7.33"/></g></g></svg>