<svg xmlns="http://www.w3.org/2000/svg" viewBox="0 0 467.88 193.86"><defs><style>.cls-1{fill:#9b8656;}.cls-2{fill:#dbbf75;}</style></defs><title>Asset 16</title><g id="Layer_2" data-name="Layer 2"><g id="bread"><path class="cls-1" d="M289.38,170.3c-51.92-5-100.84-15-153.75-26-15-3-28.95-8-43.93-12-33.13-10.79-64.2-25-90.93-46.12C-4,106.35,12.61,127.4,71.94,145.63,247.4,199.52,379.39,207,438.27,174.32,388.82,176.43,339.1,174.45,289.38,170.3Z"/><path class="cls-2" d="M135.63,144.3c52.91,11,101.83,21,153.75,26,49.72,4.15,99.44,6.13,148.89,4a85.63,85.63,0,0,0,8.51-5.36c53.91-38.66-7.32-110.66-51.91-124C366.25,83,337,130.3,337,130.3s8.66-68,39.27-94c-19.3-6-59.9-19.34-59.9-19.34S267.08,59,253.77,128.3c-.67-44.67-9.32-70,37.94-117.34a442.12,442.12,0,0,0-57.77-6s-39.41,20.67-57.38,108.67c-8-28-7.23-70,26.67-113.33-21.34-.67-57.94,0-57.94,0S117.44,31,108.4,78.3c-5.05-14-13-44.67,7.6-73.34C116,5,10.83,43.62.77,86.18c26.73,21.09,57.8,35.33,90.93,46.12C106.68,136.3,120.65,141.3,135.63,144.3Z"/></g></g></svg>