<svg xmlns="http://www.w3.org/2000/svg" xmlns:xlink="http://www.w3.org/1999/xlink" viewBox="0 0 188.45 183.79"><defs><style>.cls-1{fill:url(#radial-gradient);}.cls-2{fill:url(#radial-gradient-2);}.cls-3{fill:url(#radial-gradient-3);}.cls-4{fill:url(#radial-gradient-4);}.cls-5{fill:url(#radial-gradient-5);}.cls-6{fill:url(#radial-gradient-6);}.cls-7{fill:url(#radial-gradient-7);}.cls-8{fill:url(#radial-gradient-8);}.cls-9{fill:url(#radial-gradient-9);}.cls-10{fill:url(#radial-gradient-10);}.cls-11{fill:url(#radial-gradient-11);}.cls-12{fill:url(#radial-gradient-12);}.cls-13{fill:url(#radial-gradient-13);}.cls-14{fill:url(#radial-gradient-14);}.cls-15{fill:url(#radial-gradient-15);}.cls-16{fill:url(#radial-gradient-16);}.cls-17{fill:url(#radial-gradient-17);}.cls-18{fill:url(#radial-gradient-18);}.cls-19{fill:url(#radial-gradient-19);}.cls-20{fill:url(#radial-gradient-20);}.cls-21{fill:url(#radial-gradient-21);}.cls-22{fill:url(#radial-gradient-22);}.cls-23{fill:url(#radial-gradient-23);}.cls-24{fill:url(#radial-gradient-24);}.cls-25{fill:url(#radial-gradient-25);}.cls-26{fill:url(#radial-gradient-26);}.cls-27{fill:url(#radial-gradient-27);}.cls-28{fill:url(#radial-gradient-28);}.cls-29{fill:url(#radial-gradient-29);}.cls-30{fill:url(#radial-gradient-30);}.cls-31{fill:url(#radial-gradient-31);}.cls-32{fill:url(#radial-gradient-32);}.cls-33{fill:url(#radial-gradient-33);}</style><radialGradient id="radial-gradient" cx="74.47" cy="135.48" fx="41.52088183860486" r="129.23" gradientTransform="translate(7.43 73.91) rotate(7.47) scale(1 0.39)" gradientUnits="userSpaceOnUse"><stop offset="0" stop-color="#fec865"/><stop offset="0.53" stop-color="#fbb356"/><stop offset="1" stop-color="#e29044"/></radialGradient><radialGradient id="radial-gradient-2" cx="66.39" cy="119.13" fx="33.589220113842345" r="128.66" gradientTransform="translate(6.99 61.48) rotate(7.47) scale(1 0.42)" xlink:href="#radial-gradient"/><radialGradient id="radial-gradient-3" cx="49.03" cy="45.02" fx="49.028363992542836" r="144.6" gradientTransform="translate(2.84 20.12) rotate(7.47) scale(1 0.42)" xlink:href="#radial-gradient"/><radialGradient id="radial-gradient-4" cx="82.52" cy="-89.88" r="3.32" gradientTransform="translate(11.82 144.94) rotate(-25.86)" gradientUnits="userSpaceOnUse"><stop offset="0" stop-color="#fcf5ff"/><stop offset="0.05" stop-color="#fbf3f0"/><stop offset="0.21" stop-color="#faedc2"/><stop offset="0.37" stop-color="#f8e89c"/><stop offset="0.54" stop-color="#f7e47f"/><stop offset="0.7" stop-color="#f7e16a"/><stop offset="0.85" stop-color="#f6e05d"/><stop offset="1" stop-color="#f6df59"/></radialGradient><radialGradient id="radial-gradient-5" cx="104.06" cy="-89.62" r="3.32" xlink:href="#radial-gradient-4"/><radialGradient id="radial-gradient-6" cx="116.13" cy="-68.28" r="3.32" xlink:href="#radial-gradient-4"/><radialGradient id="radial-gradient-7" cx="91.7" cy="-78.27" r="3.32" xlink:href="#radial-gradient-4"/><radialGradient id="radial-gradient-8" cx="115.04" cy="-77.88" r="3.32" xlink:href="#radial-gradient-4"/><radialGradient id="radial-gradient-9" cx="133.39" cy="-60.71" r="3.32" xlink:href="#radial-gradient-4"/><radialGradient id="radial-gradient-10" cx="149.86" cy="-47.42" r="3.32" xlink:href="#radial-gradient-4"/><radialGradient id="radial-gradient-11" cx="162.73" cy="-35.87" r="3.32" xlink:href="#radial-gradient-4"/><radialGradient id="radial-gradient-12" cx="132.79" cy="-40.75" r="3.32" xlink:href="#radial-gradient-4"/><radialGradient id="radial-gradient-13" cx="151.56" cy="-31.16" r="3.32" xlink:href="#radial-gradient-4"/><radialGradient id="radial-gradient-14" cx="139.7" cy="-55" r="3.32" xlink:href="#radial-gradient-4"/><radialGradient id="radial-gradient-15" cx="141.55" cy="-36.5" r="3.32" xlink:href="#radial-gradient-4"/><radialGradient id="radial-gradient-16" cx="117.78" cy="-57.18" r="3.32" xlink:href="#radial-gradient-4"/><radialGradient id="radial-gradient-17" cx="87.35" cy="-69.28" r="3.32" xlink:href="#radial-gradient-4"/><radialGradient id="radial-gradient-18" cx="70.18" cy="-80.25" r="3.32" xlink:href="#radial-gradient-4"/><radialGradient id="radial-gradient-19" cx="74.64" cy="-71.11" r="3.32" xlink:href="#radial-gradient-4"/><radialGradient id="radial-gradient-20" cx="131.07" cy="-75.42" r="3.32" xlink:href="#radial-gradient-4"/><radialGradient id="radial-gradient-21" cx="127.74" cy="-85.74" r="3.32" xlink:href="#radial-gradient-4"/><radialGradient id="radial-gradient-22" cx="152.04" cy="-71.3" r="3.32" xlink:href="#radial-gradient-4"/><radialGradient id="radial-gradient-23" cx="158.99" cy="-58.13" r="3.32" xlink:href="#radial-gradient-4"/><radialGradient id="radial-gradient-24" cx="436.22" cy="338.85" r="3.32" gradientTransform="translate(553.92 -302.8) rotate(105.93)" xlink:href="#radial-gradient-4"/><radialGradient id="radial-gradient-25" cx="424.44" cy="345.53" r="3.32" gradientTransform="translate(553.92 -302.8) rotate(105.93)" xlink:href="#radial-gradient-4"/><radialGradient id="radial-gradient-26" cx="431.7" cy="326.65" r="3.32" gradientTransform="translate(553.92 -302.8) rotate(105.93)" xlink:href="#radial-gradient-4"/><radialGradient id="radial-gradient-27" cx="454.79" cy="371.71" r="3.32" gradientTransform="translate(553.92 -302.8) rotate(105.93)" xlink:href="#radial-gradient-4"/><radialGradient id="radial-gradient-28" cx="468.54" cy="369.29" r="3.32" gradientTransform="translate(553.92 -302.8) rotate(105.93)" xlink:href="#radial-gradient-4"/><radialGradient id="radial-gradient-29" cx="467.78" cy="356.31" r="3.32" gradientTransform="translate(553.92 -302.8) rotate(105.93)" xlink:href="#radial-gradient-4"/><radialGradient id="radial-gradient-30" cx="465.64" cy="343.31" r="3.32" gradientTransform="translate(553.92 -302.8) rotate(105.93)" xlink:href="#radial-gradient-4"/><radialGradient id="radial-gradient-31" cx="455.23" cy="335.23" r="3.32" gradientTransform="translate(553.92 -302.8) rotate(105.93)" xlink:href="#radial-gradient-4"/><radialGradient id="radial-gradient-32" cx="434.18" cy="308.19" r="3.32" gradientTransform="translate(553.92 -302.8) rotate(105.93)" xlink:href="#radial-gradient-4"/><radialGradient id="radial-gradient-33" cx="447.8" cy="310.81" r="3.32" gradientTransform="translate(553.92 -302.8) rotate(105.93)" xlink:href="#radial-gradient-4"/></defs><title>Burger Bun</title><g id="Layer_2" data-name="Layer 2"><g id="burger_bun" data-name="burger bun"><g id="Burger_Bun-2" data-name="Burger Bun"><path class="cls-1" d="M186.73,120.43c3,11.66,2.66,28-5.67,35.33s-31.67,29-88,28S12.73,164.09,4.73,150.09s-4-24.42-1.34-31.66"/><path class="cls-2" d="M3.39,118.43c1.86-20.92,55-39.34,90-38.67s92.67,17,93.34,40.67-55.67,41.66-91.67,41.33S1.06,144.76,3.39,118.43Z"/><path class="cls-3" d="M19.31,26c15.08-12.82,40-26.34,75-26s61.34,11.33,73.34,22.33,21.66,27.33,12,46.33S157.5,97,131.23,103s-62.6,6.33-84.27-2.34-37.67-19-40-38S11.13,33,19.31,26Z"/><path class="cls-4" d="M42.9,29.83c.15,3.06,7.36-2.1,8-3.66C48.89,25.38,42.78,27.48,42.9,29.83Z"/><path class="cls-5" d="M62.4,20.66c.15,3.06,7.36-2.1,8-3.66C68.39,16.21,62.28,18.32,62.4,20.66Z"/><path class="cls-6" d="M82.56,34.6c.15,3.07,7.37-2.1,8-3.65C88.56,30.16,82.45,32.26,82.56,34.6Z"/><path class="cls-7" d="M56.23,36.27c.15,3.06,7.36-2.1,8-3.66C62.22,31.82,56.11,33.93,56.23,36.27Z"/><path class="cls-8" d="M77.4,26.44c.15,3.06,7.36-2.1,8-3.66C83.39,22,77.28,24.1,77.4,26.44Z"/><path class="cls-9" d="M101.4,33.88c.15,3.06,7.36-2.1,8-3.66C107.39,29.44,101.28,31.54,101.4,33.88Z"/><path class="cls-10" d="M122,38.66c.15,3.06,7.36-2.1,8-3.66C128,34.21,121.9,36.32,122,38.66Z"/><path class="cls-11" d="M138.63,43.43c.16,3.06,7.37-2.1,8-3.65C144.63,39,138.52,41.09,138.63,43.43Z"/><path class="cls-12" d="M109.56,52.11c.15,3.06,7.37-2.1,8-3.66C115.56,47.66,109.45,49.77,109.56,52.11Z"/><path class="cls-13" d="M130.64,52.55c.15,3.06,7.36-2.1,8-3.66C136.63,48.1,130.52,50.21,130.64,52.55Z"/><path class="cls-14" d="M109.56,36.27c.15,3.06,7.37-2.1,8-3.66C115.56,31.82,109.45,33.93,109.56,36.27Z"/><path class="cls-15" d="M119.3,52.11c.15,3.06,7.37-2.1,8-3.66C125.3,47.66,119.19,49.77,119.3,52.11Z"/><path class="cls-16" d="M88.9,43.87c.15,3.06,7.36-2.1,8-3.66C94.89,39.42,88.78,41.53,88.9,43.87Z"/><path class="cls-17" d="M56.23,46.26c.15,3.06,7.36-2.1,8-3.66C62.22,41.81,56.11,43.92,56.23,46.26Z"/><path class="cls-18" d="M36,43.87c.15,3.06,7.36-2.1,8-3.66C42,39.42,35.88,41.53,36,43.87Z"/><path class="cls-19" d="M44,50.16c.16,3.06,7.37-2.1,8-3.66C50,45.71,43.88,47.82,44,50.16Z"/><path class="cls-20" d="M92.9,21.66c.15,3.06,7.36-2.1,8-3.66C98.89,17.21,92.78,19.32,92.9,21.66Z"/><path class="cls-21" d="M85.4,13.83c.15,3.06,7.36-2.1,8-3.66C91.39,9.38,85.28,11.48,85.4,13.83Z"/><path class="cls-22" d="M113.56,16.21c.15,3.07,7.37-2.09,8-3.65C119.56,11.77,113.45,13.87,113.56,16.21Z"/><path class="cls-23" d="M125.56,25c.15,3.06,7.37-2.1,8-3.66C131.56,20.6,125.45,22.7,125.56,25Z"/><path class="cls-24" d="M109.69,19.54c-2.38-1.93-3.34,6.89-2.6,8.4C109,27,111.52,21,109.69,19.54Z"/><path class="cls-25" d="M106.5,6.38c-2.38-1.93-3.34,6.89-2.6,8.4C105.82,13.81,108.32,7.85,106.5,6.38Z"/><path class="cls-26" d="M122.67,18.55c-2.39-1.93-3.34,6.89-2.61,8.4C122,26,124.49,20,122.67,18.55Z"/><path class="cls-27" d="M73,28.38c-2.38-1.93-3.34,6.89-2.6,8.4C72.32,35.81,74.82,29.86,73,28.38Z"/><path class="cls-28" d="M71.55,42.27c-2.38-1.93-3.34,6.89-2.6,8.4C70.87,49.7,73.37,43.74,71.55,42.27Z"/><path class="cls-29" d="M84.24,45.1c-2.38-1.93-3.34,6.89-2.6,8.4C83.56,52.53,86.06,46.57,84.24,45.1Z"/><path class="cls-30" d="M97.33,46.61C95,44.68,94,53.5,94.73,55,96.65,54,99.16,48.08,97.33,46.61Z"/><path class="cls-31" d="M108,38.81c-2.38-1.93-3.34,6.89-2.6,8.4C107.27,46.24,109.78,40.29,108,38.81Z"/><path class="cls-32" d="M139.74,26c-2.38-1.92-3.34,6.89-2.6,8.4C139.06,33.42,141.56,27.47,139.74,26Z"/><path class="cls-33" d="M133.48,38.37c-2.38-1.93-3.34,6.89-2.6,8.4C132.8,45.8,135.3,39.84,133.48,38.37Z"/></g></g></g></svg>