<svg xmlns="http://www.w3.org/2000/svg" viewBox="0 0 285.17 149.99"><defs><style>.cls-1{fill:#fbdc46;}.cls-2{fill:#ffee7c;}.cls-3{fill:#eac01e;}.cls-4{fill:#fcc91c;}.cls-5{fill:#fed945;}.cls-6{fill:#fcee96;}.cls-7{fill:#f0c300;}.cls-8{fill:#f8d952;}.cls-9{fill:#ecc625;}.cls-10{fill:#fdf19f;}.cls-11{fill:#f9d84a;}.cls-12{fill:#fff297;}</style></defs><title>Butter</title><g id="Layer_2" data-name="Layer 2"><g id="butter"><g id="Butter-2" data-name="Butter"><polygon class="cls-1" points="0 9.74 3.71 81.33 107.02 119.23 110.11 44.38 0 9.74"/><polygon class="cls-2" points="110.11 44.38 172.59 30.31 72.99 0 0 9.74 110.11 44.38"/><polygon class="cls-3" points="110.11 44.38 172.59 30.31 172.59 40.83 135.47 48.25 107.02 119.23 110.11 44.38"/><polygon class="cls-4" points="202.06 65.09 209.08 48.25 150.32 59.81 118.77 123.72 129.3 123.39 124.95 119.23 172.59 70.52 202.06 65.09"/><polygon class="cls-5" points="135.47 129.28 124.95 119.23 172.59 70.52 183.1 80.11 135.47 129.28"/><polygon class="cls-6" points="235.06 59.81 172.59 70.52 183.1 80.11 244.34 69.96 235.06 59.81"/><polygon class="cls-7" points="158.05 111.34 154.03 126.19 135.47 129.28 183.1 80.11 244.34 69.96 212.17 95.26 158.05 111.34"/><polygon class="cls-8" points="222.07 149.99 154.03 126.19 158.05 111.34 222.07 129.28 222.07 149.99"/><polygon class="cls-9" points="285.17 135.51 222.07 149.99 222.07 129.28 282.07 115.67 285.17 135.51"/><polygon class="cls-10" points="212.17 95.26 282.07 115.67 222.07 129.28 158.05 111.34 212.17 95.26"/><polygon class="cls-11" points="107.02 119.23 118.77 123.72 150.32 59.81 135.47 48.25 107.02 119.23"/><polygon class="cls-12" points="172.59 40.83 209.08 48.25 150.32 59.81 135.47 48.25 172.59 40.83"/></g></g></g></svg>