<svg xmlns="http://www.w3.org/2000/svg" viewBox="0 0 166.34 178.58"><defs><style>.cls-1{fill:#b13e22;}.cls-2{fill:#831a1f;}.cls-3{fill:#c33440;}.cls-4{fill:#af3d21;}.cls-5{fill:#f3c345;}.cls-6{fill:#fff;}.cls-7{fill:#b33e22;}</style></defs><title>Asset 12</title><g id="Layer_2" data-name="Layer 2"><g id="chicken"><path class="cls-1" d="M15.83,62.31,0,63.81S4.17,46.47,18.33,45.64Z"/><path class="cls-1" d="M115.67,75s1.5-26.33,22.83-31,21.5,12,9.67,12.67S122,65.47,115.67,75Z"/><path class="cls-2" d="M117.33,78.47s13.5-18,41-7.57C168,73.07,169.48,54.71,155,53.26S121.83,59.47,117.33,78.47Z"/><path class="cls-1" d="M118.53,82.47s2.42-15.28,35.78,4.24c11.85,7.51,17.94-8.88,4-15.81S129.39,60.72,118.53,82.47Z"/><path class="cls-3" d="M29,31.47s-20.22-9-8.79-21.25c7.1-7.25,12.19,2.25,12.19,2.25S35.75-1.08,48,.07c5.29,1.15,6.69,9.4,6.69,9.4s7-6,14.61,2.5-.77,20.75-10.18,21.25S29,31.47,29,31.47Z"/><path class="cls-4" d="M58.25,147.93h3.67l.2,17.84s.8.08,1,.75l2.3,9.16s.12,5.67-2.46.5c-1.25-3.37-1.92-5.29-1.92-5.29l-2.75,6.5s-3,3.13-2.37-.75c.91-3,1.66-5.5,1.66-5.5l-5.62,2.42s-5.5-.21-1.46-2.38c3.29-1.5,8.92-4.62,8.92-4.62Z"/><path class="cls-5" d="M15.83,53.47S8.17,101.81,8.5,105.81s-1.83,46.5,52.17,43.33,71.66-18.67,65.83-75c-2.83-6.33-3.5-12.5-13.5.33-13.33,10.84-24.83,14-32,3.34-7.17-11.17-11.67-36-15.17-40.67s-12.16-19.83-38-9.5C18.17,35.14,16.5,36,15.83,53.47Z"/><path class="cls-1" d="M55.17,90.81S76.67,90,88.5,74.47c5.17-8.5,5.83.5,5,3.17s-3,9.83-3,9.83l5-5.66s6,4-2,15.83l5.83-4.5s4.17,13.74-9.66,27C57.5,151,21.83,96.14,55.17,90.81Z"/><circle cx="37.22" cy="48.55" r="6.83"/><circle class="cls-6" cx="36.77" cy="46.86" r="2.28"/><path class="cls-7" d="M80.57,145.89,82.92,165l-8.82,3.5s-2.56,1.75,0,2a14.73,14.73,0,0,0,5.61-.91l-4,6.75s-.75,3.5,1.91,1.29,6.63-8.29,6.63-8.29L84,175.52s1,3.79,2.21.16,1.41-8.33,0-10.41c0-2.92-1.71-19.67-1.71-19.67Z"/></g></g></svg>