<svg xmlns="http://www.w3.org/2000/svg" viewBox="0 0 177.72 200.04"><defs><style>.cls-1{fill:#9eca3a;}</style></defs><title>Asset 30</title><g id="Layer_2" data-name="Layer 2"><g id="cilantro"><path class="cls-1" d="M73.46,196.43s-1.17,5.84,2.5,2.67,19.18-20.35,20.68-22.18,5.84-8,17.69-6.68,18,8.23,26,9.51c4.17.67,12,2.5,12,2.5s-3.34-5-4.84-6,11.51.5,14.85-1.84c0,0-16.35-11-25.36-10.84,0,0,22.36-2,27.19-4.34,0,0-2.5-5-9.34-4.83,0,0,12.51-1.67,15.52-3.84,0,0-1.5-3.5-4.51-3.5,0,0,9.18-4.51,11.85-8.35,0,0-6.68-3.33-15.52,0v-4.33s-13.84,6.84-17,8.84c0,0,2.17-5.17,1.16-8.84,0,0-24,11.67-37.86,23.52,0,0,14.34-23.69,43.54-29.7,0,0,1-2.66-7.18-2.83,0,0,11.68-3.84,13.35-11.51,0,0-10.18-3-26.53,11a31.41,31.41,0,0,1,14.68-17.52c11.52-6.17,10-9.51,10-9.51s-4.67-1.16-12.34,2.34l9.84-10s-.67-1.33-5.67,0c0,0,6.34-9,4.84-13.85,0,0-9,4-11.85,11.52,0,0-.66-5.18-1.83-6.68,0,0-5.34,8.68-6.17,13,0,0-1-6.5-4.67-8.84,0,0-4.68,7.34-4.17,14.35,0,0,2.66,9.51,0,13.51,0,0-1.51-13.68-7.51-17,0,0-6.67,6.34-7,13.17a17.46,17.46,0,0,0-4.5-2.83s-3,3.5,1.5,9.84,2.67,17.52-1.34,26A90.77,90.77,0,0,1,98,155.73s5-32.86-3.84-39.87a10.32,10.32,0,0,0-3.67,5.84s-2-7.17-6.5-8c0,0,.16-7.67-3.67-9,0,0-3.17,7.68-2.51,12s-3.5,5.34,1.5,14.68a12,12,0,0,0-8.5-4.33,43.75,43.75,0,0,0,5.5,14.34s-9.34-.66-13.68-.16c0,0,1.34,5.5,7.51,10.34,0,0-.83,1.17-3.67,1.17,0,0-3.09,4.63,6.67,7.5,18.69,5.51,20,8.18,20,8.18Z"/><path class="cls-1" d="M69.71,191.17s4,4.41,3.64-.43-5-27.52-5.55-29.82-3-9.45,5.15-18.18,17.32-9.6,23.11-15.28c3-3,9.16-8.17,9.16-8.17s-6-.29-7.71.32,7.24-9,7.35-13c0,0-18.57,6.6-23.79,13.94,0,0,11.68-19.16,12.67-24.44,0,0-5.51-1-9.44,4.64,0,0,6.1-11.06,6.14-14.76,0,0-3.71-.87-5.5,1.54,0,0,1.83-10,.34-14.48,0,0-6.65,3.38-9.23,12.47l-3.48-2.57s-2.73,15.2-3,18.93c0,0-2.87-4.81-6.41-6.19,0,0-4.89,26.26-3.6,44.43,0,0-10.52-25.61,2-52.66,0,0-1.55-2.39-6.54,4.08,0,0,3.85-11.67-1.32-17.57,0,0-8.47,6.4-6.92,27.87A31.44,31.44,0,0,1,41.41,79.6c1.88-12.93-1.69-13.71-1.69-13.71S36,69,34.26,77.21l-2.2-13.86s-1.47-.26-3.37,4.56c0,0-3.48-10.46-8.26-12.12,0,0-2.14,9.62,2.21,16.36,0,0-4.55-2.53-6.45-2.49,0,0,3.8,9.45,6.79,12.7,0,0-5.82-3.06-9.88-1.5,0,0,3.12,8.12,9,11.88,0,0,9.24,3.51,10.87,8,0,0-11.89-6.92-18.15-4.07,0,0,1.14,9.13,6.44,13.46a17.56,17.56,0,0,0-5,1.94s1,4.5,8.81,4.64S40.83,125,45.29,133.29a90.76,90.76,0,0,1,6.27,14S28.11,123.7,17.22,126.64a10.27,10.27,0,0,0,2.51,6.42s-7-2.65-10.3.47c0,0-6.08-4.69-9.43-2.4,0,0,4.29,7.11,8.17,9.15s2.21,6,12.7,7.52a12,12,0,0,0-8.55,4.26,44,44,0,0,0,14.81,4.11s-6.09,7.11-8.26,10.9c0,0,5.22,2.2,12.78.11,0,0,.44,1.36-1.25,3.64,0,0,1.89,5.24,10-.9,15.53-11.75,18.47-11.24,18.47-11.24Z"/><path class="cls-1" d="M61.06,125.76s-.73,5.91,2.7,2.47,17.59-21.73,18.95-23.68,5.22-8.42,17.13-8,18.58,6.84,26.67,7.52c4.2.35,12.16,1.59,12.16,1.59s-3.7-4.74-5.28-5.63,11.52-.36,14.67-2.94c0,0-17.13-9.75-26.1-8.91,0,0,22.14-3.68,26.79-6.37,0,0-2.88-4.8-9.68-4.12,0,0,12.35-2.61,15.18-5,0,0-1.76-3.38-4.76-3.16,0,0,8.81-5.18,11.18-9.21,0,0-6.9-2.82-15.47,1.17l-.32-4.32s-13.29,7.86-16.3,10.09c0,0,1.77-5.32.5-8.9,0,0-23.08,13.45-36,26.31,0,0,12.52-24.7,41.18-32.89,0,0,.79-2.74-7.37-2.29,0,0,11.35-4.71,12.44-12.48,0,0-10.37-2.23-25.62,13A31.42,31.42,0,0,1,127,31.44c11-7,9.26-10.23,9.26-10.23s-4.74-.82-12.13,3.26l9.06-10.73s-.77-1.28-5.66.43c0,0,5.65-9.46,3.79-14.17,0,0-8.69,4.67-11,12.37,0,0-1-5.11-2.33-6.52,0,0-4.67,9.06-5.17,13.44,0,0-1.49-6.41-5.33-8.46,0,0-4.1,7.67-3.08,14.62,0,0,3.38,9.28,1,13.47,0,0-2.53-13.52-8.77-16.4,0,0-6.17,6.83-6,13.67a17.56,17.56,0,0,0-4.7-2.49s-2.73,3.72,2.23,9.7,4,17.27.63,26.05a91.23,91.23,0,0,1-6.47,13.88S85,50.18,75.62,43.86A10.28,10.28,0,0,0,72.4,50s-2.54-7-7.1-7.5c0,0-.41-7.66-4.33-8.7,0,0-2.59,7.89-1.59,12.16S56.29,51.51,62,60.45a12,12,0,0,0-8.81-3.69,43.91,43.91,0,0,0,6.57,13.9s-9.37,0-13.65.86c0,0,1.74,5.39,8.26,9.75,0,0-.74,1.22-3.57,1.44,0,0-2.74,4.85,7.22,7,19,4.08,20.58,6.64,20.58,6.64Z"/></g></g></svg>