<svg xmlns="http://www.w3.org/2000/svg" viewBox="0 0 240.33 151.43"><defs><style>.cls-1{fill:#fec865;}.cls-2{fill:#e29044;}.cls-3{fill:#fbb356;}</style></defs><title>Asset 32</title><g id="Layer_2" data-name="Layer 2"><g id="youtiao"><path class="cls-1" d="M52.71,103.94S27,119.5,25.36,121.63s-1.31,24.08,15.89,20.15,45.86-16.22,53.56-21,39.31-23.26,49.79-27.35,37.67-14.25,47.66-21.13,29.48-16.22,31.94-21.95,5.9-5.73,5.24-10.64-8.84-14.09-18.34-13.6-78.3,31.78-81.9,34.72S83.34,87.73,78.1,89.69,52.71,103.94,52.71,103.94Z"/><path class="cls-2" d="M229.44,39.74a12.47,12.47,0,0,0-2.64-5.45c-2.37,10.9-12.57,19.53-21.76,24.13-53.73,24.89-102.21,59-158.55,79.92-6.12,2-13,.11-19.5-2.7,2.28,4.49,6.58,7.89,14.26,6.14,17.19-3.93,45.86-16.22,53.56-21s39.31-23.26,49.79-27.35,37.67-14.25,47.66-21.13,29.48-16.22,31.94-21.95S230.1,44.65,229.44,39.74Z"/><path class="cls-1" d="M63.52,113.12s-25.71,15.56-27.35,17.69S34.86,154.89,52.06,151s45.86-16.22,53.56-21,39.31-23.26,49.79-27.35,37.67-14.25,47.66-21.13,29.48-16.22,31.94-22,5.9-5.73,5.24-10.64-8.84-14.09-18.34-13.6S143.62,67.1,140,70,94.15,96.91,88.91,98.87,63.52,113.12,63.52,113.12Z"/><path class="cls-3" d="M45.18,127.86c7.86-5.24,17-5.24,24.89-10.48,9.18-9.17,21-14.41,32.76-21C138.21,78.07,172.28,61,207.66,42.69,215,39,223.08,39.2,230.39,37.35a16.36,16.36,0,0,0-8.48-2c-9.5.49-78.29,31.78-81.9,34.72S94.15,96.91,88.91,98.87s-25.39,14.25-25.39,14.25-25.71,15.56-27.35,17.69c-.56.73-.9,3.81-.39,7.37A24,24,0,0,1,45.18,127.86Z"/><path class="cls-2" d="M224.69,62.35c-32.76,23.58-69.45,32.75-103.51,51.1-25.84,13.53-54,36.3-83.35,31.44,2.29,4.46,6.6,7.81,14.23,6.07,17.19-3.93,45.86-16.22,53.56-21s39.31-23.26,49.79-27.35,37.67-14.25,47.66-21.13,29.48-16.22,31.94-22c2.11-4.91,4.93-5.62,5.28-8.82C235.23,54.53,229.7,58.17,224.69,62.35Z"/><path class="cls-1" d="M28,77.82S2.28,93.38.64,95.51s-1.31,24.08,15.88,20.14,45.87-16.21,53.56-21,39.31-23.26,49.8-27.35,37.67-14.25,47.66-21.13S197,30,199.48,24.26s5.89-5.73,5.24-10.65S195.88-.47,186.38,0s-78.3,31.77-81.9,34.72S58.62,61.6,53.38,63.57,28,77.82,28,77.82Z"/><path class="cls-2" d="M204.72,13.61a12.55,12.55,0,0,0-2.64-5.44c-2.37,10.89-12.57,19.53-21.76,24.12-53.73,24.9-102.21,59-158.55,79.93-6.12,2-13,.11-19.51-2.7,2.28,4.49,6.59,7.89,14.26,6.13,17.2-3.93,45.87-16.21,53.56-21s39.31-23.26,49.8-27.35,37.67-14.25,47.66-21.13S197,30,199.48,24.26,205.37,18.53,204.72,13.61Z"/><path class="cls-1" d="M38.8,87s-25.71,15.56-27.35,17.69-1.31,24.08,15.89,20.14,45.86-16.21,53.55-21,39.31-23.26,49.8-27.35,37.67-14.25,47.66-21.13,29.48-16.22,31.94-22,5.9-5.73,5.24-10.65S206.69,8.71,197.19,9.2,118.89,41,115.29,43.92,69.43,70.78,64.19,72.75,38.8,87,38.8,87Z"/><path class="cls-3" d="M20.46,101.74c7.86-5.24,17-5.24,24.89-10.48,9.17-9.17,21-14.42,32.76-21C113.49,52,147.56,34.91,182.94,16.57c7.38-3.69,15.42-3.49,22.73-5.34a16.28,16.28,0,0,0-8.48-2c-9.5.49-78.3,31.77-81.9,34.72S69.43,70.78,64.19,72.75,38.8,87,38.8,87s-25.71,15.56-27.35,17.69c-.57.73-.9,3.81-.39,7.37A23.9,23.9,0,0,1,20.46,101.74Z"/><path class="cls-2" d="M200,36.22C167.21,59.81,130.52,69,96.45,87.33c-25.83,13.53-54,36.3-83.34,31.44,2.29,4.46,6.59,7.81,14.23,6.06,17.19-3.93,45.86-16.21,53.55-21s39.31-23.26,49.8-27.35,37.67-14.25,47.66-21.13,29.48-16.22,31.94-22c2.1-4.91,4.93-5.62,5.28-8.82C210.51,28.41,205,32.05,200,36.22Z"/><path class="cls-1" d="M42.73,82.79S17,98.35,15.37,100.48s-1.31,24.08,15.89,20.15,45.86-16.22,53.56-21,39.31-23.26,49.79-27.35,37.67-14.25,47.67-21.13S211.76,35,214.21,29.23s5.9-5.73,5.25-10.65S210.61,4.5,201.11,5s-78.29,31.77-81.89,34.72S73.36,66.57,68.11,68.54,42.73,82.79,42.73,82.79Z"/><path class="cls-2" d="M219.46,18.58a12.53,12.53,0,0,0-2.65-5.44c-2.37,10.9-12.56,19.53-21.76,24.12-53.72,24.9-102.2,59-158.55,79.93-6.12,2-13,.11-19.5-2.7,2.28,4.49,6.59,7.89,14.26,6.14,17.2-3.94,45.86-16.22,53.56-21s39.31-23.26,49.79-27.35,37.67-14.25,47.67-21.13S211.76,35,214.21,29.23,220.11,23.5,219.46,18.58Z"/><path class="cls-1" d="M53.54,92s-25.72,15.56-27.36,17.69-1.31,24.08,15.89,20.15,45.86-16.22,53.56-21,39.31-23.26,49.79-27.35,37.67-14.25,47.67-21.13,29.48-16.22,31.93-22,5.9-5.73,5.25-10.65-8.85-14.08-18.35-13.59S133.63,45.94,130,48.89,84.17,75.75,78.92,77.72,53.54,92,53.54,92Z"/><path class="cls-3" d="M35.19,106.71c7.86-5.24,17-5.24,24.9-10.48,9.17-9.17,21-14.42,32.76-21,35.37-18.34,69.44-35.38,104.82-53.72,7.39-3.69,15.42-3.49,22.73-5.34a16.26,16.26,0,0,0-8.48-2c-9.5.49-78.29,31.77-81.89,34.72S84.17,75.75,78.92,77.72,53.54,92,53.54,92s-25.72,15.56-27.36,17.69c-.56.73-.89,3.81-.38,7.37A23.93,23.93,0,0,1,35.19,106.71Z"/><path class="cls-2" d="M214.71,41.19C182,64.78,145.26,74,111.19,92.3c-25.83,13.53-54,36.3-83.34,31.44,2.29,4.46,6.59,7.81,14.22,6.07,17.2-3.94,45.86-16.22,53.56-21s39.31-23.26,49.79-27.35,37.67-14.25,47.67-21.13,29.48-16.22,31.93-22c2.11-4.91,4.93-5.62,5.28-8.82C225.25,33.38,219.71,37,214.71,41.19Z"/></g></g></svg>