<svg xmlns="http://www.w3.org/2000/svg" viewBox="0 0 185.85 139.08"><defs><style>.cls-1{fill:#fffcf6;}.cls-2{fill:#f1ede7;}</style></defs><title>Asset 45</title><g id="Layer_2" data-name="Layer 2"><g id="eggs"><path class="cls-1" d="M92.41,7.91c16-13.43,43.49-11.58,48.29,19.85,4,26.45-.21,61-26.15,79.21C90.66,123.76,60,99.06,56.84,83.24,55,73.87,49,44.22,92.41,7.91Z"/><path class="cls-2" d="M57.74,86.29s1.79,5.95,9.18,13.21c12.89,12.66,46.84,28.65,68-17.87C121.46,100.9,98.09,122.45,57.74,86.29Z"/><path class="cls-1" d="M2.48,31.25c3.73-20.59,26-36.73,49.81-15.64,20,17.73,38.85,47,30.59,77.59-7.6,28.19-47,28.86-59.53,18.69C16,105.88-7.62,86.92,2.48,31.25Z"/><path class="cls-2" d="M26,113.67s5.18,3.42,15.5,4.27c18,1.48,54.33-8,40.84-57.26C84.31,84.12,80.14,115.64,26,113.67Z"/><path class="cls-1" d="M128.3,36.36c13.25-16.19,40.55-19.5,51.14,10.48,8.91,25.23,11.18,59.94-10.89,82.7-20.33,21-55.11,2.43-61.12-12.54C103.87,108.15,92.46,80.14,128.3,36.36Z"/><path class="cls-2" d="M108.88,119.84s2.87,5.51,11.49,11.26c15,10,51.36,19.4,63.49-30.26C174.21,122.29,155.27,147.83,108.88,119.84Z"/></g></g></svg>