<svg xmlns="http://www.w3.org/2000/svg" viewBox="0 0 221.75 97.27"><defs><style>.cls-1{fill:#7a7a7c;}.cls-2{fill:#444;}.cls-3{fill:none;stroke:#7a7a7c;stroke-miterlimit:10;}</style></defs><title>Asset 7</title><g id="Layer_2" data-name="Layer 2"><g id="fish"><path class="cls-1" d="M92.58,35.56c-6.5-13-15-50,16.5-29.5s34,25.35,34,25.35Z"/><path class="cls-1" d="M55.58,47.8S-2.42,4.56.08,35.56C15.08,51.06,20.58,61,20.58,61l-11,14.45S-.6,111.64,26.27,89.93,55.58,47.8,55.58,47.8Z"/><path class="cls-2" d="M30.58,47.8s124.5-52.74,173.5-5.24c19.5,17,23,35.5-3.5,35.5-15.5,0-35.5-2.19-33.5-23.6-6.5,18.1-31.5,29.89-126,11.5C32.08,61.06,19.58,61.53,30.58,47.8Z"/><path class="cls-1" d="M169.33,54.87s-20-6.81-23,5.69-2,22.52,9,21.26,19.55-18.13,19.55-18.13Z"/><path class="cls-3" d="M209.08,69.56s-3,21.12-11.5,27.31"/><path class="cls-3" d="M217.92,66s7.5,13.33,0,24"/><circle class="cls-1" cx="199.48" cy="58.72" r="1.9"/><circle class="cls-1" cx="210.78" cy="54.22" r="1.2"/></g></g></svg>