<svg xmlns="http://www.w3.org/2000/svg" viewBox="0 0 120.25 179.92"><defs><style>.cls-1{fill:#c48753;}.cls-2{fill:#e7bd8c;}.cls-3{fill:#e09761;}.cls-4{fill:#fff;}</style></defs><title>Asset 44</title><g id="Layer_2" data-name="Layer 2"><g id="flour"><path class="cls-1" d="M93.4,14.37,120.25,6.6V167.24a49.5,49.5,0,0,1-25.67,10.6l-3.89-.41.75-6.66,3.14.94Z"/><path class="cls-2" d="M2,6.6.59,10.84l11.07,3.29L.59,15.31S-1.53,113.3,2.24,159l14.61,8.25L3,165.51,0,167.24s40.64,18.84,94.58,10.6v-1.05l-9.66-2.25,9.66-2.83L93.4,14.37Z"/><path class="cls-1" d="M2.74,159.27s3.78,3.77.6,6.29l13.51,1.68Z"/><path class="cls-1" d="M93.38,172.06s-1.38.23.81,4.64l-9.27-2.16Z"/><polygon class="cls-3" points="2.01 6.59 34.28 0 120.25 6.59 93.4 14.37 2.01 6.59"/><path class="cls-3" d="M.83,10.9l10.83,3.23L.59,15.31C2.15,13.79,2.34,12.71.83,10.9Z"/><path class="cls-4" d="M24.42,57.74l-.2,2.09-6.46-.44-.34,3.53,5.18.35-.2,2-5.18-.36-.53,5.55-3.07-.21,1.27-13.19Zm4.06,11.52,5.16.35-.2,2-8.22-.57,1.27-13.18,3.07.21ZM47.59,60a6.55,6.55,0,0,1,2.53,2.59,6.11,6.11,0,0,1,.68,3.55,6.45,6.45,0,0,1-1.35,3.42,7.22,7.22,0,0,1-3,2.23,9.06,9.06,0,0,1-4,.59,8.67,8.67,0,0,1-3.82-1.13,6.51,6.51,0,0,1-2.53-2.6,6.16,6.16,0,0,1-.68-3.56,6.42,6.42,0,0,1,1.35-3.41,7,7,0,0,1,3-2.21,8.92,8.92,0,0,1,4-.6A8.67,8.67,0,0,1,47.59,60Zm-6.48,1.66a4,4,0,0,0-1.75,1.4,4.52,4.52,0,0,0-.79,2.24,4.33,4.33,0,0,0,.35,2.33,3.67,3.67,0,0,0,1.46,1.61,5,5,0,0,0,2.32.69,5.28,5.28,0,0,0,2.42-.36,4.06,4.06,0,0,0,1.75-1.39,4.6,4.6,0,0,0,.79-2.25,4.34,4.34,0,0,0-.35-2.33A3.67,3.67,0,0,0,45.85,62a5,5,0,0,0-2.32-.69A5.26,5.26,0,0,0,41.11,61.66ZM56.7,60,56,67.68a3.05,3.05,0,0,0,.57,2.38,3.1,3.1,0,0,0,2.22.93,2.86,2.86,0,0,0,3.37-2.89l.75-7.73,3,.21-.74,7.73a5.9,5.9,0,0,1-1.09,3,5.06,5.06,0,0,1-2.39,1.72,7.9,7.9,0,0,1-3.24.4,6.41,6.41,0,0,1-4.28-1.72,5.11,5.11,0,0,1-1.26-4.28l.75-7.73ZM75.34,74.5l-3.1-5.38L70.89,69l-.49,5.14L67.33,74,68.6,60.76l5.86.4a6.34,6.34,0,0,1,4,1.4,3.55,3.55,0,0,1,1.12,3,3.61,3.61,0,0,1-1.21,2.44,5.18,5.18,0,0,1-2.93,1.15l3.32,5.53Zm-4.27-7.29,2.52.18c1.76.12,2.7-.49,2.83-1.82a1.79,1.79,0,0,0-.5-1.53A3,3,0,0,0,74,63.37l-2.52-.17Z"/></g></g></svg>