<svg xmlns="http://www.w3.org/2000/svg" viewBox="0 0 246.95 467.92"><defs><style>.cls-1{fill:#849ca0;}.cls-2{fill:#b0ebff;}.cls-3{fill:#fff;}.cls-4,.cls-5{fill:#9ed8e5;}.cls-4{opacity:0.5;}.cls-6{fill:#d4fbff;}</style></defs><title>Asset 1</title><g id="Layer_2" data-name="Layer 2"><g id="Layer_1-2" data-name="Layer 1"><rect class="cls-1" x="30.33" y="448.08" width="33" height="19.85" rx="5.39" ry="5.39"/><rect class="cls-1" x="183.95" y="448.08" width="33" height="19.85" rx="5.39" ry="5.39"/><path class="cls-2" d="M247,140V15.06A15.06,15.06,0,0,0,231.89,0H15.06A15.06,15.06,0,0,0,0,15.06V140Z"/><path class="cls-2" d="M0,154.67V435.76a15.06,15.06,0,0,0,15.06,15.06H231.89A15.06,15.06,0,0,0,247,435.76V154.67Z"/><rect class="cls-3" x="20.67" y="73.33" width="11.33" height="40.67"/><rect class="cls-3" x="20.67" y="183.33" width="11.33" height="40.67"/><polygon class="cls-4" points="246.95 154.67 229 154.67 108 450.84 131.5 450.84 246.95 154.67"/><path class="cls-5" d="M247,154.67,128,450.82H231.89c6.92,0,15-5.7,15-14.25Z"/><path class="cls-6" d="M8.67,154.67V449.45A18.53,18.53,0,0,1,4,445.93a13.2,13.2,0,0,1-1-1.26,17.79,17.79,0,0,1-1.62-2.74l-.52-1.34a15.81,15.81,0,0,1-.71-3.25V154.67Z"/><path class="cls-1" d="M.81,440.83H246.15l-.39,1a15.83,15.83,0,0,1-8.87,8.14,19.42,19.42,0,0,1-6.31.87H15a15,15,0,0,1-12.31-6.38A17.87,17.87,0,0,1,.81,440.83Z"/><path class="cls-6" d="M0,140H8.67V1.39A20.16,20.16,0,0,0,6.51,2.66s-.94.7-1.19.92A19.31,19.31,0,0,0,3.23,5.74,16.25,16.25,0,0,0,.76,10.31,16.66,16.66,0,0,0,0,14.87Z"/></g></g></svg>