<svg xmlns="http://www.w3.org/2000/svg" viewBox="0 0 171.24 136.29"><defs><style>.cls-1{fill:#e29044;}.cls-2{fill:#fec865;}.cls-3{fill:#edd2a6;}.cls-4{fill:none;stroke:#e29044;stroke-miterlimit:10;}.cls-5{fill:#d9bd79;}</style></defs><title>Asset 36</title><g id="Layer_2" data-name="Layer 2"><g id="garlic"><path class="cls-1" d="M109.07,131.39a6.49,6.49,0,0,0-2.13-3.08s0,0,0-.06c-.58-.71-2.49-.1-4.26,1.35s-2.74,3.21-2.16,3.92,2,.23,3.58-.84c-.15,1.92.29,3.47,1.09,3.6.61.1,1.27-.67,1.75-1.87.72,1.06,1.52,1.67,2.1,1.45C109.87,135.53,109.9,133.53,109.07,131.39Z"/><path class="cls-2" d="M73.47,96c8.67-22.93,27-36.26,40.1-55.45,13.59-18.32,10.07-18.82,13.86-39.8L122.57,0s-.91,18.05-15.19,38.07S62.56,63.2,59.22,83.64c-2.38,14.55,3.28,24.93,12.38,32.25A33.22,33.22,0,0,1,73.47,96Z"/><path class="cls-3" d="M135.09,38.88c-4.87-22.1.88-30.7,1.81-36.63L127.43.76c-3.79,21-.27,21.48-13.86,39.8C100.43,59.75,82.14,73.08,73.47,96a33.22,33.22,0,0,0-1.87,19.88c11,8.82,26.92,13.18,39.92,15,23.79,3.23,53.68-2.73,58.42-20.68C178.68,77.12,140.41,63,135.09,38.88Z"/><path class="cls-4" d="M108.09,65.91S90.61,82.14,94.53,110.34"/><path class="cls-4" d="M114.51,113.94s15.33-18.28,7.95-45.78"/><path class="cls-4" d="M130,117.83s15.33-18.27,8-45.77"/><path class="cls-5" d="M72,90.72c4.8-11.27,28.4-31,41.54-50.16,13.59-18.32,10.07-18.82,13.86-39.8L122.57,0s-.91,18.05-15.19,38.07S62.56,63.2,59.22,83.64c-2.38,14.55,3.28,24.93,12.38,32.25C70.35,109.47,69.12,97.57,72,90.72Z"/><path class="cls-4" d="M92.25,63.42S74.77,79.65,78.69,107.85"/><path class="cls-1" d="M60.89,129.71a6.5,6.5,0,0,0-2.87-2.4s0,0,0,0c-.75-.52-2.42.56-3.75,2.44s-1.78,3.82-1,4.35,2-.32,3.23-1.77c.36,1.9,1.2,3.28,2,3.19.62-.07,1-1,1.19-2.27,1,.83,1.91,1.2,2.41.83C62.77,133.49,62.26,131.55,60.89,129.71Z"/><path class="cls-3" d="M17.16,105.09C19.4,80.68,33.48,63,41,41c8.22-21.28,6.5-17.53,4.56-38.76l-4.88.56s2.12,14.34-6.31,37.45S-2.1,76.37.13,97c1.58,14.65,9.8,23.15,20.51,27.79A33.22,33.22,0,0,1,17.16,105.09Z"/><path class="cls-3" d="M61.34,33.62C57,28.13,55.8,7.09,55.12,1.13L45.6,2.21C47.54,23.44,46,30.8,41,41,33.48,63,19.4,80.68,17.16,105.09a33.22,33.22,0,0,0,3.48,19.67c12.92,5.58,29.47,5.53,42.47,3.77,23.79-3.22,51-16.93,50.8-35.49C113.54,58.86,72.89,55.45,61.34,33.62Z"/><path class="cls-4" d="M42.51,66.86S30,87.16,41.27,113.3"/><path class="cls-4" d="M61.49,111.44S71.4,89.74,57,65.21"/><path class="cls-4" d="M77.46,111.07s9.92-21.7-4.52-46.23"/><path class="cls-5" d="M14.35,100.38C16,88.24,35,63.44,42.51,41.45c8.22-21.28,5-18,3.09-39.24l-4.88.56s2.12,14.34-6.31,37.45S-2.1,76.37.13,97c1.58,14.65,9.8,23.15,20.51,27.79C17.73,118.9,13.38,107.75,14.35,100.38Z"/><path class="cls-4" d="M26.58,68.67S14.05,89,25.34,115.12"/></g></g></svg>