<svg xmlns="http://www.w3.org/2000/svg" viewBox="0 0 81.72 158.32"><defs><style>.cls-1{fill:#a27eff;}.cls-2{fill:#672cff;}.cls-3{fill:#728a3f;}</style></defs><title>Asset 13</title><g id="Layer_2" data-name="Layer 2"><g id="grapes"><path class="cls-1" d="M29.89,48.61A11.13,11.13,0,0,1,26.47,55l.36-.25A15.94,15.94,0,0,0,14.22,26.43C25.07,28.69,33.56,35.44,29.89,48.61Z"/><path class="cls-2" d="M29.89,48.61c3.67-13.17-4.82-19.92-15.67-22.18a15.78,15.78,0,0,0-6.85,3A15.94,15.94,0,0,0,26.47,55,11.13,11.13,0,0,0,29.89,48.61Z"/><path class="cls-1" d="M44.7,57.8a11.13,11.13,0,0,1-3.42,6.39c.11-.09.24-.16.35-.25A15.94,15.94,0,0,0,29,35.62C39.87,37.88,48.37,44.63,44.7,57.8Z"/><path class="cls-2" d="M44.7,57.8C48.37,44.63,39.87,37.88,29,35.62A15.94,15.94,0,1,0,41.28,64.19,11.13,11.13,0,0,0,44.7,57.8Z"/><path class="cls-1" d="M58.36,43.6A11.14,11.14,0,0,1,54.94,50c.11-.08.24-.15.35-.24a15.95,15.95,0,0,0-12.6-28.33C53.53,23.67,62,30.43,58.36,43.6Z"/><path class="cls-2" d="M58.36,43.6C62,30.43,53.53,23.67,42.69,21.41A15.94,15.94,0,1,0,54.94,50,11.14,11.14,0,0,0,58.36,43.6Z"/><path class="cls-1" d="M72,63.68a11.2,11.2,0,0,1-3.42,6.39c.11-.09.24-.16.35-.25a15.95,15.95,0,0,0-12.6-28.33C67.19,43.75,75.69,50.51,72,63.68Z"/><path class="cls-2" d="M72,63.68c3.67-13.17-4.83-19.93-15.67-22.19A15.95,15.95,0,1,0,68.6,70.07,11.2,11.2,0,0,0,72,63.68Z"/><path class="cls-1" d="M51.24,81.46a11.09,11.09,0,0,1-3.43,6.39c.12-.08.25-.15.36-.24a15.95,15.95,0,0,0-12.6-28.33C46.41,61.54,54.91,68.3,51.24,81.46Z"/><path class="cls-2" d="M51.24,81.46c3.67-13.16-4.83-19.92-15.67-22.18A15.94,15.94,0,1,0,47.81,87.85,11.09,11.09,0,0,0,51.24,81.46Z"/><path class="cls-1" d="M28.75,68.77a11.09,11.09,0,0,1-3.43,6.39l.36-.25A15.94,15.94,0,0,0,13.07,46.59C23.92,48.85,32.41,55.61,28.75,68.77Z"/><path class="cls-2" d="M28.75,68.77c3.66-13.16-4.83-19.92-15.68-22.18A15.94,15.94,0,1,0,25.32,75.16,11.09,11.09,0,0,0,28.75,68.77Z"/><path class="cls-1" d="M55.48,61.5a11.13,11.13,0,0,1-3.42,6.39l.36-.25A15.95,15.95,0,0,0,39.81,39.32C50.65,41.58,59.15,48.34,55.48,61.5Z"/><path class="cls-2" d="M55.48,61.5c3.67-13.16-4.83-19.92-15.67-22.18A15.94,15.94,0,1,0,52.06,67.89,11.13,11.13,0,0,0,55.48,61.5Z"/><path class="cls-1" d="M78.56,90.34a11.15,11.15,0,0,1-3.43,6.39c.12-.09.25-.16.36-.25a15.95,15.95,0,0,0-12.6-28.33C73.73,70.41,82.23,77.17,78.56,90.34Z"/><path class="cls-2" d="M78.56,90.34c3.67-13.17-4.83-19.93-15.67-22.19A15.94,15.94,0,1,0,75.13,96.73,11.15,11.15,0,0,0,78.56,90.34Z"/><path class="cls-1" d="M31.36,97.41a11.2,11.2,0,0,1-3.42,6.39c.11-.09.24-.16.35-.25a15.95,15.95,0,0,0-12.6-28.33C26.53,77.48,35,84.24,31.36,97.41Z"/><path class="cls-2" d="M31.36,97.41C35,84.24,26.53,77.48,15.69,75.22A15.95,15.95,0,1,0,27.94,103.8,11.2,11.2,0,0,0,31.36,97.41Z"/><path class="cls-1" d="M58.36,106.28a11.17,11.17,0,0,1-3.42,6.39c.11-.09.24-.16.35-.25A15.94,15.94,0,0,0,42.69,84.1C53.53,86.36,62,93.11,58.36,106.28Z"/><path class="cls-2" d="M58.36,106.28C62,93.11,53.53,86.36,42.69,84.1a15.94,15.94,0,1,0,12.25,28.57A11.17,11.17,0,0,0,58.36,106.28Z"/><path class="cls-1" d="M39.53,122.22a11.09,11.09,0,0,1-3.43,6.39c.12-.08.25-.16.36-.25A15.94,15.94,0,0,0,23.86,100C34.7,102.3,43.2,109.05,39.53,122.22Z"/><path class="cls-2" d="M39.53,122.22C43.2,109.05,34.7,102.3,23.86,100A15.94,15.94,0,1,0,36.1,128.61,11.09,11.09,0,0,0,39.53,122.22Z"/><path class="cls-1" d="M62,131.81a11.2,11.2,0,0,1-3.42,6.39c.11-.09.24-.16.35-.25a15.95,15.95,0,0,0-12.6-28.33C57.19,111.88,65.69,118.64,62,131.81Z"/><path class="cls-2" d="M62,131.81c3.67-13.17-4.83-19.93-15.67-22.19A15.95,15.95,0,1,0,58.6,138.2,11.2,11.2,0,0,0,62,131.81Z"/><path class="cls-1" d="M50.09,148.88a11.13,11.13,0,0,1-3.42,6.39L47,155A15.95,15.95,0,0,0,34.42,126.7C45.26,129,53.76,135.71,50.09,148.88Z"/><path class="cls-2" d="M50.09,148.88c3.67-13.17-4.83-19.92-15.67-22.18a15.94,15.94,0,1,0,12.25,28.57A11.13,11.13,0,0,0,50.09,148.88Z"/><path class="cls-3" d="M35.57,0h4.82S33.24,26.18,38,37.22l-8.24,1.84S28.74,19.07,35.57,0Z"/></g></g></svg>