<svg xmlns="http://www.w3.org/2000/svg" viewBox="0 0 157.83 302.86"><defs><style>.cls-1{fill:#777;stroke-width:0.9px;}.cls-1,.cls-4{stroke:#a5a2a0;stroke-miterlimit:10;}.cls-2{fill:#a58a84;}.cls-3{fill:#715144;}.cls-4{fill:none;stroke-width:2.56px;}</style></defs><title>grill</title><g id="Layer_2" data-name="Layer 2"><g id="griller"><g id="grill"><polygon class="cls-1" points="94 165.41 106.99 160.81 147.29 295 147.29 295 94 165.41"/><polygon class="cls-1" points="53.72 164.74 40.73 160.13 0.43 294.33 0.43 294.33 53.72 164.74"/><polygon class="cls-1" points="66.97 162.89 80.75 162.89 73.86 302.84 73.86 302.84 66.97 162.89"/><rect class="cls-2" x="124.86" y="105.02" width="4.32" height="9.88" transform="translate(83.26 -52.25) rotate(34.02)"/><rect class="cls-2" x="135.41" y="108.94" width="4.09" height="9.88" transform="translate(87.24 -57.41) rotate(34.02)"/><rect class="cls-2" x="133.27" y="21.3" width="4.09" height="9.88" transform="translate(58.19 -88) rotate(45)"/><path class="cls-2" d="M48.28,12.56C68.76-7.92,107.08-2.81,133.86,24s31.89,65.1,11.41,85.58Z"/><ellipse class="cls-3" cx="96.78" cy="61.05" rx="20.63" ry="68.58" transform="translate(-14.83 86.31) rotate(-45)"/><ellipse class="cls-3" cx="75.38" cy="126.63" rx="68.58" ry="20.63"/><path class="cls-4" d="M12.77,135.13c6.08-8.93,32.33-15.64,63.8-15.64,30.56,0,56.2,6.33,63.22,14.87"/><line class="cls-4" x1="61.81" y1="119.99" x2="99.26" y2="157.44"/><line class="cls-4" x1="76" y1="119.5" x2="112.01" y2="155.51"/><line class="cls-4" x1="93.72" y1="120.17" x2="125.53" y2="151.99"/><line class="cls-4" x1="114.13" y1="123.07" x2="137.25" y2="146.19"/><line class="cls-4" x1="49.97" y1="121.19" x2="86.98" y2="158.2"/><line class="cls-4" x1="36.23" y1="123.7" x2="71.2" y2="158.66"/><line class="cls-4" x1="14.18" y1="133.45" x2="34.85" y2="154.12"/><line class="cls-4" x1="25.33" y1="127.01" x2="55.98" y2="157.66"/><path class="cls-2" d="M75.38,147.26C37.5,147.26,6.8,138,6.8,126.63c0,29,30.7,52.44,68.58,52.44S144,155.59,144,126.63C144,138,113.26,147.26,75.38,147.26Z"/><ellipse class="cls-2" cx="139.25" cy="22.3" rx="3.67" ry="6.98" transform="translate(25.01 105) rotate(-45)"/></g></g></g></svg>