<svg xmlns="http://www.w3.org/2000/svg" xmlns:xlink="http://www.w3.org/1999/xlink" viewBox="0 0 181.76 191.06"><defs><style>.cls-1{fill:#e5f1c4;}.cls-2{fill:url(#linear-gradient);}.cls-3{fill:url(#linear-gradient-2);}.cls-4{fill:url(#linear-gradient-3);}</style><linearGradient id="linear-gradient" x1="46.15" y1="205.64" x2="143.65" y2="36.76" gradientUnits="userSpaceOnUse"><stop offset="0" stop-color="#c0ca64"/><stop offset="0.2" stop-color="#bdc863"/><stop offset="0.33" stop-color="#b5c15e"/><stop offset="0.45" stop-color="#a6b455"/><stop offset="0.55" stop-color="#90a34a"/><stop offset="0.64" stop-color="#758d3b"/><stop offset="0.67" stop-color="#6b8435"/></linearGradient><linearGradient id="linear-gradient-2" x1="-17.24" y1="170.5" x2="76.47" y2="8.18" gradientUnits="userSpaceOnUse"><stop offset="0" stop-color="#c0ca64"/><stop offset="0.2" stop-color="#acba59"/><stop offset="0.73" stop-color="#7d933f"/><stop offset="1" stop-color="#6b8435"/></linearGradient><linearGradient id="linear-gradient-3" x1="19.08" y1="186.7" x2="110.34" y2="28.63" gradientUnits="userSpaceOnUse"><stop offset="0" stop-color="#c0ca64"/><stop offset="0.12" stop-color="#b6c25f"/><stop offset="0.33" stop-color="#9cad50"/><stop offset="0.6" stop-color="#728a39"/><stop offset="0.64" stop-color="#6b8435"/></linearGradient></defs><title>Asset 42</title><g id="Layer_2" data-name="Layer 2"><g id="lettuce"><ellipse class="cls-1" cx="10.36" cy="182.53" rx="10.36" ry="8.53"/><path class="cls-2" d="M15,183.7A6,6,0,0,1,17.25,189c6.5-2,62-22.75,83.25-55s54-57.5,70-63,14-16.25,0-15-14-4.75-16.25-2.25-3,7.5-5.75,6.25-3.45-5.75-7-1.5,1,10.75-5.77,9.5-13.06-4.25-15.41,5-1.34,13.5-9.09,11-37.5,14.5-37.5,14.5L12,173Z"/><path class="cls-3" d="M8.25,180.45s-2.5-2-8.25,0c0,0,4.75-70.75,12-84.5S22.3,79,21.27,66.2,33.75,23.7,42,15,45.75,1.2,53.75.2,69.87,2,68.56,7.7s1.81,7.75,0,11.5-2.44,2.5-4.87,6S66,36.45,66.5,39s-1,44.25-4.25,48.75S8.25,180.45,8.25,180.45Z"/><path class="cls-4" d="M8.25,180.45s-2.75-29.25,0-31,9.25-2.25,9.25-6.25-2.75-6.25,0-7.75,9-.25,7.5-4.25-8.75-9-5-11,12.25-2,10.25-5-1.5-19.47,2.25-17.73,6,6.48,6,6.48A13.19,13.19,0,0,0,36,93.2c-4-5.25,4,0,7.25-1.75s-3.25-13,0-15.5S51,72,51.5,66s-3.75-4.75,0-10.25S63.75,47.7,63.75,45s-2-10.25,2-11.25,8.25-1.25,10.75-4,13.75-9.5,19.75-8.5,9.91,8.25,14.58,8.25S120,40,118.5,45.7s.25,9,1.5,12-1.25,5.25-2,9,4,8-3.75,13.5,4.43,11.75,1.22,14.25-16,7-14.47,13.25S103.75,120,91.25,120s-6.65,4.75-4.07,9S86,131,82,131s-7.25,2.75-2.25,4.5,5.25,4.5.5,4.5-9,2.25-6,6-1.63,3.75-5.69,2.75-9.31-1.25-6.56,2.5-37,20.5-47,32.5Z"/><path class="cls-1" d="M9.25,180.7s25-35.25,25-38.75,1.75-15.75,0-19.25c0,0,3.5,9.75,3,13.75L44.5,126s1.25-21-2-28.73c0,0,6.5,17.88,5.5,23.93l5.75-9.2s-1-20.75-5-29.75c0,0,8,19.5,8,25.5l9-14.75S60,69,57.25,61.2c0,0,10.62,19.5,11.31,27.5l6.69-11.5S73.87,52.45,68.56,42c0,0,9.69,20.77,9.44,29.89L89.25,55s1.5-13.75-4-22.5A25.87,25.87,0,0,1,91.5,51l19.33-18.5L94.75,52.2,112,50l-19.21,5.5-13,21S103.68,68,112,70.2c0,0-29.71,5.75-34.21,9.75L70,92.2s18.89-11,36.19-7c0,0-20.57.5-37.63,10.25L59.5,110.2S80,100.45,97.25,102c0,0-26.39,4.76-39.5,12.75l-6.25,9s24-9.5,34-5.75c0,0-21.78,1.55-35,9.25L40,139.77l22.75-4.57s-22.5,5.25-25,8.5L15,183.7Z"/><path class="cls-1" d="M16.5,185.7S75.75,158,76.25,156.2s0-7.5,0-7.5l2.25,5,7.75-8.25V137.2l2.5,5.5,5.75-7.5s-.5-6.5-4-10.25c0,0,5.5,5.5,5.75,7.5L103,123.7a47.84,47.84,0,0,0-3-8.25l5.5,4.25,5.83-5.75s.67-5-1.83-12.25c0,0,3.5,4,4.25,8,0,0,8.5-8.53,11-10.53,0,0-.5-9.75-4-17.5,0,0,6.24,7.5,6.49,14.25l9-6.25s1-11.48-2-17.11c0,0,5,7.36,5,14.36l10-5.5s1.5-3.5,1.25-15.75c0,0,2.25,10.25,1.5,13.75l15.75-8.25s-.75-2.87-10.5-8.12c0,0,14.25,2.62,13.25,7.87,0,0-27,17.5-31.25,20.75s-15,13.6-21.31,21.31c-16.06,24.82-38.13,47.63-61.19,58.44C27.38,186.83,17.25,189,17.25,189Z"/><path class="cls-1" d="M1.48,180S5.5,138.7,8,130s6.75-16.75,12-19.5l-8,1.75S13.5,101,17.75,95,22,85.7,22,85.7s6.75-4.25,10.75-2.5c0,0-3-3.34-10.25-.42,0,0,2.25-6.08,1.5-11.08,0,0,3.5-5.25,8.75-3.5,0,0-3-4.75-8.5-3.25,0,0-2-6.5,1.25-10.25,0,0,5.89-3,9.07-.75,0,0-4.37-4.54-7.57-3.75C27,50.2,29,38,33.25,37c0,0,10-2.5,13.75,2,0,0-4.11-7.75-12.43-6.5,0,0,1.68-6,5.43-8.5,0,0,8.5-4,13.25,0,0,0-1.5-5.5-9.75-4.5,0,0,2.25-5,4-5.75,0,0,5.25-3.75,9.25-2.25,0,0-2.25-4.21-8.5-.35L51,.88s-1.4.17-3.34,4.63S41.55,13.9,37.4,21.1,25,40.62,21.76,59.29s.31,18.4-6.8,31.15S8.21,103.8,5.82,122.93,0,180.45,0,180.45Z"/></g></g></svg>