<svg xmlns="http://www.w3.org/2000/svg" viewBox="0 0 113.15 193.45"><defs><style>.cls-1{fill:#4c56d3;}.cls-2{fill:#3f4ba8;}.cls-3{fill:none;stroke:#fff;stroke-miterlimit:10;stroke-width:1.2px;}.cls-4{fill:#fff;}.cls-5{fill:#d6d6d6;}.cls-6{font-size:14.41px;font-family:Poppins-SemiBold, Poppins;font-weight:700;}</style></defs><title>Asset 43</title><g id="Layer_2" data-name="Layer 2"><g id="milk"><polygon class="cls-1" points="0.06 44.83 71.53 50.84 73.33 193.45 0.06 185.68 0.06 44.83"/><polygon class="cls-2" points="71.53 50.84 93.45 17.81 112.97 39.13 112.97 170.36 73.33 193.45 71.53 50.84"/><polygon class="cls-1" points="0.06 44.83 23.78 14.5 93.45 17.81 71.53 50.84 0.06 44.83"/><polygon class="cls-1" points="23.78 14.5 23.78 0 93.45 3.69 93.45 17.81 23.78 14.5"/><polyline class="cls-3" points="0.06 102 72.25 108.01 112.97 96.29"/><polyline class="cls-3" points="0.06 135.93 73.33 142.84 112.97 130.53"/><polygon class="cls-4" points="0.06 108.01 72.25 114.31 72.63 137.73 0.06 130.83 0.06 108.01"/><polygon class="cls-5" points="72.25 114.31 112.97 102 112.97 125.42 72.63 137.73 72.25 114.31"/><text class="cls-6" transform="translate(16.13 127.43) rotate(3.56)">MILK</text></g></g></svg>