<svg xmlns="http://www.w3.org/2000/svg" viewBox="0 0 176.09 205.8"><defs><style>.cls-1{fill:#fec865;stroke:#e29044;stroke-miterlimit:10;stroke-width:0.38px;}.cls-2{fill:#e29044;}.cls-3{font-size:27.61px;fill:#fff;font-family:Poppins-Bold, Poppins;font-weight:700;}</style></defs><title>Asset 18</title><g id="Layer_2" data-name="Layer 2"><g id="ramen"><path class="cls-1" d="M14.91,4.13S.31,17.27,6.44,29.75s14.77,15.81,11,25-11.33,11.85-4,19S24,80.39,20.23,88.1,1,107.48,4.83,116.69s14.33,7.56,9.89,16.05S-.6,144,3.18,151.74s12.52,4.64,8.28,13.13S.34,171.43,4,181,17.87,195,15.45,191.35,7.36,184.62,8,180.45s7.45-12,8.17-14.69-1.83-11.19-5.36-14,1.66-9.11,4.86-13,9.06-5.34,4.55-10.75S10.6,122,9.5,116.83s9.08-14,12.81-24,5.3-13-.94-18.75S14.6,66,18.15,60.82s6.39-7.91,4-13-7.25-9.42-9.26-15.71S7.85,24,11.26,16,14.91,4.13,14.91,4.13Z"/><path class="cls-1" d="M19.78,3.89S5.17,17,11.3,29.51s14.77,15.81,11,25S11,66.37,18.34,73.53s10.49,6.62,6.76,14.33S5.84,107.24,9.69,116.45s14.33,7.56,9.9,16S4.27,143.79,8,151.5s12.52,4.64,8.28,13.12S5.2,171.19,8.86,180.79s13.87,14,11.45,10.32-8.09-6.73-7.45-10.9,7.45-12,8.17-14.69-1.83-11.19-5.36-14,1.67-9.11,4.86-13,9.06-5.34,4.55-10.76-9.62-5.91-10.72-11.12,9.08-14,12.81-24,5.3-13-.93-18.75S19.46,65.71,23,60.58s6.38-7.91,4-13-7.25-9.42-9.26-15.71-5.06-8-1.64-16.09S19.78,3.89,19.78,3.89Z"/><path class="cls-1" d="M25.06,3.63S10.45,16.77,16.59,29.24s14.77,15.82,11,25-11.33,11.84-4,19,10.49,6.63,6.76,14.33S11.12,107,15,116.18s14.34,7.56,9.9,16.06-15.32,11.29-11.55,19,12.53,4.64,8.29,13.12-11.12,6.57-7.47,16.16,13.88,14,11.45,10.33-8.09-6.73-7.45-10.9,7.46-12,8.17-14.7-1.83-11.18-5.36-14,1.67-9.1,4.87-13,9-5.34,4.55-10.76-9.62-5.91-10.73-11.12,9.08-14,12.81-24,5.3-13-.93-18.76-6.78-8.17-3.22-13.3,6.39-7.91,4-13.06-7.24-9.41-9.25-15.7-5.06-8-1.65-16.09S25.06,3.63,25.06,3.63Z"/><path class="cls-1" d="M28.56,3.46S14,16.59,20.08,29.07s14.77,15.81,11,25-11.33,11.85-3.95,19,10.49,6.62,6.76,14.33S14.62,106.8,18.47,116s14.33,7.56,9.89,16-15.31,11.29-11.54,19,12.52,4.64,8.28,13.13S14,170.76,17.64,180.35s13.87,14,11.45,10.32-8.09-6.73-7.45-10.89,7.45-12,8.17-14.7-1.83-11.19-5.36-14,1.67-9.11,4.86-13,9.06-5.34,4.55-10.75-9.62-5.92-10.72-11.13,9.08-14,12.81-24,5.3-13-.93-18.75-6.78-8.17-3.22-13.31,6.38-7.9,4-13-7.25-9.42-9.26-15.71-5.06-8-1.64-16.09S28.56,3.46,28.56,3.46Z"/><path class="cls-1" d="M33.42,3.22S18.81,16.35,24.94,28.83s14.77,15.81,11,25S24.6,65.7,32,72.85s10.49,6.62,6.76,14.33-19.26,19.38-15.41,28.59,14.34,7.56,9.9,16-15.32,11.29-11.55,19S34.2,155.46,30,164s-11.12,6.56-7.46,16.16S36.38,194.06,34,190.43s-8.09-6.73-7.45-10.9,7.45-12,8.17-14.69-1.83-11.19-5.36-14,1.67-9.11,4.86-13,9.06-5.34,4.55-10.75S29.11,121.12,28,115.91s9.08-14,12.81-24,5.3-13-.93-18.75S33.1,65,36.66,59.9s6.39-7.91,4-13-7.25-9.42-9.26-15.71-5.06-8-1.64-16.09S33.42,3.22,33.42,3.22Z"/><path class="cls-1" d="M38.7,3S24.1,16.09,30.23,28.57s14.77,15.81,11,25-11.33,11.84-4,19S47.75,79.21,44,86.92s-19.25,19.38-15.4,28.59,14.33,7.56,9.89,16-15.32,11.29-11.54,19,12.52,4.64,8.28,13.12-11.12,6.57-7.46,16.17,13.87,14,11.44,10.32-8.09-6.73-7.45-10.9,7.46-12,8.17-14.69-1.82-11.19-5.35-14,1.66-9.1,4.86-13,9.06-5.34,4.55-10.76-9.62-5.91-10.73-11.12,9.09-14,12.81-24,5.3-13-.93-18.75-6.78-8.18-3.22-13.31,6.39-7.91,4-13-7.25-9.42-9.26-15.71-5.06-8-1.65-16.09S38.7,3,38.7,3Z"/><path class="cls-1" d="M43.56,2.71S29,15.85,35.09,28.33s14.77,15.81,11,25-11.33,11.84-4,19S52.61,79,48.88,86.67s-19.25,19.39-15.4,28.59,14.33,7.56,9.89,16.06-15.32,11.29-11.54,19,12.52,4.64,8.28,13.12S29,170,32.65,179.6s13.87,14,11.45,10.33S36,183.2,36.65,179s7.45-12,8.17-14.69-1.83-11.19-5.36-14,1.66-9.1,4.86-13,9.06-5.34,4.55-10.76-9.62-5.91-10.72-11.12,9.08-14,12.81-24,5.3-13-.94-18.76-6.77-8.17-3.21-13.3,6.38-7.91,4-13.06-7.25-9.41-9.26-15.7-5.06-8-1.65-16.09S43.56,2.71,43.56,2.71Z"/><path class="cls-1" d="M49.91,2.4S35.3,15.53,41.43,28s14.77,15.81,11,25-11.33,11.85-4,19S59,78.65,55.23,86.36,36,105.74,39.82,115s14.33,7.56,9.9,16S34.4,142.29,38.17,150s12.52,4.64,8.28,13.13S35.33,169.69,39,179.29s13.87,14,11.45,10.32-8.09-6.73-7.45-10.9,7.45-12,8.17-14.69-1.83-11.19-5.36-14,1.67-9.11,4.86-13,9.06-5.34,4.55-10.75-9.62-5.92-10.72-11.13,9.08-14,12.81-24,5.3-13-.93-18.75-6.78-8.17-3.22-13.31,6.39-7.91,4-13-7.25-9.42-9.26-15.71-5.06-8-1.64-16.09S49.91,2.4,49.91,2.4Z"/><path class="cls-1" d="M54.15,2.18S39.55,15.32,45.68,27.8s14.77,15.81,11,25-11.33,11.85-4,19,10.49,6.62,6.76,14.33-19.25,19.38-15.4,28.59,14.33,7.56,9.89,16-15.32,11.29-11.54,19,12.52,4.64,8.28,13.12-11.12,6.57-7.46,16.17S57.11,193,54.68,189.4s-8.09-6.73-7.45-10.9,7.46-12,8.17-14.69-1.82-11.19-5.35-14,1.66-9.11,4.86-13S64,131.42,59.46,126s-9.62-5.92-10.73-11.13,9.09-14,12.81-23.95,5.3-13.05-.93-18.75S53.83,64,57.39,58.87s6.39-7.91,4-13-7.25-9.42-9.26-15.71-5.06-8-1.65-16.09S54.15,2.18,54.15,2.18Z"/><path class="cls-1" d="M60.25,1.88S45.64,15,51.77,27.5s14.77,15.81,11,25-11.33,11.84-3.95,19,10.49,6.62,6.76,14.32-19.26,19.39-15.41,28.6,14.34,7.56,9.9,16.05-15.32,11.29-11.55,19,12.52,4.64,8.28,13.12-11.12,6.57-7.46,16.17,13.88,13.95,11.45,10.32-8.09-6.73-7.45-10.9,7.46-12,8.17-14.69-1.83-11.19-5.36-14,1.67-9.1,4.86-13,9.06-5.34,4.55-10.76-9.61-5.91-10.72-11.12,9.08-14,12.81-24,5.3-13-.93-18.75-6.78-8.18-3.22-13.31,6.39-7.91,4-13.06-7.25-9.41-9.26-15.7-5.06-8-1.64-16.09S60.25,1.88,60.25,1.88Z"/><path class="cls-1" d="M67.83,2.26s-14.6,13.13-8.47,25.61,14.77,15.81,11,25-11.33,11.85-4,19,10.49,6.62,6.76,14.33S53.9,105.6,57.74,114.81s14.34,7.56,9.9,16.05-15.32,11.29-11.54,19S68.62,154.5,64.38,163s-11.12,6.57-7.46,16.16,13.87,13.95,11.44,10.32-8.09-6.73-7.45-10.89,7.46-12,8.17-14.7-1.82-11.19-5.36-14,1.67-9.11,4.87-13,9.06-5.34,4.55-10.75S63.52,120.16,62.41,115s9.09-14,12.81-24,5.3-13-.93-18.75-6.78-8.17-3.22-13.31,6.39-7.9,4-13-7.25-9.42-9.26-15.71-5.06-8-1.65-16.09S67.83,2.26,67.83,2.26Z"/><path class="cls-1" d="M72.25,2s-14.6,13.13-8.47,25.61,14.77,15.81,11,25-11.33,11.85-4,19S81.3,78.29,77.57,86s-19.25,19.38-15.4,28.59,14.33,7.56,9.89,16-15.32,11.29-11.54,19S73,154.28,68.8,162.77s-11.12,6.57-7.46,16.16,13.87,13.95,11.44,10.32-8.09-6.73-7.45-10.89,7.46-12,8.17-14.7-1.82-11.19-5.35-14,1.66-9.11,4.86-13,9.06-5.34,4.55-10.75-9.62-5.92-10.73-11.13,9.09-14,12.82-24,5.29-13-.94-18.75-6.78-8.17-3.22-13.31,6.39-7.9,4-13S72.26,36.25,70.25,30s-5.06-8-1.65-16.09S72.25,2,72.25,2Z"/><path class="cls-1" d="M74.79,1.91S60.18,15.05,66.31,27.52s14.78,15.82,11,25-11.34,11.84-4,19,10.49,6.62,6.76,14.32S60.85,105.26,64.7,114.46,79,122,74.6,130.52s-15.32,11.29-11.55,19,12.53,4.64,8.28,13.12-11.11,6.57-7.46,16.16,13.88,14,11.45,10.33-8.09-6.73-7.45-10.9,7.46-12,8.17-14.69-1.83-11.19-5.36-14,1.67-9.1,4.86-13,9.06-5.34,4.56-10.76-9.62-5.91-10.73-11.12,9.08-14,12.81-24,5.3-13-.93-18.76S74.47,63.73,78,58.6s6.39-7.91,4-13.06-7.25-9.41-9.25-15.7-5.06-8-1.65-16.09S74.79,1.91,74.79,1.91Z"/><path class="cls-1" d="M80.07,1.65S65.47,14.78,71.6,27.26s14.77,15.81,11,25-11.33,11.85-4,19,10.49,6.63,6.76,14.33S66.14,105,70,114.2s14.33,7.56,9.89,16-15.32,11.29-11.54,19,12.52,4.65,8.28,13.13S65.5,169,69.16,178.54s13.87,14,11.45,10.33-8.09-6.73-7.45-10.9,7.45-12,8.17-14.7-1.83-11.19-5.36-14,1.66-9.11,4.86-13,9.06-5.33,4.55-10.75-9.62-5.91-10.72-11.12,9.08-14,12.81-23.95,5.3-13.05-.94-18.76-6.77-8.17-3.21-13.31,6.38-7.9,4-13-7.25-9.41-9.26-15.71-5.06-8-1.65-16.08S80.07,1.65,80.07,1.65Z"/><path class="cls-1" d="M83.28,1.49S68.68,14.62,74.81,27.1s14.77,15.81,11,25-11.33,11.84-4,19,10.49,6.63,6.76,14.33S69.35,104.83,73.19,114s14.34,7.56,9.9,16.06-15.32,11.29-11.54,19,12.52,4.65,8.28,13.13-11.12,6.57-7.46,16.16,13.87,14,11.44,10.33-8.09-6.73-7.45-10.9,7.46-12,8.17-14.7-1.82-11.19-5.35-14,1.66-9.11,4.86-13,9.06-5.33,4.55-10.75S79,119.4,77.86,114.19s9.09-14,12.81-24,5.3-13-.93-18.76S83,63.31,86.52,58.17s6.39-7.9,4-13.05-7.25-9.41-9.26-15.71-5.06-8-1.65-16.08S83.28,1.49,83.28,1.49Z"/><path class="cls-1" d="M85.89,1.36S71.29,14.49,77.42,27s14.77,15.81,11,25-11.33,11.84-4,19,10.49,6.63,6.76,14.33S72,104.7,75.81,113.91,90.14,121.47,85.7,130s-15.31,11.29-11.54,19,12.52,4.65,8.28,13.13S71.32,168.66,75,178.25s13.87,13.95,11.45,10.33-8.09-6.73-7.45-10.9,7.45-12,8.17-14.7-1.83-11.19-5.36-14,1.66-9.11,4.86-13,9.06-5.33,4.55-10.75-9.62-5.91-10.72-11.12,9.08-14,12.81-24,5.3-13-.94-18.76S85.58,63.18,89.14,58s6.38-7.9,4-13-7.25-9.41-9.26-15.71-5.06-8-1.65-16.08S85.89,1.36,85.89,1.36Z"/><path class="cls-1" d="M89.75,1.17S75.15,14.3,81.28,26.78s14.77,15.81,11,25-11.33,11.85-4,19,10.49,6.62,6.76,14.33-19.25,19.38-15.4,28.59,14.33,7.56,9.89,16.05-15.32,11.29-11.54,19,12.52,4.64,8.28,13.13-11.12,6.57-7.46,16.16S92.71,192,90.29,188.38s-8.09-6.73-7.45-10.89,7.45-12,8.17-14.7-1.83-11.19-5.36-14,1.66-9.11,4.86-13,9.06-5.34,4.55-10.75-9.62-5.92-10.72-11.13,9.08-14,12.81-24,5.3-13-.94-18.75S89.44,63,93,57.85,99.38,50,97,44.8s-7.25-9.42-9.26-15.71-5.06-8-1.65-16.09S89.75,1.17,89.75,1.17Z"/><path class="cls-1" d="M96.11,1.83S81.51,15,87.64,27.44s14.77,15.81,11,25-11.33,11.84-4,19,10.49,6.63,6.76,14.33S82.18,105.17,86,114.38s14.34,7.56,9.9,16.06-15.32,11.28-11.54,19,12.52,4.65,8.28,13.13-11.12,6.57-7.46,16.16,13.87,13.95,11.44,10.33-8.09-6.73-7.45-10.9,7.46-12,8.17-14.7-1.82-11.19-5.36-14,1.67-9.11,4.87-13,9.06-5.33,4.55-10.75-9.62-5.91-10.73-11.12,9.09-14,12.81-24,5.3-13-.93-18.76-6.78-8.17-3.22-13.31,6.39-7.9,4-13-7.25-9.41-9.26-15.71-5.06-8-1.65-16.08S96.11,1.83,96.11,1.83Z"/><path class="cls-1" d="M101,1.59S86.35,14.72,92.48,27.2s14.77,15.81,11,25-11.33,11.85-4,19,10.49,6.62,6.76,14.33S87,104.93,90.86,114.14s14.34,7.56,9.9,16-15.32,11.29-11.54,19,12.52,4.64,8.28,13.13S86.38,168.89,90,178.48s13.87,14,11.44,10.32-8.09-6.73-7.45-10.89,7.46-12,8.17-14.7-1.82-11.19-5.35-14,1.66-9.11,4.86-13,9.06-5.33,4.55-10.75-9.62-5.92-10.73-11.12,9.09-14,12.81-24,5.3-13-.93-18.76-6.78-8.17-3.22-13.31,6.39-7.9,4-13.05S101,35.8,99,29.51s-5.06-8-1.65-16.08S101,1.59,101,1.59Z"/><path class="cls-1" d="M104.39,1.42S89.79,14.55,95.92,27s14.77,15.81,11,25-11.33,11.85-4,19,10.49,6.62,6.76,14.33S90.46,104.76,94.31,114s14.33,7.56,9.89,16.05-15.32,11.29-11.54,19,12.52,4.64,8.28,13.13-11.12,6.57-7.46,16.16,13.87,13.95,11.45,10.32-8.09-6.73-7.45-10.89,7.45-12,8.17-14.7-1.83-11.19-5.36-14,1.66-9.11,4.86-13,9.06-5.34,4.55-10.75-9.62-5.92-10.72-11.13,9.08-14,12.81-24,5.3-13-.94-18.75-6.77-8.17-3.22-13.31,6.39-7.9,4-13.05-7.25-9.42-9.26-15.71-5.06-8-1.65-16.09S104.39,1.42,104.39,1.42Z"/><path class="cls-1" d="M109.75,1.15s-14.6,13.13-8.47,25.61,14.77,15.81,11,25-11.33,11.84-4,19,10.49,6.63,6.76,14.33S95.82,104.5,99.67,113.7s14.33,7.56,9.89,16.06-15.32,11.29-11.54,19,12.52,4.64,8.28,13.12S95.18,168.45,98.84,178s13.87,14,11.45,10.33-8.09-6.73-7.45-10.9,7.45-12,8.17-14.7-1.83-11.19-5.36-14,1.66-9.1,4.86-13,9.06-5.34,4.55-10.76-9.62-5.91-10.72-11.12,9.08-14,12.81-23.95,5.3-13.05-.94-18.76S109.44,63,113,57.84s6.39-7.91,4-13.06-7.25-9.41-9.26-15.71-5.06-8-1.65-16.08S109.75,1.15,109.75,1.15Z"/><path class="cls-1" d="M118.08,1.71s-14.6,13.14-8.47,25.62,14.77,15.81,11,25-11.33,11.84-4,19S127.13,78,123.4,85.68s-19.25,19.38-15.4,28.59,14.33,7.56,9.89,16-15.32,11.29-11.54,19,12.52,4.64,8.28,13.12-11.12,6.57-7.46,16.17,13.87,13.95,11.45,10.32-8.09-6.73-7.45-10.9,7.45-12,8.17-14.69-1.83-11.19-5.36-14,1.66-9.11,4.86-13,9.06-5.34,4.55-10.76-9.62-5.91-10.72-11.12,9.08-14,12.81-24,5.3-13-.94-18.75-6.77-8.18-3.21-13.31,6.38-7.91,4-13-7.25-9.42-9.26-15.71-5.06-8-1.65-16.09S118.08,1.71,118.08,1.71Z"/><path class="cls-1" d="M120.69,1.58s-14.61,13.14-8.48,25.62,14.78,15.81,11,25-11.34,11.84-4,19,10.49,6.62,6.76,14.33-19.26,19.38-15.41,28.59,14.34,7.56,9.9,16-15.32,11.29-11.55,19,12.52,4.64,8.28,13.12-11.11,6.57-7.46,16.17,13.88,14,11.45,10.32-8.09-6.73-7.45-10.9,7.46-12,8.17-14.69-1.83-11.19-5.36-14,1.67-9.11,4.86-13,9.06-5.34,4.56-10.76-9.62-5.91-10.73-11.12,9.08-14,12.81-24,5.3-13-.93-18.75-6.78-8.18-3.22-13.31,6.39-7.91,4-13.05-7.25-9.42-9.25-15.71-5.07-8-1.65-16.09S120.69,1.58,120.69,1.58Z"/><path class="cls-1" d="M124.39,1.4S109.79,14.53,115.92,27s14.77,15.81,11,25-11.33,11.84-4,19,10.49,6.63,6.76,14.33S110.46,104.74,114.3,114s14.34,7.56,9.9,16.06-15.32,11.29-11.54,19,12.52,4.65,8.28,13.13-11.12,6.57-7.46,16.16,13.87,14,11.44,10.33-8.09-6.73-7.45-10.9,7.46-12,8.17-14.7-1.82-11.19-5.36-14,1.67-9.11,4.87-13,9.06-5.34,4.55-10.76-9.62-5.91-10.73-11.12,9.09-14,12.81-23.95,5.3-13.05-.93-18.76-6.78-8.17-3.22-13.3,6.39-7.91,4-13.06-7.25-9.41-9.26-15.71-5.06-8-1.65-16.08S124.39,1.4,124.39,1.4Z"/><path class="cls-1" d="M128.28,1.21s-14.6,13.13-8.47,25.61,14.77,15.81,11,25-11.33,11.85-4,19,10.49,6.62,6.76,14.33-19.25,19.38-15.4,28.59,14.33,7.56,9.89,16-15.32,11.29-11.54,19,12.52,4.64,8.28,13.13-11.12,6.57-7.46,16.16,13.87,14,11.45,10.32-8.09-6.73-7.45-10.89,7.45-12,8.17-14.7-1.83-11.19-5.36-14,1.66-9.11,4.86-13,9.06-5.34,4.55-10.75-9.62-5.92-10.72-11.13,9.08-14,12.81-24,5.3-13-.94-18.75S128,63,131.53,57.89s6.38-7.9,4-13-7.25-9.42-9.26-15.71-5.06-8-1.65-16.09S128.28,1.21,128.28,1.21Z"/><path class="cls-1" d="M131.77,2s-14.6,13.13-8.47,25.61,14.77,15.81,11,25-11.33,11.85-4,19,10.49,6.62,6.76,14.33-19.25,19.38-15.4,28.59,14.33,7.56,9.89,16-15.32,11.29-11.54,19,12.52,4.64,8.28,13.13-11.12,6.56-7.46,16.16,13.87,14,11.45,10.32-8.09-6.73-7.45-10.9,7.45-12,8.17-14.69-1.83-11.19-5.36-14,1.66-9.11,4.86-13,9.06-5.34,4.55-10.75-9.62-5.92-10.72-11.13,9.08-14,12.81-24,5.3-13-.94-18.75-6.77-8.17-3.22-13.31,6.39-7.91,4-13.05-7.25-9.42-9.26-15.71-5.06-8-1.65-16.09S131.77,2,131.77,2Z"/><path class="cls-1" d="M138.08,1.67s-14.6,13.14-8.47,25.62,14.77,15.81,11,25-11.33,11.84-4,19,10.49,6.62,6.76,14.32S124.15,105,128,114.23s14.34,7.56,9.9,16-15.32,11.29-11.54,19,12.52,4.64,8.28,13.12-11.12,6.57-7.47,16.17,13.88,14,11.45,10.32-8.09-6.73-7.45-10.9,7.46-12,8.17-14.69-1.82-11.19-5.36-14,1.67-9.1,4.87-13,9.06-5.34,4.55-10.76-9.62-5.91-10.73-11.12,9.09-14,12.81-24,5.3-13-.93-18.75-6.78-8.18-3.22-13.31,6.39-7.91,4-13-7.25-9.42-9.26-15.71-5.06-8-1.65-16.09S138.08,1.67,138.08,1.67Z"/><path class="cls-1" d="M145.42,1.31s-14.61,13.13-8.48,25.61,14.77,15.81,11,25-11.33,11.85-4,19,10.49,6.62,6.76,14.33-19.26,19.38-15.41,28.59,14.33,7.56,9.9,16-15.32,11.29-11.55,19S146.2,153.55,142,162s-11.12,6.57-7.46,16.16,13.87,14,11.45,10.32-8.09-6.73-7.45-10.89,7.45-12,8.17-14.7-1.83-11.19-5.36-14,1.67-9.11,4.86-13,9.06-5.34,4.55-10.75S141.1,119.21,140,114s9.08-14,12.81-24,5.3-13-.93-18.76S145.1,63.13,148.66,58s6.38-7.9,4-13.05-7.25-9.42-9.26-15.71-5.06-8-1.64-16.08S145.42,1.31,145.42,1.31Z"/><path class="cls-1" d="M153.87.89S139.27,14,145.4,26.5s14.77,15.81,11,25-11.33,11.85-4,19,10.49,6.62,6.76,14.33-19.25,19.38-15.41,28.59,14.34,7.56,9.9,16.05-15.32,11.29-11.54,19,12.52,4.64,8.28,13.13-11.12,6.57-7.47,16.16,13.88,13.95,11.45,10.32-8.09-6.73-7.45-10.89,7.46-12,8.17-14.7-1.82-11.19-5.36-14,1.67-9.11,4.87-13,9.06-5.34,4.55-10.75-9.62-5.92-10.73-11.13,9.09-14,12.81-23.94,5.3-13-.93-18.76-6.78-8.17-3.22-13.31,6.39-7.9,4-13-7.25-9.42-9.26-15.71-5.06-8-1.65-16.09S153.87.89,153.87.89Z"/><path class="cls-1" d="M162.5.46S147.89,13.59,154,26.07s14.78,15.81,11,25-11.34,11.84-4,19,10.49,6.63,6.76,14.33S148.56,103.8,152.41,113s14.34,7.56,9.9,16-15.32,11.29-11.55,19,12.53,4.65,8.29,13.13-11.12,6.57-7.47,16.16,13.88,14,11.45,10.33-8.09-6.73-7.45-10.9,7.46-12,8.17-14.7-1.83-11.19-5.36-14,1.67-9.11,4.87-13,9.05-5.33,4.55-10.75-9.62-5.91-10.73-11.12,9.08-14,12.81-24,5.3-13-.93-18.76-6.78-8.17-3.22-13.31,6.39-7.9,4-13-7.25-9.41-9.25-15.71-5.06-8-1.65-16.08S162.5.46,162.5.46Z"/><path class="cls-1" d="M160,.58s-14.6,13.14-8.47,25.62,14.77,15.81,11,25-11.33,11.84-4,19,10.49,6.62,6.76,14.33-19.25,19.38-15.4,28.59,14.33,7.56,9.89,16-15.32,11.29-11.54,19,12.52,4.64,8.28,13.12-11.12,6.57-7.46,16.17,13.87,14,11.45,10.32-8.1-6.73-7.45-10.9,7.45-12,8.17-14.69-1.83-11.19-5.36-14,1.66-9.11,4.86-13,9.06-5.34,4.55-10.75-9.62-5.92-10.73-11.13,9.09-14,12.82-24,5.29-13-.94-18.75-6.78-8.18-3.22-13.31,6.39-7.91,4-13.05S160,34.8,158,28.51s-5.06-8-1.65-16.09S160,.58,160,.58Z"/><path class="cls-1" d="M148.86,1.14s-14.61,13.13-8.48,25.61,14.77,15.81,11,25-11.33,11.85-4,19,10.49,6.62,6.76,14.33-19.26,19.38-15.41,28.59,14.34,7.56,9.9,16.05-15.32,11.29-11.55,19,12.52,4.64,8.28,13.13-11.12,6.57-7.46,16.16,13.88,13.95,11.45,10.32-8.09-6.73-7.45-10.89,7.45-12,8.17-14.7-1.83-11.19-5.36-14,1.67-9.11,4.86-13,9.06-5.34,4.55-10.75-9.61-5.92-10.72-11.13,9.08-14,12.81-24,5.3-13-.93-18.75S148.54,63,152.1,57.82s6.39-7.9,4-13-7.25-9.42-9.26-15.71-5.06-8-1.64-16.09S148.86,1.14,148.86,1.14Z"/><path class="cls-1" d="M64.81,3.38S50.2,16.52,56.33,29s14.77,15.81,11,25S56,65.87,63.37,73s10.49,6.62,6.76,14.33-19.26,19.38-15.41,28.59,14.34,7.56,9.9,16.05S49.3,143.28,53.07,151s12.52,4.64,8.28,13.12-11.12,6.57-7.46,16.17,13.88,13.95,11.45,10.32-8.09-6.73-7.45-10.9,7.45-12,8.17-14.69-1.83-11.19-5.36-14,1.67-9.11,4.86-13,9.06-5.34,4.55-10.75-9.61-5.92-10.72-11.13,9.08-14,12.81-24,5.3-13-.93-18.75-6.78-8.18-3.22-13.31,6.39-7.91,4-13S64.81,37.6,62.8,31.31s-5.06-8-1.64-16.09S64.81,3.38,64.81,3.38Z"/><path class="cls-1" d="M114.59.91S100,14,106.12,26.52s14.77,15.81,11,25-11.33,11.84-4,19,10.49,6.63,6.76,14.33-19.25,19.38-15.4,28.59,14.33,7.56,9.89,16.06-15.32,11.29-11.54,19,12.52,4.65,8.28,13.13-11.12,6.57-7.46,16.16,13.87,13.95,11.45,10.33-8.09-6.73-7.45-10.9,7.45-12,8.17-14.7-1.83-11.19-5.36-14,1.66-9.11,4.86-13,9.06-5.34,4.55-10.76-9.62-5.91-10.72-11.12,9.08-14,12.81-24,5.3-13-.94-18.76-6.77-8.17-3.22-13.3,6.39-7.91,4-13.06-7.25-9.41-9.26-15.71-5.06-8-1.65-16.08S114.59.91,114.59.91Z"/><path class="cls-2" d="M173.53,61.36H6.09A19.13,19.13,0,0,1,0,66.55V194c0,3.61,6.79,11.66,16.58,11.66H166.8c5.74,0,9.29-3.19,9.29-7V66.6A14.46,14.46,0,0,1,173.53,61.36Z"/><text class="cls-3" transform="translate(36.11 189.07)">NOODLES</text></g></g></svg>