<svg xmlns="http://www.w3.org/2000/svg" viewBox="0 0 152.11 161.18"><defs><style>.cls-1{fill:#7c2948;}.cls-2{fill:#aa2948;}.cls-3{fill:none;stroke:#7c2948;stroke-miterlimit:10;}</style></defs><title>Asset 37</title><g id="Layer_2" data-name="Layer 2"><g id="onion"><path class="cls-1" d="M90,156.27a6.57,6.57,0,0,0-2.14-3.08s0,0,0-.05c-.59-.71-2.49-.1-4.26,1.35s-2.73,3.21-2.15,3.92,2,.23,3.58-.84c-.15,1.92.29,3.47,1.09,3.6.61.09,1.27-.68,1.75-1.88.72,1.07,1.52,1.67,2.1,1.45C90.81,160.4,90.83,158.4,90,156.27Z"/><path class="cls-2" d="M115.85,63.71c-4.92-22.09,2.77-53.71,3.69-59.64L110.07,2.6l-4.86-.75S102.38,42.9,88.13,63,43.36,88.17,40.06,108.62c-2.35,14.55,3.33,24.92,12.44,32.22,11,8.8,27,13.13,40,14.88,23.79,3.18,53.67-2.84,58.38-20.8C159.51,101.86,121.21,87.82,115.85,63.71Z"/><path class="cls-3" d="M88.9,90.79s-17.45,16.26-13.48,44.46"/><path class="cls-3" d="M95.41,138.81s15.3-18.31,7.86-45.79"/><path class="cls-3" d="M110.92,142.67s15.3-18.3,7.86-45.78"/><path class="cls-1" d="M52.88,115.67c4.79-11.27,28.34-31,41.45-50.24,13.56-18.34,12-41.84,15.74-62.83l-4.86-.75S102.38,42.9,88.13,63,43.36,88.17,40.06,108.62c-2.35,14.55,3.33,24.92,12.44,32.22C51.24,134.42,50,122.53,52.88,115.67Z"/><path class="cls-3" d="M73.06,88.33S55.6,104.59,59.58,132.79"/><path class="cls-1" d="M60.89,154.58a6.5,6.5,0,0,0-2.87-2.4l0,0c-.75-.53-2.42.56-3.75,2.43s-1.78,3.82-1,4.35,2-.31,3.23-1.76c.36,1.9,1.2,3.27,2,3.18.62-.07,1-1,1.19-2.27,1,.84,1.91,1.2,2.41.84C62.77,158.36,62.26,156.43,60.89,154.58Z"/><path class="cls-2" d="M61.34,58.49C50.75,38.48,49.8,6,49.12,0L39.6,1.09l-4.88.55S42.84,42,34.41,65.09-2.1,101.24.13,121.84C1.71,136.5,9.93,145,20.64,149.63c12.92,5.58,29.47,5.53,42.47,3.77,23.79-3.22,51-16.93,50.8-35.49C113.54,83.74,72.89,80.32,61.34,58.49Z"/><path class="cls-3" d="M42.51,91.73S30,112,41.27,138.17"/><path class="cls-3" d="M61.49,136.32S71.4,114.62,57,90.08"/><path class="cls-3" d="M77.46,135.94s9.92-21.69-4.52-46.23"/><path class="cls-1" d="M14.35,125.25C16,113.11,33.48,87.84,41,65.84c8.22-21.28.5-43.53-1.44-64.75l-4.88.55S42.84,42,34.41,65.09-2.1,101.24.13,121.84C1.71,136.5,9.93,145,20.64,149.63,17.73,143.77,13.38,132.63,14.35,125.25Z"/><path class="cls-3" d="M26.58,93.55S14.05,113.85,25.34,140"/></g></g></svg>