<svg xmlns="http://www.w3.org/2000/svg" viewBox="0 0 482.5 448.11"><defs><style>.cls-1{fill:#fff;}.cls-2{fill:#b7b7b7;}.cls-3{fill:#ffce78;}.cls-4{fill:#ffe3ab;}.cls-5{fill:#ffdaa9;}.cls-6{fill:#ffc67b;}.cls-7{fill:#ffe7c7;}.cls-8{fill:#ffd592;}.cls-9{fill:#cecece;}</style></defs><title>Asset 1</title><g id="Layer_2" data-name="Layer 2"><g id="Layer_2-2" data-name="Layer 2"><rect class="cls-1" x="100" y="23.11" width="280" height="56" rx="12" ry="12"/><rect class="cls-1" x="101.5" y="110.58" width="280" height="56" rx="12" ry="12"/><rect class="cls-1" x="43" y="165.16" width="383.7" height="211.98" rx="12" ry="12"/><rect class="cls-2" x="82.5" y="193.16" width="308" height="154.5"/><path class="cls-3" d="M482.5,94V49.5A49.5,49.5,0,0,0,433,0H50A49.5,49.5,0,0,0,.5,49.5V94Zm-136-66.5A21.5,21.5,0,1,1,325,49,21.51,21.51,0,0,1,346.5,27.5Zm-71.5,0A21.5,21.5,0,1,1,253.5,49,21.51,21.51,0,0,1,275,27.5Zm-70.5,0A21.5,21.5,0,1,1,183,49,21.51,21.51,0,0,1,204.5,27.5Zm-67,0A21.5,21.5,0,1,1,116,49,21.51,21.51,0,0,1,137.5,27.5Z"/><path class="cls-4" d="M0,104V396.11H482V104Zm103,34.58a11.08,11.08,0,0,1,11.08-11.08H368.92A11.08,11.08,0,0,1,380,138.58h0a11.08,11.08,0,0,1-11.08,11.08H114.08A11.08,11.08,0,0,1,103,138.58ZM398.15,367.66H74.85A12.35,12.35,0,0,1,62.5,355.31V185.51a12.35,12.35,0,0,1,12.35-12.35h323.3a12.35,12.35,0,0,1,12.35,12.35v169.8A12.35,12.35,0,0,1,398.15,367.66Z"/><path class="cls-3" d="M.92,408.11a49.52,49.52,0,0,0,48.58,40h383a49.52,49.52,0,0,0,48.58-40Z"/><path class="cls-5" d="M41.68,408.43c-.1-.1-.19-.21-.28-.32H0c8.92,36,44.08,40,44.08,40H74.82C64.06,434.64,53.15,421.3,41.68,408.43Z"/><path class="cls-6" d="M439.4,408.43c.1-.1.19-.21.28-.32h41.4c-8.92,36-44.08,40-44.08,40H406.26C417,434.64,427.93,421.3,439.4,408.43Z"/><rect class="cls-7" y="104" width="20.67" height="292.11"/><path class="cls-5" d="M65.7,0H48.08C4.09,4.89,0,42.47,0,42.47V94H51.25C56,62.65,59.94,31.17,65.7,0Z"/><path class="cls-6" d="M416.8,0h17.62c44,4.89,48.08,42.47,48.08,42.47V94H431.25C426.51,62.65,422.56,31.17,416.8,0Z"/><rect class="cls-8" x="456.67" y="104" width="24.41" height="292.11"/><rect class="cls-9" x="94" y="207.11" width="6" height="103.67" rx="3" ry="3"/><rect class="cls-9" x="94" y="317.61" width="6" height="9.79" rx="3" ry="3"/></g></g></svg>