<svg xmlns="http://www.w3.org/2000/svg" viewBox="0 0 126.94 222.77"><defs><style>.cls-1{fill:#715144;}.cls-2{fill:#a58a84;}.cls-3{fill:#77584f;}.cls-4{fill:#896b60;}</style></defs><title>pan</title><g id="Layer_2" data-name="Layer 2"><g id="pan"><g id="pan-2" data-name="pan"><rect class="cls-1" x="56.64" y="84.9" width="13.66" height="10.94"/><circle class="cls-2" cx="63.47" cy="159.3" r="63.47"/><path class="cls-3" d="M107.41,194.86c0,1.61-.06,3.2-.16,4.78a59.53,59.53,0,1,0-88.64-79.46,75.76,75.76,0,0,1,88.8,74.68Z"/><path class="cls-4" d="M63.47,218.87a59.41,59.41,0,0,0,43.78-19.23c.1-1.58.16-3.17.16-4.78a75.76,75.76,0,0,0-88.8-74.68,59.52,59.52,0,0,0,44.86,98.69Z"/><circle class="cls-1" cx="63.47" cy="159.3" r="43.95"/><path class="cls-2" d="M63.47,0C59.4,0,56.1,37.87,56.1,84.59h0c0,1.08,3.3,2,7.37,2s7.37-.87,7.37-2h0C70.84,37.87,67.54,0,63.47,0Zm1.44,9.9a5,5,0,0,1-1.44.1A5,5,0,0,1,62,9.9h0c0-2.29.65-4.15,1.45-4.15s1.44,1.86,1.44,4.15Z"/></g></g></g></svg>