<svg xmlns="http://www.w3.org/2000/svg" viewBox="0 0 173.34 172.85"><defs><style>.cls-1{fill:#969120;}.cls-2{fill:#bebb26;}.cls-3{fill:#dcd941;}.cls-4{fill:#ccc829;}.cls-5{fill:#ece945;}</style></defs><title>Asset 40</title><g id="Layer_2" data-name="Layer 2"><g id="pickles"><ellipse class="cls-1" cx="124.46" cy="57.45" rx="48.1" ry="53.61" transform="translate(-12.36 49.07) rotate(-21.27)"/><ellipse class="cls-2" cx="119.66" cy="59.32" rx="48.1" ry="53.61" transform="translate(-13.37 47.45) rotate(-21.27)"/><path class="cls-3" d="M112.46,59.92c1.84-9.16-7.11-21.88-19.78-20.64A31.23,31.23,0,0,0,90,44.72a37.81,37.81,0,0,0,.53,27C101.34,72.18,110.89,69.38,112.46,59.92Z"/><path class="cls-4" d="M120,74.89c9.33-5.33,16.77.74,23.65,7.37a31.57,31.57,0,0,0,2.29-4.75,36.09,36.09,0,0,0,2-16.29c-6.83,4.19-16.28,1-20.49-3.17-6.57-4.93-7.36-21.39.13-27.86a29,29,0,0,0-13.19-3.3,24.85,24.85,0,0,0-9.08,1.7A25.89,25.89,0,0,0,92.68,39.28C105.35,38,114.3,50.76,112.46,59.92c-1.57,9.46-11.12,12.26-21.92,11.8a.14.14,0,0,0,0,.06c4.54,11.66,13.84,20.13,24.3,22.71C113.33,86.41,112.65,77.81,120,74.89Z"/><path class="cls-3" d="M120,74.89c-7.3,2.92-6.62,11.52-5.09,19.6a27.84,27.84,0,0,0,6.67.85,25.1,25.1,0,0,0,9.08-1.7,26.05,26.05,0,0,0,13-11.38C136.72,75.63,129.28,69.56,120,74.89Z"/><path class="cls-3" d="M127.56,30.19c-7.49,6.47-6.7,22.93-.13,27.86,4.21,4.2,13.66,7.36,20.49,3.17a40.44,40.44,0,0,0-2.58-10.77A38.11,38.11,0,0,0,127.56,30.19Z"/><ellipse class="cls-5" cx="130.01" cy="42.46" rx="6.94" ry="2.03" transform="matrix(0.79, -0.61, 0.61, 0.79, 1.02, 87.91)"/><ellipse class="cls-5" cx="132.95" cy="49.01" rx="6.94" ry="2.03" transform="translate(-2.36 91.05) rotate(-37.5)"/><ellipse class="cls-5" cx="137.75" cy="53.53" rx="6.94" ry="2.03" transform="translate(-4.12 94.91) rotate(-37.5)"/><ellipse class="cls-5" cx="133.37" cy="82.37" rx="2.03" ry="6.94" transform="translate(-21.92 60.95) rotate(-23.85)"/><ellipse class="cls-5" cx="125.58" cy="83.46" rx="2.03" ry="6.94" transform="translate(-23.02 57.9) rotate(-23.85)"/><ellipse class="cls-5" cx="120.44" cy="87.05" rx="2.03" ry="6.94" transform="translate(-24.91 56.12) rotate(-23.85)"/><ellipse class="cls-5" cx="96.87" cy="65.29" rx="6.94" ry="2.03" transform="translate(-4.79 7.75) rotate(-4.47)"/><ellipse class="cls-5" cx="100.24" cy="56.56" rx="6.94" ry="2.03" transform="translate(-4.1 7.98) rotate(-4.47)"/><ellipse class="cls-5" cx="97.46" cy="49.01" rx="6.94" ry="2.03" transform="translate(-3.52 7.74) rotate(-4.47)"/><ellipse class="cls-1" cx="97.48" cy="122.16" rx="53.61" ry="48.1" transform="translate(-56.91 97.89) rotate(-42.48)"/><ellipse class="cls-2" cx="94" cy="118.36" rx="53.61" ry="48.1" transform="translate(-55.26 94.55) rotate(-42.48)"/><path class="cls-3" d="M90.84,111.87c9.2-1.61,17.82-14.55,12.08-25.92a30.56,30.56,0,0,0-6-.51,37.81,37.81,0,0,0-25,10.25C75.38,105.93,81.45,113.82,90.84,111.87Z"/><path class="cls-4" d="M79.59,124.26C87.94,131,85,140.16,81.27,149a31.39,31.39,0,0,0,5.26.41,36.2,36.2,0,0,0,15.92-4c-6.37-4.86-6.85-14.81-4.45-20.25,2.21-7.91,17.27-14.61,26-10a29.05,29.05,0,0,0-1.7-13.49,25,25,0,0,0-4.87-7.86A26,26,0,0,0,102.92,86c5.74,11.37-2.88,24.31-12.08,25.92-9.39,1.95-15.46-5.94-18.93-16.18l0,0c-9.23,8.45-13.76,20.19-12.39,30.88C66.45,122.25,74.23,118.52,79.59,124.26Z"/><path class="cls-3" d="M79.59,124.26c-5.36-5.74-13.14-2-20.12,2.35a28.19,28.19,0,0,0,1.63,6.52A24.82,24.82,0,0,0,66,141a26,26,0,0,0,15.3,8C85,140.16,87.94,131,79.59,124.26Z"/><path class="cls-3" d="M124,115.19c-8.75-4.65-23.81,2-26,10-2.4,5.44-1.92,15.39,4.45,20.25a40.74,40.74,0,0,0,9.11-6.31A38.06,38.06,0,0,0,124,115.19Z"/><ellipse class="cls-5" cx="113.46" cy="121.91" rx="2.03" ry="6.94" transform="translate(-49.64 155.53) rotate(-58.7)"/><ellipse class="cls-5" cx="108.42" cy="127.02" rx="2.03" ry="6.94" transform="translate(-56.43 153.68) rotate(-58.7)"/><ellipse class="cls-5" cx="105.94" cy="133.13" rx="2.03" ry="6.94" transform="translate(-62.85 154.5) rotate(-58.7)"/><ellipse class="cls-5" cx="77.47" cy="139.48" rx="6.94" ry="2.03" transform="translate(-75.98 95.77) rotate(-45.05)"/><ellipse class="cls-5" cx="73.63" cy="132.62" rx="6.94" ry="2.03" transform="translate(-72.24 91.04) rotate(-45.05)"/><ellipse class="cls-5" cx="68.43" cy="129.12" rx="6.94" ry="2.03" transform="translate(-71.29 86.33) rotate(-45.05)"/><ellipse class="cls-5" cx="80.2" cy="99.27" rx="2.03" ry="6.94" transform="translate(-35.09 44.55) rotate(-25.68)"/><ellipse class="cls-5" cx="89.55" cy="99.25" rx="2.03" ry="6.94" transform="translate(-34.16 48.6) rotate(-25.68)"/><ellipse class="cls-5" cx="95.58" cy="93.93" rx="2.03" ry="6.94" transform="translate(-31.26 50.69) rotate(-25.68)"/><ellipse class="cls-1" cx="49.66" cy="54.87" rx="48.1" ry="53.61" transform="translate(-21.29 33.83) rotate(-31.34)"/><ellipse class="cls-2" cx="54.06" cy="52.19" rx="48.1" ry="53.61" transform="translate(-19.26 35.73) rotate(-31.34)"/><path class="cls-3" d="M61,50.34c-.2,9.34,10.83,20.3,23.09,16.86a31.07,31.07,0,0,0,1.68-5.82,37.84,37.84,0,0,0-5.24-26.49C69.85,36.32,60.94,40.75,61,50.34Z"/><path class="cls-4" d="M51.05,36.91c-8.25,6.88-16.63,2.2-24.57-3.13a30.77,30.77,0,0,0-1.42,5.09,36,36,0,0,0,.84,16.38c6-5.31,15.86-3.86,20.73-.45,7.33,3.7,11,19.77,4.74,27.46a29.11,29.11,0,0,0,13.57.93,24.8,24.8,0,0,0,8.65-3.26A25.9,25.9,0,0,0,84.13,67.2C71.87,70.64,60.84,59.68,61,50.34c-.1-9.59,8.81-14,19.53-15.45l0,0C74,24.15,63.39,17.43,52.64,16.72,55.56,24.41,57.73,32.76,51.05,36.91Z"/><path class="cls-3" d="M51.05,36.91c6.68-4.15,4.51-12.5,1.59-20.19a27.89,27.89,0,0,0-6.71.33,24.94,24.94,0,0,0-8.65,3.27,25.92,25.92,0,0,0-10.8,13.46C34.42,39.11,42.8,43.79,51.05,36.91Z"/><path class="cls-3" d="M51.37,82.26C57.62,74.57,54,58.5,46.63,54.8c-4.87-3.41-14.73-4.86-20.73.45a40.47,40.47,0,0,0,4.43,10.16A38.16,38.16,0,0,0,51.37,82.26Z"/><ellipse class="cls-5" cx="46.82" cy="70.6" rx="6.94" ry="2.03" transform="translate(-36.88 57.52) rotate(-47.56)"/><ellipse class="cls-5" cx="42.78" cy="64.66" rx="6.94" ry="2.03" transform="translate(-33.81 52.61) rotate(-47.56)"/><ellipse class="cls-5" cx="37.26" cy="61.05" rx="6.94" ry="2.03" transform="translate(-32.94 47.36) rotate(-47.56)"/><ellipse class="cls-5" cx="36.53" cy="31.89" rx="2.03" ry="6.94" transform="translate(-11.58 25.81) rotate(-33.91)"/><ellipse class="cls-5" cx="44.01" cy="29.45" rx="2.03" ry="6.94" transform="translate(-8.95 29.56) rotate(-33.91)"/><ellipse class="cls-5" cx="48.45" cy="25.02" rx="2.03" ry="6.94" transform="translate(-5.72 31.29) rotate(-33.91)"/><ellipse class="cls-5" cx="75.45" cy="42.33" rx="6.94" ry="2.03" transform="translate(-8.21 20.29) rotate(-14.54)"/><ellipse class="cls-5" cx="73.67" cy="51.52" rx="6.94" ry="2.03" transform="translate(-10.57 20.14) rotate(-14.54)"/><ellipse class="cls-5" cx="77.73" cy="58.46" rx="6.94" ry="2.03" transform="translate(-12.19 21.38) rotate(-14.54)"/></g></g></svg>