<svg xmlns="http://www.w3.org/2000/svg" viewBox="0 0 332.79 217.89"><defs><style>.cls-1{fill:#ffd7c5;}.cls-2{fill:#d8b6a9;}.cls-3{fill:#b79a91;}</style></defs><title>Asset 11</title><g id="Layer_2" data-name="Layer 2"><g id="pig"><ellipse class="cls-1" cx="199.61" cy="91.48" rx="122.49" ry="91.48"/><path class="cls-1" d="M106.72,124.92s23.25-5.5,28.75,6.5-7.5,82.5-9.75,85-30.25-.5-31.5-3S92.47,144.92,106.72,124.92Z"/><path class="cls-1" d="M126.84,128.93s20.8-11.77,29.42-1.78,15.81,81.32,14.34,84.35-29.19,7.95-31.08,5.9S118.73,152.11,126.84,128.93Z"/><path class="cls-1" d="M236.83,121.31s23.25-5.5,28.75,6.5-7.5,82.5-9.75,85-30.25-.5-31.5-3S222.58,141.31,236.83,121.31Z"/><path class="cls-1" d="M257,125.32s20.79-11.76,29.42-1.77,15.81,81.31,14.34,84.34-29.19,8-31.08,5.91S248.84,148.5,257,125.32Z"/><path class="cls-1" d="M307.11,47.59s21.68-.26,25.68-10.92c-3.33,19.33-19,23.33-23,24s-2.68-8-2.68-8Z"/><circle class="cls-1" cx="63.9" cy="72.64" r="63.9"/><polygon class="cls-1" points="37 17.92 12.5 10.79 20.5 32.29 37 17.92"/><polygon class="cls-1" points="78.5 15.79 92 5.79 92 25.29 78.5 15.79"/><ellipse class="cls-2" cx="42.25" cy="58.29" rx="5.25" ry="8"/><ellipse class="cls-2" cx="75.92" cy="58.29" rx="5.25" ry="8"/><ellipse class="cls-2" cx="59.08" cy="94.66" rx="16.83" ry="13.87"/><ellipse class="cls-3" cx="55.04" cy="95.77" rx="4.04" ry="6.48"/><ellipse class="cls-3" cx="63.9" cy="95.77" rx="4.04" ry="6.48"/></g></g></svg>