<svg xmlns="http://www.w3.org/2000/svg" viewBox="0 0 236.63 98.94"><defs><style>.cls-1{fill:#df9c4b;}.cls-2{fill:#e9a657;}.cls-3{fill:#f2b366;}.cls-4{fill:#c47f31;}</style></defs><title>Asset 34</title><g id="Layer_2" data-name="Layer 2"><g id="potato"><path class="cls-1" d="M236.63,38.77c0,21.42-27.63,36.61-65.1,29.37C137,72.63,110.86,66.42,110.86,45S138.38,0,173.34,0,236.63,17.36,236.63,38.77Z"/><path class="cls-2" d="M205.82,15.89C192.19,6.51,176,5.51,160.68,5.47,151.13,10.68,139,9.81,132,20.23c-3.47,6.07-8.68,18.23.87,20,17.36,3.47,33.86-6.94,49.48.87,7.81,3.47,20.83,13.89,26,3.47C212.76,35.85,215.37,22.83,205.82,15.89Z"/><path class="cls-3" d="M183.25,14.44A27.92,27.92,0,0,0,161.55,11c-7,1.73-15.63,6.94-16.5,16.49,0,1.74,1.74,3.47,2.61,3.47,5.21.87,12.15-4.34,15.62-.87,9.55,7.82,20.84,4.34,31.25,3.48,6.08-.87,3.48-10.42,0-13.89C192.8,16.18,187.59,14.44,183.25,14.44Z"/><path class="cls-4" d="M230.12,21.64c4.33,10.59,3.41,23.34-3.32,31.57-8.68,11.29-26.91,12.16-39.93,6.08-7.82-3.47-16.5-3.47-23.44.87-14.76,9.55-32.12,6.94-46-1.74a30.74,30.74,0,0,1-3.86-2.85c7.5,12.82,29.95,16.21,58,12.57,37.47,7.24,65.1-8,65.1-29.37C236.63,32.62,234.28,26.81,230.12,21.64Z"/><ellipse class="cls-4" cx="120.82" cy="42.8" rx="4.34" ry="0.8" transform="matrix(0.31, -0.95, 0.95, 0.31, 42.16, 144)"/><ellipse class="cls-4" cx="148.53" cy="31.48" rx="1.16" ry="4.22" transform="translate(-3.06 40.05) rotate(-15.2)"/><ellipse class="cls-4" cx="211.32" cy="38.31" rx="3.33" ry="1.01" transform="translate(72.48 202.16) rotate(-60)"/><ellipse class="cls-4" cx="204.01" cy="25" rx="4.48" ry="1.38" transform="translate(42.08 151.58) rotate(-45)"/><ellipse class="cls-4" cx="229.47" cy="30.47" rx="3.21" ry="1.52" transform="translate(146.15 246.44) rotate(-76.47)"/><ellipse class="cls-4" cx="153.59" cy="54.73" rx="3.83" ry="1.01" transform="translate(23.67 153.25) rotate(-56.78)"/><ellipse class="cls-4" cx="132.61" cy="54.3" rx="3.4" ry="1.01" transform="matrix(0.18, -0.98, 0.98, 0.18, 55.59, 175.13)"/><ellipse class="cls-4" cx="172.68" cy="20.08" rx="3.33" ry="1.07" transform="translate(43.56 136.49) rotate(-48.67)"/><ellipse class="cls-4" cx="190.7" cy="8.29" rx="2.82" ry="1.09" transform="translate(79.3 163.29) rotate(-56.78)"/><ellipse class="cls-4" cx="183.27" cy="56.29" rx="2" ry="1.04" transform="translate(35.78 178.79) rotate(-56.78)"/><ellipse class="cls-4" cx="216.92" cy="57.38" rx="1.27" ry="2.65"/><path class="cls-1" d="M169.79,56.83c0,28.9-37.3,49.41-87.89,39.64C35.22,102.53,0,94.15,0,65.24S37.15,4.48,84.34,4.48,169.79,27.92,169.79,56.83Z"/><path class="cls-2" d="M128.19,25.93c-18.4-12.65-40.19-14-60.94-14.06C54.36,18.9,38,17.73,28.58,31.79c-4.68,8.2-11.71,24.61,1.18,27,23.43,4.69,45.7-9.37,66.79,1.17,10.55,4.69,28.12,18.75,35.16,4.69C137.56,52.88,141.08,35.31,128.19,25.93Z"/><path class="cls-3" d="M97.72,24a37.71,37.71,0,0,0-29.29-4.69c-9.38,2.34-21.1,9.37-22.27,22.27,0,2.34,2.35,4.68,3.52,4.68,7,1.17,16.4-5.86,21.09-1.17C83.66,55.62,98.89,50.93,113,49.76c8.2-1.17,4.68-14.06,0-18.75C110.61,26.32,103.58,24,97.72,24Z"/><path class="cls-4" d="M161,33.7c5.84,14.29,4.6,31.5-4.49,42.62-11.72,15.23-36.33,16.41-53.91,8.2C92.06,79.83,80.34,79.83,71,85.69,51,98.58,27.61,95.07,8.86,83.35a42.74,42.74,0,0,1-5.22-3.84c10.13,17.29,40.43,21.87,78.26,17,50.59,9.77,87.89-10.74,87.89-39.64C169.79,48.52,166.62,40.67,161,33.7Z"/><ellipse class="cls-4" cx="13.45" cy="62.26" rx="5.86" ry="1.07" transform="translate(-49.88 55.42) rotate(-71.65)"/><ellipse class="cls-4" cx="50.85" cy="46.98" rx="1.56" ry="5.7" transform="translate(-10.54 14.98) rotate(-15.2)"/><ellipse class="cls-4" cx="135.61" cy="56.2" rx="4.49" ry="1.37" transform="translate(19.13 145.54) rotate(-60)"/><ellipse class="cls-4" cx="125.75" cy="38.23" rx="6.05" ry="1.86" transform="translate(9.8 100.12) rotate(-45)"/><ellipse class="cls-4" cx="160.12" cy="45.62" rx="4.34" ry="2.05" transform="translate(78.3 190.62) rotate(-76.47)"/><ellipse class="cls-4" cx="57.68" cy="78.37" rx="5.18" ry="1.37" transform="translate(-39.48 83.7) rotate(-56.78)"/><ellipse class="cls-4" cx="29.37" cy="77.78" rx="4.59" ry="1.37" transform="translate(-52.4 92.84) rotate(-79.75)"/><ellipse class="cls-4" cx="83.46" cy="31.59" rx="4.49" ry="1.44" transform="translate(4.62 73.4) rotate(-48.67)"/><ellipse class="cls-4" cx="107.78" cy="15.68" rx="3.81" ry="1.46" transform="translate(35.62 97.26) rotate(-56.78)"/><ellipse class="cls-4" cx="97.75" cy="80.48" rx="2.7" ry="1.4" transform="translate(-23.13 118.18) rotate(-56.78)"/><ellipse class="cls-4" cx="143.18" cy="81.95" rx="1.71" ry="3.58"/></g></g></svg>