<svg xmlns="http://www.w3.org/2000/svg" viewBox="0 0 175.29 179.56"><defs><style>.cls-1{fill:#efeff1;stroke:#bababa;stroke-miterlimit:10;stroke-width:0.38px;}</style></defs><title>Asset 14</title><g id="Layer_2" data-name="Layer 2"><g id="rice_noodle"><path class="cls-1" d="M20.7.43S5.46,12,11,23.89s14,15.4,9.74,23.81S8.79,58.2,15.8,65.2s10.15,6.65,6,13.66S1.65,96,5,104.77s14,7.7,9.09,15.4S-1.74,130,1.65,137.33s12.27,4.9,7.62,12.6S-2.17,155.54,1,164.64s13.17,13.63,10.92,10.14S4.19,168.14,5,164.29s8.05-10.85,8.89-13.3-1.27-10.51-4.65-13.31,2.11-8.4,5.5-11.9,9.31-4.56,5.08-9.81-9.31-6-10.16-10.85,9.76-12.61,14-21.71,5.94-11.91,0-17.51S17.31,58,21.12,53.36s6.77-7.06,4.66-12-6.78-9.1-8.47-15-4.66-7.71-.85-15.06S20.7.43,20.7.43Z"/><path class="cls-1" d="M25.56.43S10.32,12,15.83,23.89s14,15.4,9.73,23.81-11.9,10.5-4.89,17.5,10.15,6.65,6,13.66S6.51,96,9.9,104.77s13.94,7.7,9.09,15.4S3.13,130,6.51,137.33s12.28,4.9,7.62,12.6S2.7,155.54,5.88,164.64,19,178.27,16.8,174.78s-7.75-6.64-6.9-10.49,8-10.85,8.89-13.3-1.27-10.51-4.66-13.31,2.12-8.4,5.51-11.9S29,121.22,24.72,116s-9.32-6-10.16-10.85,9.76-12.61,14-21.71,5.94-11.91,0-17.51S22.18,58,26,53.36s6.77-7.06,4.65-12-6.77-9.1-8.46-15-4.66-7.71-.85-15.06S25.56.43,25.56.43Z"/><path class="cls-1" d="M30.86.43S15.62,12,21.12,23.89s14,15.4,9.74,23.81S19,58.2,26,65.2s10.15,6.65,6,13.66S11.81,96,15.19,104.77s13.94,7.7,9.09,15.4S8.42,130,11.81,137.33s12.27,4.9,7.62,12.6S8,155.54,11.17,164.64s13.17,13.63,10.92,10.14-7.74-6.64-6.9-10.49,8-10.85,8.89-13.3-1.27-10.51-4.65-13.31,2.11-8.4,5.5-11.9S34.24,121.22,30,116s-9.31-6-10.16-10.85,9.76-12.61,14-21.71,5.94-11.91,0-17.51S27.47,58,31.28,53.36s6.77-7.06,4.65-12-6.77-9.1-8.46-15-4.66-7.71-.85-15.06S30.86.43,30.86.43Z"/><path class="cls-1" d="M34.35.43S19.12,12,24.62,23.89s14,15.4,9.73,23.81-11.9,10.5-4.89,17.5,10.15,6.65,6,13.66S15.31,96,18.69,104.77s13.94,7.7,9.09,15.4S11.92,130,15.31,137.33s12.27,4.9,7.62,12.6-11.44,5.61-8.26,14.71,13.17,13.63,10.92,10.14-7.74-6.64-6.9-10.49,8-10.85,8.89-13.3-1.27-10.51-4.65-13.31,2.11-8.4,5.5-11.9,9.31-4.56,5.08-9.81-9.31-6-10.16-10.85,9.76-12.61,14-21.71,5.94-11.91,0-17.51S31,58,34.78,53.36s6.77-7.06,4.65-12-6.77-9.1-8.46-15-4.66-7.71-.85-15.06S34.35.43,34.35.43Z"/><path class="cls-1" d="M39.22.43S24,12,29.49,23.89s14,15.4,9.73,23.81-11.9,10.5-4.89,17.5,10.15,6.65,6,13.66S20.17,96,23.56,104.77s13.94,7.7,9.09,15.4S16.79,130,20.17,137.33s12.28,4.9,7.62,12.6-11.43,5.61-8.25,14.71,13.16,13.63,10.92,10.14-7.75-6.64-6.9-10.49,8-10.85,8.89-13.3-1.27-10.51-4.66-13.31,2.12-8.4,5.51-11.9,9.31-4.56,5.08-9.81-9.32-6-10.16-10.85S38,92.51,42.2,83.41s5.94-11.91,0-17.51S35.84,58,39.65,53.36s6.77-7.06,4.65-12-6.77-9.1-8.46-15S31.18,18.63,35,11.28,39.22.43,39.22.43Z"/><path class="cls-1" d="M44.51.43S29.27,12,34.78,23.89s14,15.4,9.73,23.81-11.9,10.5-4.89,17.5,10.15,6.65,6,13.66S25.47,96,28.85,104.77s13.94,7.7,9.09,15.4S22.08,130,25.47,137.33s12.27,4.9,7.61,12.6-11.43,5.61-8.25,14.71S38,178.27,35.75,174.78s-7.75-6.64-6.9-10.49,8-10.85,8.89-13.3-1.27-10.51-4.66-13.31,2.12-8.4,5.51-11.9,9.31-4.56,5.08-9.81-9.32-6-10.16-10.85,9.76-12.61,14-21.71,5.94-11.91,0-17.51S41.13,58,44.94,53.36s6.77-7.06,4.65-12-6.77-9.1-8.46-15-4.66-7.71-.85-15.06S44.51.43,44.51.43Z"/><path class="cls-1" d="M49.38.43S34.14,12,39.65,23.89s14,15.4,9.73,23.81-11.9,10.5-4.89,17.5,10.15,6.65,6,13.66S30.33,96,33.72,104.77s13.94,7.7,9.09,15.4S27,130,30.33,137.33s12.28,4.9,7.62,12.6-11.43,5.61-8.25,14.71,13.16,13.63,10.92,10.14-7.75-6.64-6.9-10.49,8-10.85,8.89-13.3S41.34,140.48,38,137.68s2.12-8.4,5.51-11.9,9.31-4.56,5.08-9.81-9.32-6-10.16-10.85,9.76-12.61,14-21.71,5.94-11.91,0-17.51S46,58,49.81,53.36s6.77-7.06,4.65-12-6.77-9.1-8.46-15-4.66-7.71-.85-15.06S49.38.43,49.38.43Z"/><path class="cls-1" d="M55.73.43S40.49,12,46,23.89s14,15.4,9.73,23.81-11.9,10.5-4.89,17.5,10.14,6.65,6,13.66S36.68,96,40.07,104.77s13.94,7.7,9.09,15.4S33.3,130,36.68,137.33s12.28,4.9,7.62,12.6-11.43,5.61-8.25,14.71S49.21,178.27,47,174.78s-7.75-6.64-6.9-10.49,8-10.85,8.89-13.3-1.27-10.51-4.66-13.31,2.12-8.4,5.51-11.9,9.31-4.56,5.07-9.81-9.31-6-10.15-10.85,9.76-12.61,14-21.71,5.94-11.91,0-17.51S52.35,58,56.15,53.36s6.78-7.06,4.66-12-6.77-9.1-8.46-15-4.66-7.71-.85-15.06S55.73.43,55.73.43Z"/><path class="cls-1" d="M60,.43S44.74,12,50.25,23.89s14,15.4,9.73,23.81-11.9,10.5-4.89,17.5,10.15,6.65,6,13.66S40.93,96,44.32,104.77s13.94,7.7,9.09,15.4S37.55,130,40.93,137.33s12.28,4.9,7.62,12.6-11.43,5.61-8.25,14.71,13.16,13.63,10.92,10.14-7.75-6.64-6.9-10.49,8-10.85,8.89-13.3-1.27-10.51-4.66-13.31,2.12-8.4,5.51-11.9,9.31-4.56,5.08-9.81S49.82,110,49,105.12s9.76-12.61,14-21.71S68.9,71.5,63,65.9,56.6,58,60.41,53.36s6.77-7.06,4.65-12-6.77-9.1-8.46-15-4.66-7.71-.85-15.06S60,.43,60,.43Z"/><path class="cls-1" d="M66.09.43S50.85,12,56.35,23.89s14,15.4,9.74,23.81-11.91,10.5-4.9,17.5,10.15,6.65,6,13.66S47,96,50.42,104.77s14,7.7,9.09,15.4S43.65,130,47,137.33s12.27,4.9,7.62,12.6-11.44,5.61-8.26,14.71,13.17,13.63,10.92,10.14-7.74-6.64-6.9-10.49,8-10.85,8.89-13.3S58,140.48,54.66,137.68s2.11-8.4,5.5-11.9,9.31-4.56,5.08-9.81-9.31-6-10.16-10.85,9.77-12.61,14-21.71S75,71.5,69.06,65.9,62.7,58,66.51,53.36s6.77-7.06,4.66-12-6.78-9.1-8.47-15S58,18.63,61.85,11.28,66.09.43,66.09.43Z"/><path class="cls-1" d="M73.64,1.13S58.4,12.68,63.91,24.59s14,15.4,9.73,23.81-11.9,10.5-4.89,17.5,10.15,6.66,6,13.66S54.59,96.71,58,105.47s13.94,7.7,9.09,15.4S51.21,130.68,54.59,138s12.28,4.9,7.62,12.6S50.78,156.24,54,165.34,67.12,179,64.88,175.48,57.13,168.84,58,165s8-10.85,8.89-13.3-1.27-10.51-4.66-13.31,2.12-8.4,5.51-11.9,9.31-4.56,5.08-9.81-9.32-6-10.16-10.85,9.76-12.61,14-21.71,5.94-11.9,0-17.51-6.36-7.92-2.55-12.54,6.77-7.06,4.65-12S72,33,70.26,27,65.6,19.33,69.41,12,73.64,1.13,73.64,1.13Z"/><path class="cls-1" d="M78.07,1.13S62.83,12.68,68.33,24.59,82.3,40,78.07,48.4s-11.91,10.5-4.9,17.5,10.15,6.66,6,13.66S59,96.71,62.41,105.47s13.94,7.7,9.08,15.4S55.63,130.68,59,138s12.28,4.9,7.62,12.6-11.43,5.61-8.26,14.71S71.55,179,69.31,175.48s-7.75-6.64-6.9-10.49,8-10.85,8.89-13.3S70,141.18,66.64,138.38s2.12-8.4,5.5-11.9,9.31-4.56,5.08-9.81-9.31-6-10.16-10.85,9.77-12.61,14-21.71,5.94-11.9,0-17.51-6.37-7.92-2.56-12.54,6.77-7.06,4.66-12S76.37,33,74.68,27,70,19.33,73.84,12,78.07,1.13,78.07,1.13Z"/><path class="cls-1" d="M80.61,1.13S65.37,12.68,70.87,24.59s14,15.4,9.74,23.81S68.7,58.9,75.71,65.9s10.15,6.66,6,13.66S61.56,96.71,65,105.47s13.94,7.7,9.08,15.4S58.17,130.68,61.56,138s12.28,4.9,7.62,12.6-11.43,5.61-8.26,14.71S74.09,179,71.85,175.48,64.1,168.84,65,165s8-10.85,8.89-13.3-1.27-10.51-4.66-13.31,2.12-8.4,5.5-11.9,9.31-4.56,5.08-9.81-9.31-6-10.16-10.85,9.77-12.61,14-21.71,5.94-11.9,0-17.51S77.22,58.68,81,54.06s6.77-7.06,4.66-12S78.91,33,77.22,27,72.57,19.33,76.37,12,80.61,1.13,80.61,1.13Z"/><path class="cls-1" d="M85.9,1.13S70.66,12.68,76.16,24.59,90.13,40,85.9,48.4,74,58.9,81,65.9s10.15,6.66,6,13.66-20.19,17.15-16.8,25.91,13.94,7.7,9.08,15.4S63.46,130.68,66.85,138s12.28,4.9,7.62,12.6S63,156.24,66.21,165.34,79.38,179,77.14,175.48s-7.75-6.64-6.9-10.49,8-10.85,8.89-13.3-1.27-10.51-4.66-13.31,2.12-8.4,5.5-11.9,9.32-4.56,5.08-9.81-9.31-6-10.16-10.85,9.77-12.61,14-21.71,5.94-11.9,0-17.51-6.37-7.92-2.56-12.54S93.1,47,91,42.09,84.21,33,82.51,27,77.86,19.33,81.67,12,85.9,1.13,85.9,1.13Z"/><path class="cls-1" d="M89.11,1.13S73.87,12.68,79.38,24.59s14,15.4,9.73,23.81-11.9,10.5-4.89,17.5,10.14,6.66,6,13.66-20.2,17.15-16.81,25.91,13.94,7.7,9.09,15.4S66.68,130.68,70.06,138s12.28,4.9,7.62,12.6-11.43,5.61-8.25,14.71S82.59,179,80.35,175.48s-7.75-6.64-6.9-10.49,8-10.85,8.89-13.3-1.27-10.51-4.66-13.31,2.12-8.4,5.5-11.9,9.32-4.56,5.08-9.81-9.31-6-10.15-10.85,9.76-12.61,14-21.71,5.94-11.9,0-17.51-6.37-7.92-2.56-12.54,6.78-7.06,4.66-12S87.42,33,85.72,27,81.07,19.33,84.88,12,89.11,1.13,89.11,1.13Z"/><path class="cls-1" d="M91.73,1.13S76.49,12.68,82,24.59,96,40,91.73,48.4s-11.91,10.5-4.9,17.5,10.15,6.66,6,13.66S72.68,96.71,76.06,105.47s14,7.7,9.09,15.4S69.29,130.68,72.68,138s12.27,4.9,7.62,12.6S68.87,156.24,72,165.34,85.21,179,83,175.48s-7.74-6.64-6.9-10.49,8-10.85,8.89-13.3-1.27-10.51-4.65-13.31,2.11-8.4,5.5-11.9,9.31-4.56,5.08-9.81-9.31-6-10.16-10.85,9.77-12.61,14-21.71,6-11.9,0-17.51-6.36-7.92-2.55-12.54,6.77-7.06,4.66-12S90,33,88.34,27,83.68,19.33,87.49,12,91.73,1.13,91.73,1.13Z"/><path class="cls-1" d="M95.59,1.13S80.35,12.68,85.86,24.59s14,15.4,9.73,23.81S83.69,58.9,90.7,65.9s10.14,6.66,6,13.66-20.2,17.15-16.81,25.91,13.94,7.7,9.09,15.4S73.16,130.68,76.54,138s12.28,4.9,7.62,12.6-11.43,5.61-8.25,14.71S89.07,179,86.83,175.48s-7.75-6.64-6.9-10.49,8-10.85,8.89-13.3-1.27-10.51-4.66-13.31,2.12-8.4,5.51-11.9,9.31-4.56,5.07-9.81-9.31-6-10.15-10.85,9.76-12.61,14-21.71,5.94-11.9,0-17.51S92.21,58.68,96,54.06s6.78-7.06,4.66-12S93.9,33,92.21,27,87.55,19.33,91.36,12,95.59,1.13,95.59,1.13Z"/><path class="cls-1" d="M101.91,2S86.67,13.59,92.17,25.5s14,15.4,9.74,23.81S90,59.81,97,66.81s10.15,6.66,6,13.66-20.19,17.15-16.8,25.91,13.94,7.7,9.08,15.4-15.86,9.81-12.47,17.16,12.28,4.9,7.62,12.61-11.43,5.6-8.26,14.7,13.17,13.63,10.93,10.14-7.75-6.64-6.9-10.49,8-10.85,8.89-13.3-1.27-10.51-4.66-13.31,2.12-8.4,5.5-11.9,9.31-4.56,5.08-9.81-9.31-6-10.16-10.85,9.77-12.61,14-21.71,5.94-11.9,0-17.51S98.52,59.59,102.33,55s6.77-7.06,4.66-12-6.77-9.1-8.47-15-4.65-7.7-.84-15.06S101.91,2,101.91,2Z"/><path class="cls-1" d="M106.75,2S91.52,13.59,97,25.5s14,15.4,9.73,23.81-11.9,10.5-4.89,17.5,10.15,6.66,6,13.66S87.71,97.62,91.09,106.38s13.94,7.7,9.09,15.4-15.86,9.81-12.47,17.16,12.27,4.9,7.62,12.61-11.44,5.6-8.26,14.7S100.23,179.88,98,176.39s-7.74-6.64-6.9-10.49,8-10.85,8.89-13.3-1.27-10.51-4.65-13.31,2.11-8.4,5.5-11.9,9.31-4.56,5.08-9.81-9.31-6-10.16-10.85,9.76-12.61,14-21.71,5.94-11.9,0-17.51-6.36-7.92-2.55-12.54,6.77-7.06,4.65-12-6.77-9.1-8.46-15-4.66-7.7-.85-15.06S106.75,2,106.75,2Z"/><path class="cls-1" d="M110.2,2S95,13.59,100.46,25.5s14,15.4,9.74,23.81-11.91,10.5-4.89,17.5,10.14,6.66,6,13.66-20.2,17.15-16.81,25.91,13.94,7.7,9.09,15.4-15.86,9.81-12.48,17.16,12.28,4.9,7.62,12.61-11.43,5.6-8.25,14.7,13.16,13.63,10.92,10.14-7.75-6.64-6.9-10.49,8-10.85,8.89-13.3-1.27-10.51-4.66-13.31,2.12-8.4,5.5-11.9,9.32-4.56,5.08-9.81-9.31-6-10.16-10.85S109,94.12,113.18,85s5.94-11.9,0-17.51-6.37-7.92-2.56-12.54,6.78-7.06,4.66-12-6.77-9.1-8.47-15-4.65-7.7-.84-15.06S110.2,2,110.2,2Z"/><path class="cls-1" d="M115.57,2s-15.24,11.55-9.74,23.46,14,15.4,9.74,23.81-11.91,10.5-4.9,17.5,10.15,6.66,6,13.66S96.52,97.62,99.9,106.38s13.95,7.7,9.09,15.4-15.86,9.81-12.47,17.16,12.27,4.9,7.62,12.61-11.43,5.6-8.26,14.7,13.17,13.63,10.92,10.14-7.74-6.64-6.9-10.49,8-10.85,8.89-13.3-1.27-10.51-4.65-13.31,2.11-8.4,5.5-11.9,9.31-4.56,5.08-9.81-9.31-6-10.16-10.85,9.77-12.61,14-21.71,5.95-11.9,0-17.51S112.18,59.59,116,55s6.77-7.06,4.66-12-6.78-9.1-8.47-15-4.66-7.7-.85-15.06S115.57,2,115.57,2Z"/><path class="cls-1" d="M123.86,3s-15.24,11.55-9.74,23.46,14,15.4,9.74,23.81S112,60.72,119,67.72s10.15,6.66,6,13.66-20.19,17.15-16.8,25.91,13.94,7.7,9.08,15.4-15.86,9.81-12.47,17.16,12.28,4.9,7.62,12.6-11.43,5.61-8.26,14.71,13.17,13.63,10.93,10.14-7.75-6.64-6.9-10.49,8-10.85,8.89-13.3-1.27-10.51-4.66-13.31,2.12-8.4,5.5-11.9,9.32-4.56,5.08-9.81-9.31-5.95-10.16-10.85,9.77-12.61,14-21.71,5.94-11.9,0-17.51-6.37-7.92-2.56-12.54,6.78-7.06,4.66-12-6.77-9.1-8.47-15-4.65-7.71-.84-15.06S123.86,3,123.86,3Z"/><path class="cls-1" d="M126.47,3s-15.24,11.55-9.74,23.46,14,15.4,9.74,23.81-11.91,10.5-4.9,17.5,10.15,6.66,6,13.66-20.19,17.15-16.81,25.91,14,7.7,9.09,15.4S104,132.5,107.42,139.85s12.27,4.9,7.62,12.6-11.43,5.61-8.26,14.71S120,180.79,117.7,177.3s-7.74-6.64-6.9-10.49,8-10.85,8.89-13.3S118.42,143,115,140.2s2.11-8.4,5.5-11.9,9.31-4.56,5.08-9.81-9.31-5.95-10.16-10.85,9.77-12.61,14-21.71,5.95-11.9,0-17.51-6.36-7.92-2.55-12.54,6.77-7.06,4.66-12-6.78-9.1-8.47-15-4.66-7.71-.85-15.06S126.47,3,126.47,3Z"/><path class="cls-1" d="M130.17,3s-15.23,11.55-9.73,23.46,14,15.4,9.73,23.81-11.9,10.5-4.89,17.5,10.15,6.66,6,13.66-20.19,17.15-16.81,25.91,13.94,7.7,9.09,15.4-15.86,9.81-12.47,17.16,12.27,4.9,7.62,12.6-11.44,5.61-8.26,14.71,13.17,13.63,10.92,10.14-7.74-6.64-6.9-10.49,8-10.85,8.89-13.3-1.27-10.51-4.65-13.31,2.11-8.4,5.5-11.9,9.31-4.56,5.08-9.81-9.31-5.95-10.16-10.85,9.76-12.61,14-21.71,5.94-11.9,0-17.51-6.36-7.92-2.55-12.54,6.77-7.06,4.65-12-6.77-9.1-8.46-15-4.66-7.71-.85-15.06S130.17,3,130.17,3Z"/><path class="cls-1" d="M134.07,3s-15.24,11.55-9.73,23.46,14,15.4,9.73,23.81-11.9,10.5-4.89,17.5,10.15,6.66,6,13.66S115,98.53,118.41,107.29s13.94,7.7,9.09,15.4S111.64,132.5,115,139.85s12.28,4.9,7.62,12.6-11.43,5.61-8.25,14.71,13.16,13.63,10.92,10.14-7.75-6.64-6.9-10.49,8-10.85,8.89-13.3S126,143,122.64,140.2s2.12-8.4,5.51-11.9,9.31-4.56,5.08-9.81-9.32-5.95-10.16-10.85,9.76-12.61,14-21.71,5.94-11.9,0-17.51-6.36-7.92-2.55-12.54,6.77-7.06,4.65-12-6.77-9.1-8.46-15-4.66-7.71-.85-15.06S134.07,3,134.07,3Z"/><path class="cls-1" d="M137.52,3.84s-15.24,11.55-9.74,23.45,14,15.41,9.74,23.81-11.91,10.51-4.9,17.51,10.15,6.65,6,13.66-20.19,17.15-16.8,25.91,13.94,7.7,9.08,15.4-15.86,9.8-12.47,17.16,12.28,4.9,7.62,12.6-11.43,5.6-8.26,14.71,13.17,13.63,10.93,10.14-7.75-6.64-6.9-10.49,8-10.86,8.89-13.31-1.27-10.5-4.66-13.3,2.12-8.41,5.5-11.91,9.31-4.55,5.08-9.8-9.31-5.95-10.16-10.85,9.77-12.61,14-21.71,5.94-11.91,0-17.51-6.37-7.92-2.56-12.54,6.77-7.07,4.66-12-6.77-9.1-8.47-15-4.65-7.71-.84-15.06S137.52,3.84,137.52,3.84Z"/><path class="cls-1" d="M143.83,3.84s-15.24,11.55-9.73,23.45,14,15.41,9.73,23.81-11.9,10.51-4.89,17.51,10.15,6.65,6,13.66-20.2,17.15-16.81,25.91,13.94,7.7,9.09,15.4-15.86,9.8-12.48,17.16,12.28,4.9,7.62,12.6-11.43,5.6-8.25,14.71,13.16,13.63,10.92,10.14-7.75-6.64-6.9-10.49,8-10.86,8.89-13.31-1.27-10.5-4.66-13.3,2.12-8.41,5.51-11.91,9.31-4.55,5.08-9.8-9.32-5.95-10.16-10.85,9.76-12.61,14-21.71,5.94-11.91,0-17.51-6.36-7.92-2.55-12.54,6.77-7.07,4.65-12-6.77-9.1-8.46-15-4.66-7.71-.85-15.06S143.83,3.84,143.83,3.84Z"/><path class="cls-1" d="M151.18,3.84s-15.24,11.55-9.74,23.45,14,15.41,9.74,23.81-11.91,10.51-4.9,17.51,10.15,6.65,6,13.66-20.19,17.15-16.81,25.91,14,7.7,9.09,15.4-15.86,9.8-12.47,17.16,12.27,4.9,7.62,12.6-11.43,5.6-8.26,14.71,13.17,13.63,10.92,10.14-7.74-6.64-6.9-10.49,8.05-10.86,8.89-13.31-1.27-10.5-4.65-13.3,2.11-8.41,5.5-11.91,9.31-4.55,5.08-9.8-9.31-5.95-10.16-10.85,9.77-12.61,14-21.71,5.95-11.91,0-17.51-6.36-7.92-2.55-12.54,6.77-7.07,4.66-12-6.78-9.1-8.47-15-4.66-7.71-.85-15.06S151.18,3.84,151.18,3.84Z"/><path class="cls-1" d="M159.64,3.84s-15.24,11.55-9.73,23.45,14,15.41,9.73,23.81-11.9,10.51-4.89,17.51,10.15,6.65,6,13.66S140.59,99.42,144,108.18s13.94,7.7,9.09,15.4-15.86,9.8-12.48,17.16,12.28,4.9,7.62,12.6-11.43,5.6-8.25,14.71,13.16,13.63,10.92,10.14-7.75-6.64-6.9-10.49,8-10.86,8.89-13.31-1.27-10.5-4.66-13.3,2.12-8.41,5.51-11.91,9.31-4.55,5.08-9.8-9.32-5.95-10.16-10.85,9.76-12.61,14-21.71,5.94-11.91,0-17.51-6.36-7.92-2.55-12.54,6.77-7.07,4.65-12-6.77-9.1-8.46-15-4.66-7.71-.85-15.06S159.64,3.84,159.64,3.84Z"/><path class="cls-1" d="M168.28,3.84S153,15.39,158.55,27.29s14,15.41,9.73,23.81-11.9,10.51-4.89,17.51,10.15,6.65,6,13.66-20.2,17.15-16.81,25.91,13.94,7.7,9.09,15.4-15.86,9.8-12.48,17.16,12.28,4.9,7.62,12.6-11.43,5.6-8.25,14.71,13.16,13.63,10.92,10.14-7.75-6.64-6.9-10.49,8-10.86,8.89-13.31-1.27-10.5-4.66-13.3,2.12-8.41,5.51-11.91,9.31-4.55,5.08-9.8-9.32-5.95-10.16-10.85,9.76-12.61,14-21.71,5.94-11.91,0-17.51-6.36-7.92-2.55-12.54,6.77-7.07,4.65-12-6.77-9.1-8.46-15-4.66-7.71-.85-15.06S168.28,3.84,168.28,3.84Z"/><path class="cls-1" d="M165.74,3.84S150.5,15.39,156,27.29s14,15.41,9.73,23.81-11.9,10.51-4.89,17.51,10.15,6.65,6,13.66-20.2,17.15-16.81,25.91,13.94,7.7,9.09,15.4-15.86,9.8-12.48,17.16,12.28,4.9,7.62,12.6-11.43,5.6-8.25,14.71,13.16,13.63,10.92,10.14-7.75-6.64-6.9-10.49,8-10.86,8.89-13.31-1.27-10.5-4.66-13.3,2.12-8.41,5.51-11.91,9.31-4.55,5.08-9.8-9.32-5.95-10.16-10.85,9.76-12.61,14-21.71,5.94-11.91,0-17.51-6.36-7.92-2.55-12.54,6.77-7.07,4.65-12-6.77-9.1-8.46-15-4.66-7.71-.85-15.06S165.74,3.84,165.74,3.84Z"/><path class="cls-1" d="M154.62,3.84s-15.24,11.55-9.73,23.45,14,15.41,9.73,23.81-11.9,10.51-4.89,17.51,10.15,6.65,6,13.66S135.57,99.42,139,108.18s13.94,7.7,9.09,15.4-15.86,9.8-12.48,17.16,12.28,4.9,7.62,12.6-11.43,5.6-8.25,14.71,13.16,13.63,10.92,10.14-7.75-6.64-6.9-10.49,8-10.86,8.89-13.31-1.27-10.5-4.66-13.3,2.12-8.41,5.51-11.91,9.31-4.55,5.08-9.8-9.32-5.95-10.16-10.85,9.76-12.61,14-21.71,5.94-11.91,0-17.51-6.36-7.92-2.55-12.54,6.77-7.07,4.65-12-6.77-9.1-8.46-15-4.66-7.71-.85-15.06S154.62,3.84,154.62,3.84Z"/><path class="cls-1" d="M70.57,2S55.33,13.59,60.83,25.5s14,15.4,9.74,23.81-11.91,10.5-4.9,17.5,10.15,6.66,6,13.66S51.52,97.62,54.9,106.38s13.95,7.7,9.09,15.4-15.86,9.81-12.47,17.16,12.27,4.9,7.62,12.61-11.44,5.6-8.26,14.7,13.17,13.63,10.92,10.14-7.74-6.64-6.9-10.49,8.05-10.85,8.89-13.3-1.27-10.51-4.65-13.31,2.11-8.4,5.5-11.9,9.31-4.56,5.08-9.81-9.31-6-10.16-10.85,9.76-12.61,14-21.71,5.94-11.9,0-17.51S67.18,59.59,71,55s6.77-7.06,4.66-12-6.78-9.1-8.47-15-4.66-7.7-.85-15.06S70.57,2,70.57,2Z"/><path class="cls-1" d="M120.41,2s-15.24,11.55-9.73,23.46,14,15.4,9.73,23.81-11.9,10.5-4.89,17.5,10.15,6.66,6,13.66-20.2,17.15-16.81,25.91,13.94,7.7,9.09,15.4S98,131.59,101.36,138.94s12.28,4.9,7.62,12.61-11.43,5.6-8.25,14.7,13.16,13.63,10.92,10.14-7.75-6.64-6.9-10.49,8-10.85,8.89-13.3-1.27-10.51-4.66-13.31,2.12-8.4,5.51-11.9,9.31-4.56,5.08-9.81-9.32-6-10.16-10.85,9.76-12.61,14-21.71,5.94-11.9,0-17.51S117,59.59,120.84,55s6.77-7.06,4.65-12-6.77-9.1-8.46-15-4.66-7.7-.85-15.06S120.41,2,120.41,2Z"/></g></g></svg>