<svg xmlns="http://www.w3.org/2000/svg" viewBox="0 0 176.09 205.72"><defs><style>.cls-1{fill:#efeff1;stroke:#bababa;stroke-miterlimit:10;stroke-width:0.38px;}.cls-2{fill:#7d7d7d;}.cls-3{font-size:27.61px;fill:#fff;font-family:Poppins-Bold, Poppins;font-weight:700;}</style></defs><title>Asset 17</title><g id="Layer_2" data-name="Layer 2"><g id="rice_noodle"><path class="cls-1" d="M13.37,6.27S-1,19.83,5.31,32.43s15,15.87,11.38,25.29S5.55,69.92,13,77.09s10.6,6.58,7,14.47-19,20-14.95,29.28S19.53,128.33,15.23,137,.09,148.72,4,156.5s12.59,4.54,8.49,13.23-11,6.83-7.21,16.54,14.1,14,11.61,10.33-8.19-6.73-7.62-11,7.26-12.34,7.94-15.06-2-11.35-5.59-14.18,1.53-9.28,4.66-13.31,9-5.55,4.38-11-9.71-5.88-10.9-11.16,8.86-14.35,12.43-24.53,5.09-13.34-1.23-19S14,69.12,17.52,63.86s6.26-8.13,3.8-13.33-7.4-9.47-9.51-15.84S6.63,26.6,9.91,18.36,13.37,6.27,13.37,6.27Z"/><path class="cls-1" d="M18.23,6S3.83,19.51,10.16,32.12,25.19,48,21.55,57.4,10.41,69.6,17.9,76.77s10.59,6.59,7,14.47-18.95,20-15,29.29S24.39,128,20.09,136.71,5,148.4,8.84,156.19s12.6,4.54,8.49,13.23-11,6.83-7.2,16.53,14.1,14,11.61,10.34-8.2-6.73-7.62-11,7.26-12.33,7.93-15.05-2-11.35-5.58-14.18,1.52-9.29,4.66-13.31,9-5.56,4.38-11-9.71-5.88-10.9-11.16S23.47,106.26,27,96.08s5.1-13.34-1.23-19-6.9-8.22-3.43-13.49,6.27-8.13,3.81-13.32-7.4-9.48-9.51-15.85S11.48,26.29,14.77,18,18.23,6,18.23,6Z"/><path class="cls-1" d="M23.51,5.61S9.12,19.17,15.44,31.77s15,15.87,11.39,25.29-11.14,12.2-3.65,19.37,10.59,6.59,7,14.47-19,20-14.95,29.29,14.45,7.48,10.15,16.18-15.14,11.69-11.25,19.48,12.6,4.54,8.49,13.22-11,6.84-7.2,16.54S29.51,199.6,27,196s-8.19-6.73-7.62-11,7.26-12.33,7.94-15.05-2-11.35-5.59-14.18,1.52-9.29,4.66-13.32,9-5.55,4.38-11-9.71-5.88-10.9-11.16,8.86-14.35,12.43-24.53,5.09-13.34-1.24-19-6.9-8.22-3.43-13.49,6.27-8.13,3.81-13.33S24.06,40.4,22,34,16.76,26,20.05,17.7,23.51,5.61,23.51,5.61Z"/><path class="cls-1" d="M27,5.39S12.61,19,18.94,31.55,34,47.42,30.33,56.84,19.18,69,26.67,76.21s10.6,6.58,7,14.47-18.95,20-14.95,29.28,14.45,7.49,10.15,16.18-15.14,11.7-11.24,19.48,12.59,4.54,8.49,13.23-11,6.83-7.21,16.54,14.1,14,11.61,10.33-8.19-6.73-7.62-11,7.26-12.34,7.94-15.06-2-11.35-5.58-14.18,1.52-9.28,4.65-13.31,9-5.56,4.38-11-9.71-5.88-10.9-11.16,8.86-14.35,12.43-24.53,5.09-13.34-1.23-19.05S27.67,68.24,31.15,63s6.26-8.13,3.8-13.33-7.4-9.47-9.51-15.84-5.18-8.09-1.9-16.33S27,5.39,27,5.39Z"/><path class="cls-1" d="M31.86,5.08S17.47,18.63,23.79,31.24s15,15.86,11.39,25.28S24,68.72,31.53,75.89s10.59,6.59,7,14.47-19,20-15,29.29S38,127.13,33.72,135.83s-15.14,11.69-11.25,19.48,12.6,4.54,8.49,13.22-11,6.84-7.2,16.54,14.1,14,11.61,10.34-8.19-6.73-7.62-11S35,172.1,35.69,169.38s-2-11.35-5.59-14.18,1.52-9.29,4.66-13.31,9-5.56,4.38-11-9.71-5.88-10.9-11.16S37.1,105.38,40.67,95.2s5.09-13.34-1.24-19S32.53,67.93,36,62.66s6.27-8.13,3.81-13.33-7.4-9.47-9.51-15.84-5.19-8.08-1.9-16.33S31.86,5.08,31.86,5.08Z"/><path class="cls-1" d="M37.14,4.73S22.75,18.29,29.07,30.89s15,15.87,11.39,25.29-11.14,12.2-3.65,19.37S47.4,82.14,43.8,90s-18.95,20-14.95,29.29S43.3,126.79,39,135.49,23.86,147.18,27.76,155s12.59,4.54,8.48,13.22-11,6.84-7.2,16.54,14.1,14,11.61,10.34-8.19-6.73-7.62-11S40.29,171.76,41,169s-2-11.35-5.59-14.18,1.52-9.29,4.66-13.32,9-5.55,4.38-11-9.71-5.88-10.9-11.16S42.38,105,46,94.86s5.09-13.34-1.24-19-6.9-8.22-3.43-13.49S47.55,54.19,45.09,49s-7.4-9.47-9.51-15.84-5.19-8.08-1.9-16.33S37.14,4.73,37.14,4.73Z"/><path class="cls-1" d="M42,4.42S27.6,18,33.93,30.58,49,46.45,45.32,55.87s-11.14,12.2-3.65,19.37,10.59,6.58,7,14.47S29.71,109.68,33.7,119s14.46,7.49,10.16,16.18-15.14,11.7-11.25,19.48,12.6,4.55,8.49,13.23-11,6.83-7.2,16.54,14.09,14,11.61,10.33-8.2-6.73-7.62-11,7.26-12.33,7.93-15.06-2-11.35-5.58-14.18,1.52-9.28,4.66-13.31,9-5.55,4.38-11-9.72-5.88-10.91-11.16,8.86-14.34,12.43-24.52,5.1-13.34-1.23-19.06S42.66,67.28,46.14,62,52.4,53.88,50,48.68s-7.4-9.47-9.51-15.84-5.19-8.08-1.9-16.33S42,4.42,42,4.42Z"/><path class="cls-1" d="M48.34,4s-14.4,13.56-8.07,26.16S55.29,46,51.66,55.46,40.52,67.66,48,74.83s10.6,6.58,7,14.47-18.94,20-15,29.28,14.45,7.49,10.15,16.19S35.05,146.46,39,154.24s12.59,4.55,8.49,13.23-11,6.83-7.21,16.54,14.1,14,11.62,10.33-8.2-6.73-7.63-11,7.27-12.33,7.94-15.06-2-11.35-5.58-14.18,1.52-9.28,4.65-13.31,9-5.55,4.38-11S45.9,124,44.71,118.66s8.86-14.34,12.43-24.52,5.09-13.34-1.23-19.06S49,66.87,52.48,61.6s6.26-8.13,3.8-13.33-7.39-9.47-9.5-15.84-5.19-8.08-1.91-16.33S48.34,4,48.34,4Z"/><path class="cls-1" d="M52.58,3.74S38.18,17.3,44.51,29.9s15,15.86,11.39,25.28-11.14,12.2-3.65,19.37,10.59,6.59,7,14.48-18.94,20-14.95,29.28,14.46,7.48,10.15,16.18S39.3,146.18,43.19,154s12.6,4.54,8.49,13.23-11,6.83-7.2,16.53,14.09,14,11.61,10.34-8.2-6.73-7.62-11S55.73,170.76,56.4,168s-2-11.35-5.58-14.18,1.52-9.28,4.66-13.31,9-5.56,4.38-11S50.14,123.67,49,118.39,57.81,104,61.38,93.86s5.09-13.34-1.23-19-6.91-8.22-3.43-13.49S63,53.2,60.53,48,53.13,38.53,51,32.16s-5.19-8.09-1.9-16.34S52.58,3.74,52.58,3.74Z"/><path class="cls-1" d="M58.67,3.34S44.27,16.9,50.6,29.5,65.62,45.37,62,54.79,50.85,67,58.34,74.16s10.59,6.59,7,14.47-18.94,20-14.95,29.29,14.46,7.48,10.15,16.18-15.13,11.69-11.24,19.48,12.6,4.54,8.49,13.22-11,6.84-7.2,16.54,14.09,14,11.61,10.34-8.2-6.73-7.62-11,7.26-12.33,7.93-15-2-11.35-5.58-14.18,1.52-9.29,4.66-13.32,9-5.55,4.38-11S56.23,123.28,55,118s8.86-14.35,12.43-24.53,5.09-13.34-1.23-19.06-6.91-8.21-3.43-13.48,6.26-8.13,3.81-13.33-7.4-9.47-9.51-15.84-5.19-8.08-1.9-16.33S58.67,3.34,58.67,3.34Z"/><path class="cls-1" d="M66.26,3.62s-14.4,13.56-8.07,26.16,15,15.87,11.39,25.29-11.14,12.2-3.65,19.37,10.59,6.58,7,14.47S54,108.88,58,118.19s14.46,7.49,10.15,16.18S53,146.07,56.87,153.85s12.6,4.54,8.49,13.23-11,6.83-7.2,16.54,14.09,14,11.61,10.33-8.2-6.73-7.62-11,7.26-12.34,7.93-15.06-2-11.35-5.58-14.18,1.52-9.28,4.65-13.31,9-5.56,4.38-11-9.71-5.88-10.9-11.16,8.86-14.35,12.43-24.53,5.09-13.34-1.23-19-6.91-8.22-3.43-13.48,6.26-8.13,3.81-13.33S66.81,38.41,64.7,32,59.51,24,62.8,15.71,66.26,3.62,66.26,3.62Z"/><path class="cls-1" d="M70.67,3.33S56.28,16.89,62.61,29.49,77.63,45.36,74,54.78,62.85,67,70.34,74.15s10.6,6.59,7,14.47-18.95,20-14.95,29.29,14.45,7.48,10.15,16.18-15.14,11.69-11.24,19.48,12.59,4.54,8.49,13.22-11,6.84-7.21,16.54,14.1,14,11.62,10.34-8.2-6.73-7.63-11,7.27-12.33,7.94-15.05-2-11.35-5.58-14.18,1.52-9.29,4.65-13.32,9-5.55,4.38-11-9.71-5.88-10.9-11.16,8.86-14.35,12.43-24.53,5.09-13.34-1.23-19.06-6.91-8.21-3.43-13.48,6.26-8.13,3.8-13.33-7.4-9.47-9.5-15.84-5.19-8.08-1.91-16.33S70.67,3.33,70.67,3.33Z"/><path class="cls-1" d="M73.21,3.17s-14.4,13.56-8.07,26.16,15,15.87,11.39,25.29S65.39,66.82,72.88,74s10.59,6.58,7,14.47-18.94,20-15,29.28,14.46,7.49,10.16,16.18-15.14,11.7-11.25,19.48,12.6,4.55,8.49,13.23-11,6.83-7.2,16.54,14.09,14,11.61,10.33-8.2-6.73-7.62-11,7.26-12.34,7.93-15.06-2-11.35-5.58-14.18S73,144,76.11,140s9-5.55,4.38-11-9.72-5.88-10.9-11.16S78.44,103.48,82,93.3,87.11,80,80.78,74.24,73.88,66,77.35,60.76s6.26-8.13,3.81-13.33S73.76,38,71.65,31.59s-5.19-8.09-1.9-16.33S73.21,3.17,73.21,3.17Z"/><path class="cls-1" d="M78.49,2.83S64.09,16.39,70.42,29s15,15.87,11.39,25.29-11.14,12.2-3.65,19.37,10.59,6.58,7,14.47-19,20-15,29.28,14.46,7.49,10.16,16.18-15.14,11.7-11.25,19.48,12.6,4.54,8.49,13.23-11,6.83-7.2,16.54,14.1,14,11.61,10.33-8.2-6.73-7.62-11,7.26-12.34,7.93-15.06-2-11.35-5.58-14.18,1.52-9.28,4.66-13.31,9-5.56,4.38-11-9.72-5.88-10.9-11.16S83.72,103.13,87.29,93s5.1-13.34-1.23-19-6.9-8.22-3.43-13.48,6.26-8.13,3.81-13.33S79,37.62,76.93,31.25,71.74,23.16,75,14.92,78.49,2.83,78.49,2.83Z"/><path class="cls-1" d="M81.69,2.62S67.3,16.18,73.63,28.78,88.65,44.65,85,54.07s-11.15,12.2-3.66,19.37S92,80,88.35,87.91s-18.95,20-14.95,29.28,14.45,7.49,10.15,16.19-15.14,11.69-11.24,19.47,12.59,4.55,8.49,13.23-11,6.84-7.21,16.54,14.1,14,11.62,10.33-8.2-6.72-7.63-11,7.27-12.33,7.94-15.06-2-11.35-5.58-14.18,1.52-9.28,4.65-13.31,9-5.55,4.38-11-9.71-5.87-10.9-11.15,8.86-14.35,12.43-24.53,5.09-13.34-1.23-19.06-6.91-8.21-3.43-13.48,6.26-8.13,3.8-13.33-7.4-9.47-9.5-15.84S75,23,78.23,14.71,81.69,2.62,81.69,2.62Z"/><path class="cls-1" d="M84.3,2.45S69.91,16,76.24,28.61s15,15.87,11.39,25.29S76.49,66.1,84,73.27s10.6,6.59,7,14.47S72,107.72,76,117s14.45,7.48,10.15,16.18S71,144.9,74.92,152.68s12.59,4.55,8.49,13.23-11,6.84-7.21,16.54,14.1,14,11.62,10.34-8.2-6.73-7.63-11,7.27-12.33,7.94-15.05-2-11.35-5.58-14.19,1.52-9.28,4.65-13.31,9-5.55,4.38-11-9.71-5.88-10.9-11.16,8.86-14.35,12.43-24.53,5.09-13.34-1.23-19.06S85,65.31,88.45,60s6.26-8.13,3.8-13.33-7.39-9.47-9.5-15.84-5.19-8.08-1.91-16.33S84.3,2.45,84.3,2.45Z"/><path class="cls-1" d="M88.16,2.2S73.77,15.76,80.09,28.36s15,15.87,11.39,25.29S80.34,65.85,87.83,73s10.59,6.59,7,14.47-18.95,20-14.95,29.29S94.32,124.26,90,133s-15.14,11.69-11.24,19.48,12.59,4.54,8.49,13.22-11,6.84-7.21,16.54,14.1,14,11.61,10.34-8.19-6.73-7.62-11,7.26-12.33,7.94-15.05-2-11.35-5.59-14.18S87.93,143,91.06,139s9-5.55,4.38-11-9.71-5.88-10.9-11.16S93.4,102.51,97,92.33s5.09-13.34-1.23-19-6.91-8.22-3.44-13.49,6.27-8.13,3.81-13.33S88.71,37,86.6,30.62s-5.18-8.08-1.9-16.33S88.16,2.2,88.16,2.2Z"/><path class="cls-1" d="M94.53,2.79S80.13,16.35,86.46,29s15,15.87,11.39,25.28S86.71,66.43,94.2,73.6s10.59,6.59,7,14.48-19,20-15,29.28,14.46,7.49,10.16,16.18S81.25,145.23,85.14,153s12.6,4.54,8.49,13.23-11,6.83-7.2,16.53,14.1,14,11.61,10.34-8.2-6.73-7.62-11,7.26-12.33,7.93-15-2-11.35-5.58-14.18,1.52-9.28,4.66-13.31,9-5.56,4.38-11-9.72-5.88-10.9-11.16,8.85-14.35,12.42-24.53,5.1-13.34-1.23-19-6.9-8.22-3.43-13.49,6.26-8.12,3.81-13.32S95.08,37.58,93,31.21s-5.19-8.09-1.9-16.34S94.53,2.79,94.53,2.79Z"/><path class="cls-1" d="M99.37,2.48S85,16,91.3,28.64s15,15.86,11.39,25.28S91.55,66.12,99,73.29s10.6,6.59,7,14.47-18.94,20-15,29.29,14.45,7.48,10.15,16.18S86.08,144.92,90,152.71s12.59,4.54,8.49,13.23-11,6.83-7.21,16.53,14.1,14,11.62,10.34-8.2-6.73-7.63-11,7.27-12.33,7.94-15.05-2-11.35-5.58-14.18,1.52-9.29,4.65-13.31,9-5.56,4.38-11-9.71-5.88-10.9-11.16,8.86-14.35,12.43-24.53,5.09-13.34-1.23-19-6.91-8.22-3.43-13.49,6.26-8.13,3.8-13.32-7.39-9.48-9.5-15.85-5.19-8.08-1.91-16.33S99.37,2.48,99.37,2.48Z"/><path class="cls-1" d="M102.8,2.25S88.41,15.81,94.74,28.41s15,15.87,11.39,25.29S95,65.9,102.47,73.07s10.6,6.59,7,14.47-18.95,20-14.95,29.29S109,124.31,104.66,133,89.52,144.7,93.42,152.48,106,157,101.91,165.71s-11,6.84-7.21,16.54,14.1,14,11.62,10.34-8.2-6.73-7.63-11,7.27-12.33,7.94-15.05-2-11.35-5.58-14.19,1.52-9.28,4.65-13.31,9-5.55,4.38-11-9.71-5.88-10.9-11.16,8.86-14.35,12.43-24.53S116.7,79,110.38,73.32s-6.91-8.21-3.43-13.48,6.26-8.13,3.8-13.33-7.4-9.47-9.5-15.84-5.19-8.08-1.91-16.33S102.8,2.25,102.8,2.25Z"/><path class="cls-1" d="M108.16,1.91s-14.4,13.56-8.07,26.16,15,15.87,11.39,25.28-11.14,12.2-3.65,19.37,10.59,6.59,7,14.48-18.95,20-15,29.28S114.32,124,110,132.66s-15.14,11.69-11.25,19.48,12.6,4.54,8.49,13.23-11,6.83-7.2,16.53,14.1,14,11.61,10.34-8.2-6.73-7.62-11,7.26-12.33,7.93-15-2-11.35-5.58-14.18,1.52-9.28,4.66-13.31,9-5.56,4.38-11-9.71-5.88-10.9-11.16S113.39,102.21,117,92s5.1-13.34-1.23-19-6.9-8.22-3.43-13.49,6.27-8.12,3.81-13.32-7.4-9.47-9.51-15.84-5.19-8.09-1.9-16.34S108.16,1.91,108.16,1.91Z"/><path class="cls-1" d="M116.5,2.36s-14.4,13.56-8.07,26.16,15,15.87,11.39,25.29S108.68,66,116.17,73.18s10.59,6.59,7,14.47-18.94,20-15,29.29,14.46,7.48,10.16,16.18-15.14,11.69-11.25,19.47,12.6,4.55,8.49,13.23-11,6.84-7.2,16.54,14.09,14,11.61,10.34-8.2-6.73-7.62-11,7.26-12.33,7.93-15.05-2-11.35-5.58-14.19,1.52-9.28,4.66-13.31,9-5.55,4.38-11-9.72-5.88-10.91-11.16,8.86-14.35,12.43-24.53,5.1-13.34-1.23-19.06-6.91-8.21-3.43-13.48,6.26-8.13,3.81-13.33-7.4-9.47-9.51-15.84-5.19-8.08-1.9-16.33S116.5,2.36,116.5,2.36Z"/><path class="cls-1" d="M119.1,2.2S104.71,15.75,111,28.36s15,15.86,11.39,25.28S111.28,65.84,118.77,73s10.59,6.59,7,14.47-19,20-15,29.29S125.26,124.25,121,133s-15.14,11.69-11.24,19.48,12.59,4.54,8.48,13.22-11,6.84-7.2,16.54,14.1,14,11.61,10.34-8.19-6.73-7.62-11,7.26-12.33,7.94-15.05-2-11.35-5.59-14.18S118.86,143,122,139s9-5.56,4.38-11-9.71-5.88-10.9-11.16,8.86-14.35,12.43-24.53,5.09-13.34-1.24-19-6.9-8.22-3.43-13.49,6.27-8.13,3.81-13.33-7.4-9.47-9.51-15.84-5.19-8.08-1.9-16.33S119.1,2.2,119.1,2.2Z"/><path class="cls-1" d="M122.8,2s-14.39,13.55-8.07,26.16,15,15.86,11.39,25.28S115,65.6,122.47,72.77s10.59,6.59,7,14.48-19,20-15,29.28S129,124,124.66,132.71s-15.14,11.69-11.24,19.48,12.59,4.54,8.48,13.23-11,6.83-7.2,16.53,14.1,14,11.61,10.34-8.19-6.73-7.62-11S126,169,126.63,166.26s-2-11.35-5.59-14.18,1.52-9.28,4.66-13.31,9-5.56,4.38-11-9.71-5.88-10.9-11.16,8.86-14.35,12.43-24.53,5.09-13.34-1.24-19-6.9-8.22-3.43-13.49,6.27-8.13,3.81-13.32-7.4-9.48-9.51-15.85-5.19-8.08-1.9-16.33S122.8,2,122.8,2Z"/><path class="cls-1" d="M126.69,1.71s-14.4,13.55-8.07,26.16,15,15.86,11.39,25.28-11.14,12.2-3.65,19.37,10.59,6.59,7,14.47-18.95,20-15,29.29,14.46,7.48,10.16,16.18-15.14,11.69-11.25,19.48,12.6,4.54,8.49,13.22-11,6.84-7.2,16.54,14.1,14,11.61,10.34-8.2-6.73-7.62-11,7.26-12.33,7.93-15.05-2-11.35-5.58-14.18,1.52-9.29,4.66-13.32,9-5.55,4.38-11-9.71-5.88-10.9-11.16,8.85-14.35,12.42-24.53,5.1-13.34-1.23-19-6.9-8.22-3.43-13.49,6.27-8.13,3.81-13.33-7.4-9.47-9.51-15.84-5.19-8.08-1.9-16.33S126.69,1.71,126.69,1.71Z"/><path class="cls-1" d="M130.19,2.45S115.8,16,122.12,28.61s15,15.87,11.39,25.29-11.14,12.19-3.65,19.36,10.59,6.59,7,14.48-18.95,20-14.95,29.28,14.45,7.49,10.15,16.18-15.14,11.7-11.24,19.48,12.59,4.54,8.49,13.23-11,6.83-7.21,16.54,14.1,14,11.61,10.33-8.19-6.73-7.62-11,7.26-12.34,7.94-15.06-2-11.35-5.59-14.18,1.53-9.28,4.66-13.31,9-5.56,4.38-11-9.71-5.88-10.9-11.16,8.86-14.35,12.43-24.53,5.09-13.34-1.23-19S130.86,65.3,134.33,60s6.27-8.12,3.81-13.32-7.4-9.47-9.51-15.84-5.18-8.09-1.9-16.33S130.19,2.45,130.19,2.45Z"/><path class="cls-1" d="M136.49,2S122.1,15.6,128.43,28.2s15,15.87,11.39,25.29-11.15,12.2-3.66,19.37,10.6,6.58,7,14.47-19,20-15,29.28,14.45,7.49,10.15,16.19-15.14,11.69-11.24,19.47,12.59,4.55,8.49,13.23-11,6.84-7.21,16.54,14.1,14,11.62,10.33-8.2-6.73-7.63-11,7.27-12.33,7.94-15.06-2-11.35-5.58-14.18,1.52-9.28,4.65-13.31,9-5.55,4.38-11-9.71-5.87-10.9-11.15,8.86-14.35,12.43-24.53,5.09-13.34-1.23-19.06-6.91-8.21-3.43-13.48,6.26-8.13,3.8-13.33-7.4-9.47-9.5-15.84-5.19-8.08-1.91-16.33S136.49,2,136.49,2Z"/><path class="cls-1" d="M143.82,1.57s-14.39,13.56-8.06,26.16,15,15.87,11.38,25.28S136,65.21,143.49,72.38s10.6,6.59,7,14.48-18.95,20-14.95,29.28,14.45,7.49,10.15,16.18S130.54,144,134.44,151.8,147,156.34,142.93,165s-11,6.83-7.21,16.54,14.1,14,11.61,10.33-8.19-6.73-7.62-11,7.26-12.34,7.94-15.06-2-11.35-5.59-14.18,1.53-9.28,4.66-13.31,9-5.56,4.38-11-9.71-5.88-10.9-11.16,8.86-14.35,12.43-24.53,5.09-13.34-1.23-19-6.91-8.22-3.43-13.49,6.26-8.12,3.8-13.32-7.4-9.47-9.51-15.84-5.18-8.09-1.9-16.34S143.82,1.57,143.82,1.57Z"/><path class="cls-1" d="M152.27,1s-14.39,13.56-8.07,26.16,15,15.87,11.39,25.29-11.14,12.2-3.65,19.37,10.59,6.59,7,14.47-19,20-15,29.29,14.45,7.48,10.15,16.18S139,143.47,142.88,151.25s12.6,4.55,8.49,13.23-11,6.84-7.2,16.54,14.1,14,11.61,10.34-8.19-6.73-7.62-11,7.26-12.33,7.94-15-2-11.36-5.59-14.19,1.52-9.28,4.66-13.31,9-5.55,4.38-11-9.71-5.87-10.9-11.15,8.86-14.35,12.43-24.53,5.09-13.34-1.24-19.06-6.9-8.21-3.43-13.48,6.27-8.13,3.81-13.33-7.4-9.47-9.51-15.84-5.19-8.08-1.9-16.33S152.27,1,152.27,1Z"/><path class="cls-1" d="M160.89.47S146.5,14,152.82,26.63s15,15.86,11.39,25.28-11.14,12.2-3.65,19.37,10.59,6.59,7,14.47-19,20-15,29.29,14.45,7.48,10.15,16.18-15.14,11.69-11.24,19.48,12.59,4.54,8.49,13.23-11,6.83-7.21,16.53,14.1,14,11.61,10.34-8.19-6.73-7.62-11,7.26-12.33,7.94-15-2-11.35-5.59-14.18,1.53-9.29,4.66-13.31,9-5.56,4.38-11-9.71-5.88-10.9-11.16,8.86-14.35,12.43-24.53,5.09-13.34-1.23-19-6.91-8.22-3.44-13.49,6.27-8.13,3.81-13.32-7.4-9.48-9.51-15.85-5.18-8.08-1.9-16.33S160.89.47,160.89.47Z"/><path class="cls-1" d="M158.36.63S144,14.19,150.29,26.79s15,15.87,11.39,25.29S150.54,64.28,158,71.45s10.59,6.58,7,14.47-18.94,20-14.95,29.28,14.46,7.49,10.15,16.18-15.14,11.7-11.24,19.48,12.6,4.55,8.49,13.23-11,6.83-7.2,16.54,14.09,14,11.61,10.33-8.2-6.73-7.62-11,7.26-12.34,7.93-15.06-2-11.35-5.58-14.18,1.52-9.28,4.65-13.31,9-5.55,4.38-11-9.71-5.88-10.9-11.16,8.86-14.35,12.43-24.53,5.09-13.34-1.23-19S159,63.49,162.5,58.22s6.26-8.13,3.81-13.33-7.4-9.47-9.51-15.84-5.19-8.09-1.9-16.33S158.36.63,158.36.63Z"/><path class="cls-1" d="M147.26,1.35s-14.39,13.55-8.07,26.16,15,15.86,11.39,25.28S139.44,65,146.93,72.16s10.59,6.59,7,14.48S135,106.61,139,115.92s14.45,7.48,10.15,16.18S134,143.79,137.88,151.58s12.59,4.54,8.49,13.23-11,6.83-7.21,16.53,14.1,14,11.61,10.34-8.19-6.73-7.62-11,7.26-12.33,7.94-15-2-11.35-5.59-14.18,1.53-9.28,4.66-13.31,9-5.56,4.38-11-9.71-5.88-10.9-11.16,8.86-14.35,12.43-24.53,5.09-13.34-1.23-19-6.91-8.22-3.44-13.49,6.27-8.13,3.81-13.32-7.4-9.48-9.51-15.85-5.19-8.08-1.9-16.33S147.26,1.35,147.26,1.35Z"/><path class="cls-1" d="M63.25,4.81S48.86,18.37,55.18,31s15,15.87,11.39,25.28-11.14,12.2-3.65,19.37,10.59,6.59,7,14.48S51,110.07,55,119.38s14.45,7.49,10.15,16.18S50,147.26,53.87,155s12.59,4.54,8.49,13.23-11,6.83-7.21,16.54,14.1,14,11.61,10.33-8.19-6.73-7.62-11,7.26-12.33,7.94-15-2-11.35-5.59-14.18,1.53-9.28,4.66-13.31,9-5.56,4.38-11-9.71-5.88-10.9-11.16,8.86-14.35,12.43-24.53,5.09-13.34-1.23-19.05-6.91-8.22-3.44-13.49,6.27-8.12,3.81-13.32-7.4-9.47-9.51-15.84-5.18-8.09-1.9-16.34S63.25,4.81,63.25,4.81Z"/><path class="cls-1" d="M113,1.6s-14.4,13.55-8.07,26.16S120,43.62,116.32,53s-11.14,12.2-3.66,19.37,10.6,6.59,7,14.47-18.94,20-15,29.29,14.45,7.48,10.15,16.18S99.71,144,103.61,151.83s12.59,4.54,8.49,13.22-11,6.84-7.21,16.54,14.1,14,11.62,10.34-8.2-6.73-7.63-11,7.27-12.33,7.94-15-2-11.35-5.58-14.18,1.52-9.29,4.65-13.31,9-5.56,4.38-11-9.71-5.88-10.9-11.16,8.86-14.35,12.43-24.53,5.09-13.34-1.23-19-6.91-8.22-3.43-13.49,6.26-8.13,3.8-13.33-7.39-9.47-9.5-15.84-5.19-8.08-1.91-16.33S113,1.6,113,1.6Z"/><path class="cls-2" d="M173.53,57.84H6.09A19.1,19.1,0,0,1,0,63V190.43c0,3.62,6.79,11.66,16.58,11.66H166.8c5.74,0,9.29-3.19,9.29-7v-132A14.42,14.42,0,0,1,173.53,57.84Z"/><text class="cls-3" transform="translate(12.1 155.86)">RICE<tspan x="0" y="33.13">NOODLES</tspan></text></g></g></svg>