<svg xmlns="http://www.w3.org/2000/svg" viewBox="0 0 199.66 205.57"><defs><style>.cls-1{fill:#ef6e27;}.cls-2{fill:#ee8443;}.cls-3{fill:#edc4ae;}</style></defs><title>Asset 48</title><g id="Layer_2" data-name="Layer 2"><g id="salmon"><path class="cls-1" d="M3.57,35.59S-6.38,69.4,6.94,84.68s48.58,12.54,71.31,48.19,52.46,69.9,52.46,69.9l-14.46-93L44.16,33.35Z"/><path class="cls-2" d="M12,28.26s17.63-7,26.64-20.77S66.5,2.4,71.2,5.93,130,44.72,130,44.72,178.55,90.16,186.78,134s26.25,58.77-3.92,58.38S155,205.35,146,205s-14.89,5.49-20-12.54S81.38,98.78,63.75,87,23,55.29,12,52.94-2.46,33.75,12,28.26Z"/><path class="cls-3" d="M55.31,109.6c5.32-7.39,17.7-6,10.78,8.46l1.3,1.26S79.8,87.08,53.56,108.49Z"/><path class="cls-3" d="M34.91,99.42s12-13.54,21.35-17.61l-3.8-2.76S33.67,94.44,31.66,98.13Z"/><path class="cls-3" d="M47.45,105.05S56.84,93,66.2,88.94l-2.63-2S46.81,100,44.79,103.72Z"/><path class="cls-3" d="M23.23,94.8s14-16,23.32-20.12L43,72S21.88,86.78,19.88,93.36Z"/><path class="cls-3" d="M12.9,89.67s14.81-17.93,24.17-22l-3.86-2.79S15.13,80.77,10.62,86.22a1.41,1.41,0,0,0,.22,2Z"/><path class="cls-3" d="M5.09,82.21s13.46-16.93,22.82-21l-4.23-2.75S9,69.24,4.2,75.13c-1.76,2.15-.35,4.89.42,6.33Z"/><path class="cls-3" d="M.15,65.26a31,31,0,0,1,13.72-11.8l-6.6-2.74S2,58.33,0,62Z"/><path class="cls-3" d="M81.2,107.37l1.94,2.87s-4.31,15.11-8.74,17.11L72.55,125S79.1,114.18,81.2,107.37Z"/><path class="cls-3" d="M89,119.32s-3.34,14-8.81,16.51l2.29,3.49s8.12-9.59,9.29-15.47Z"/><path class="cls-3" d="M98.25,135l4,7.1s-4.55,9.75-9.39,12.31l-3.28-4.64A41.32,41.32,0,0,0,98.25,135Z"/><path class="cls-3" d="M104.71,170.49l9.84-4.8,2.91,6s-4.64-1.1-9.36,3.19Z"/><path class="cls-3" d="M66.2,88.94c11.65.73,15.14,8.82,15,18.43l1.94,2.87c3-15.44-.92-25-19.57-23.33Z"/><path class="cls-3" d="M56.26,81.81c21.59-3.2,42.42,1.61,32.7,37.51l2.77,4.53c8.56-27.87,9.32-53.51-39.27-44.8Z"/><path class="cls-3" d="M46.55,74.68C109,65.26,106.61,81.15,98.25,135l4,7.1c14-55.18,12.41-83.62-59.24-70Z"/><path class="cls-3" d="M37.07,67.68c11.56-7.68,83.65-15.52,79.34,39.69-2.22,28.42-11.25,33.24,3.52,50S156.15,199,156.15,199l2.23-1.56-22-27.11c-21-28.21-20.53-25.3-15.28-51,1.86-9.08,12.34-86-87.9-54.43Z"/><path class="cls-3" d="M114.55,165.69s26,22.81,33,39.19l-5.89.28a396.33,396.33,0,0,0-24.22-33.44Z"/><path class="cls-3" d="M23.68,58.47l4.23,2.75c21.7-14,109.07-26.69,102.8,42.66-4.12,33.69-6.47,34.87,1.57,45.45s28.4,27.42,32.51,35.06,4.56,9,4.56,9l4.43-.63a43.91,43.91,0,0,0-4.09-9c-2.74-4.5-29-28-31.54-37.41s-1.8-34.6-1.05-47.91C137.88,84.58,127.63,16.79,23.68,58.47Z"/><path class="cls-3" d="M7.27,50.72l6.6,2.74c22.22-15,128.62-46.06,133.7,47.69-.41,27.8-4.81,39.85,4.59,51.6s22.33,15.58,26.15,23.8a54.35,54.35,0,0,1,4.55,15.87h5.44a22.77,22.77,0,0,0-2.94-20.86c-7.34-10.29-24.86-16.46-27-22s-8.28-9.11-4.46-45.55c1.14-10.85-5-32.9-7.88-40.22-.93-2.42-.62-3.14-3.06-5.69l-7.13-7.57A74.41,74.41,0,0,0,130,44.72L112.58,33.35C84.87,25.22,21.07,37.42,7.27,50.72Z"/><path class="cls-3" d="M164.79,85.91l3.14,4.76c-.64,25.5-.05,45.63,9.35,59.29s16.62,11.85,16.62,11.85l1.23,3.88C186.39,163.63,156.82,157.77,164.79,85.91Z"/><path class="cls-3" d="M175.08,102.79l2.36,4.58c-1.92,13.21-4.93,28.61,10.24,31.19l.6,2.77S166.13,149.5,175.08,102.79Z"/><path class="cls-3" d="M2.44,38.89S71.69,14.17,101.05,25.8l-4.73-3.11S73.6,9.23,3.57,35.59Z"/><path class="cls-3" d="M19.26,24.65l3.54-2.16C39.76,10.24,72.55,8,81.86,13.14c6.82,3.75,4.58,3,4.58,3C64.74,12,50.34,13.47,19.26,24.65Z"/><path class="cls-3" d="M39.78,6S50.12.06,64.78,2.5l4.17,2S49.07,3.83,37.07,9.75Z"/></g></g></svg>