<svg xmlns="http://www.w3.org/2000/svg" viewBox="0 0 425 343"><defs><style>.cls-1{fill:#bfbfbf;}.cls-2{fill:#444;}.cls-3{fill:#b6ecff;}.cls-4{fill:#fbb;}.cls-5{fill:#e6ffb6;}</style></defs><title>Asset 1</title><g id="Layer_2" data-name="Layer 2"><g id="Layer_1-2" data-name="Layer 1"><circle class="cls-1" cx="258.8" cy="38.67" r="21.67"/><circle class="cls-1" cx="166" cy="38.67" r="21.67"/><path class="cls-1" d="M393.86,65.33H28.42A17.09,17.09,0,0,0,11.33,82.42v232a17.09,17.09,0,0,0,17.09,17.09H393.86A17.09,17.09,0,0,0,411,314.42v-232A17.09,17.09,0,0,0,393.86,65.33ZM222,174.17a7.33,7.33,0,1,1-7.33,7.33A7.33,7.33,0,0,1,222,174.17Zm-24.24,3a7.34,7.34,0,1,1,2.69,10A7.33,7.33,0,0,1,197.76,177.19Zm-9.5,22.5a7.34,7.34,0,1,1,10,2.68A7.34,7.34,0,0,1,188.26,199.69ZM203,219.17a7.34,7.34,0,1,1,7.33-7.34A7.34,7.34,0,0,1,203,219.17Zm2.17-22.5A7.33,7.33,0,1,1,212.5,204,7.34,7.34,0,0,1,205.17,196.67Zm22.07,19.47a7.34,7.34,0,1,1-2.69-10A7.34,7.34,0,0,1,227.24,216.14Zm6.81-12.48a7.33,7.33,0,1,1,2.69-10A7.34,7.34,0,0,1,234.05,203.66Z"/><path class="cls-2" d="M381.5,20H269.78a21,21,0,1,1-21.56,0H176.78a21,21,0,1,1-21.56,0H43.5A43.51,43.51,0,0,0,0,63.5v236A43.51,43.51,0,0,0,43.5,343h338A43.51,43.51,0,0,0,425,299.5V63.5A43.51,43.51,0,0,0,381.5,20ZM409,308.5A20.5,20.5,0,0,1,388.5,329H35.5A20.5,20.5,0,0,1,15,308.5V92.5A20.5,20.5,0,0,1,35.5,72h353A20.5,20.5,0,0,1,409,92.5Z"/><circle cx="166" cy="30" r="17"/><circle class="cls-3" cx="166" cy="24" r="17"/><circle cx="166" cy="17" r="17"/><circle cx="258.8" cy="30.5" r="17"/><circle class="cls-4" cx="258.8" cy="24.5" r="17"/><circle cx="258.8" cy="17.5" r="17"/><circle class="cls-4" cx="258.8" cy="14.7" r="12.8"/><circle class="cls-3" cx="166" cy="14.7" r="12.8"/><rect class="cls-2" x="202" y="60.83" width="20" height="77.5" rx="10" ry="10"/><rect class="cls-5" x="202" y="47.5" width="20" height="77.5" rx="10" ry="10"/><rect class="cls-2" x="202" y="41.5" width="20" height="77.5" rx="10" ry="10"/></g></g></svg>