<svg xmlns="http://www.w3.org/2000/svg" viewBox="0 0 218.1 198.9"><defs><style>.cls-1{fill:#fec865;stroke:#e29044;stroke-miterlimit:10;stroke-width:0.1px;}.cls-2{fill:#2a3168;}.cls-3{font-size:13.63px;fill:#fff;font-family:Poppins-SemiBold, Poppins;font-weight:700;}</style></defs><title>Asset 38</title><g id="Layer_2" data-name="Layer 2"><g id="spaghetti"><rect class="cls-1" x="-10.63" y="69.61" width="206.67" height="3.67" transform="translate(-23.88 81.73) rotate(-42.66)"/><rect class="cls-1" x="-10.31" y="73.4" width="206.67" height="3.67" transform="matrix(0.74, -0.68, 0.68, 0.74, -26.36, 82.94)"/><rect class="cls-1" x="-10.13" y="77.09" width="206.67" height="3.67" transform="translate(-28.82 84.04) rotate(-42.66)"/><rect class="cls-1" x="-3.11" y="75.6" width="206.67" height="3.67" transform="translate(-25.96 88.41) rotate(-42.66)"/><rect class="cls-1" x="-3.71" y="78.65" width="206.67" height="3.67" transform="translate(-28.17 88.81) rotate(-42.66)"/><rect class="cls-1" x="0.12" y="80.1" width="206.67" height="3.67" transform="translate(-28.15 91.79) rotate(-42.66)"/><rect class="cls-1" x="0.02" y="82.69" width="206.67" height="3.67" transform="translate(-29.93 92.4) rotate(-42.66)"/><rect class="cls-1" x="1.55" y="86.27" width="206.67" height="3.67" transform="translate(-31.95 94.39) rotate(-42.66)"/><rect class="cls-1" x="7.02" y="85.07" width="206.67" height="3.67" transform="translate(-29.69 97.78) rotate(-42.66)"/><rect class="cls-1" x="6.23" y="89.43" width="206.67" height="3.67" transform="translate(-32.85 98.4) rotate(-42.66)"/><rect class="cls-1" x="8.91" y="90.81" width="206.67" height="3.67" transform="translate(-33.08 100.58) rotate(-42.66)"/><rect class="cls-1" x="17.65" y="85.6" width="206.67" height="3.67" transform="matrix(0.74, -0.67, 0.67, 0.74, -27.34, 104.24)"/><rect class="cls-1" x="17.94" y="89.39" width="206.67" height="3.67" transform="translate(-29.81 105.43) rotate(-42.32)"/><rect class="cls-1" x="18.1" y="93.08" width="206.67" height="3.67" transform="translate(-32.26 106.5) rotate(-42.32)"/><rect class="cls-1" x="25.13" y="91.64" width="206.67" height="3.67" transform="translate(-29.46 110.85) rotate(-42.32)"/><rect class="cls-1" x="24.51" y="94.68" width="206.67" height="3.67" transform="translate(-31.66 111.23) rotate(-42.32)"/><rect class="cls-1" x="28.34" y="96.16" width="206.67" height="3.67" transform="translate(-31.66 114.19) rotate(-42.32)"/><rect class="cls-1" x="28.22" y="98.75" width="206.67" height="3.67" transform="translate(-33.43 114.79) rotate(-42.32)"/><rect class="cls-1" x="29.73" y="102.33" width="206.67" height="3.67" transform="translate(-35.45 116.74) rotate(-42.32)"/><rect class="cls-1" x="35.21" y="101.17" width="206.67" height="3.67" transform="translate(-33.25 120.12) rotate(-42.32)"/><rect class="cls-1" x="34.39" y="105.52" width="206.67" height="3.67" transform="translate(-36.39 120.71) rotate(-42.32)"/><rect class="cls-1" x="37.06" y="106.92" width="206.67" height="3.67" transform="translate(-36.63 122.87) rotate(-42.32)"/><rect class="cls-2" x="52.53" y="42.08" width="64.57" height="154.52" transform="translate(115.56 -23.8) rotate(47.52)"/><polygon class="cls-2" points="6.03 147.71 0 151.19 4.63 150.44 2.7 154.44 7.88 154.44 5.88 158.94 10.63 157.44 10.63 162.52 14.13 161.19 12.88 165.19 16.88 165.19 16.88 168.44 20.88 168.44 19.38 173.19 23.38 173.19 23.38 176.94 28.63 176.94 28.63 181.19 31.88 181.19 31.88 185.19 35.88 185.19 35.88 188.94 40.63 188.94 40.63 193.44 43.38 193.44 43.38 195.94 46.63 195.94 46.99 198.9 49.63 195.33 6.03 147.71"/><text class="cls-3" transform="matrix(0.74, -0.67, 0.67, 0.74, 70.67, 162.94)">SPAGHETTI NO. 5</text></g></g></svg>