<svg xmlns="http://www.w3.org/2000/svg" viewBox="0 0 222.49 111.46"><defs><style>.cls-1{fill:#edd2a6;}.cls-2{fill:#d9bd79;}</style></defs><title>Asset 33</title><g id="Layer_2" data-name="Layer 2"><g id="chinese_bun" data-name="chinese bun"><path class="cls-1" d="M122.28,47.9c8.41-4.49,20.51-11.31,22.06-13.3s8.21-10.43,10.64-5.88c2.66,5,4.32-.11,4.88-.77s2.43-2.77,4-1.44,3.27,4.76,5.27,3.43,2.66-3.1,5.21-1.22,5.65,5.66,8.75,6.76S208.35,48,215.38,58c6.82,9.69,8.54,20.4,6,28.38s-2.88,12.74-22.61,19.06c-20,6.4-53,5.54-66.72.89S108.1,96,106.76,85.8,106.08,56.54,122.28,47.9Z"/><path class="cls-2" d="M152.45,34s2.25,11.53-7.27,14C145.18,48,152.19,42.2,152.45,34Z"/><path class="cls-2" d="M157.66,34.51s4.19,11-4.77,15.05C152.89,49.56,158.8,42.66,157.66,34.51Z"/><path class="cls-2" d="M162.77,34.46s6.59,9.72-1.19,15.74C161.58,50.2,165.75,42.13,162.77,34.46Z"/><path class="cls-2" d="M168.39,34.17s8,8.58,1.26,15.73C169.65,49.9,172.52,41.28,168.39,34.17Z"/><path class="cls-2" d="M221,69.13c.81,7.1-.22,13.85-5.45,18.7-26.21,23.59-69.76,24.86-102.34,9,4.54,3.88,11.15,6.81,18.88,9.43,13.74,4.65,46.75,5.51,66.72-.89,19.73-6.32,20.06-11.08,22.61-19.06A28.87,28.87,0,0,0,221,69.13Z"/><path class="cls-1" d="M21.21,29c11.16-6,27.22-15,29.28-17.66S61.4-2.53,64.62,3.52c3.54,6.62,5.74-.15,6.48-1S74.33-1.19,76.47.57s4.34,6.33,7,4.57S87,1,90.38,3.52s7.51,7.5,11.63,9,33.48,16.6,42.83,29.88c9,12.87,11.33,27.08,7.94,37.68S149,97,122.76,105.36c-26.52,8.5-70.35,7.36-88.6,1.18S2.37,92.85.6,79.31-.31,40.46,21.21,29Z"/><path class="cls-2" d="M61.27,10.49s3,15.32-9.66,18.6C51.61,29.09,60.91,21.41,61.27,10.49Z"/><path class="cls-2" d="M68.18,11.2s5.56,14.58-6.33,20C61.85,31.18,69.7,22,68.18,11.2Z"/><path class="cls-2" d="M75,11.14S83.73,24.05,73.39,32C73.39,32,78.93,21.32,75,11.14Z"/><path class="cls-2" d="M82.43,10.75s10.65,11.4,1.67,20.89C84.1,31.64,87.92,20.19,82.43,10.75Z"/><path class="cls-2" d="M152.23,57.17c1.07,9.43-.3,18.39-7.25,24.84-34.8,31.32-92.63,33-135.89,12,6,5.15,14.8,9,25.07,12.52,18.25,6.18,62.08,7.32,88.6-1.18,26.2-8.39,26.64-14.71,30-25.31C154.9,73.43,154.8,65.4,152.23,57.17Z"/></g></g></svg>