<svg xmlns="http://www.w3.org/2000/svg" viewBox="0 0 208.77 138.02"><defs><style>.cls-1{fill:#a21300;}.cls-2{fill:#7c1300;}.cls-3{fill:#fff;}</style></defs><title>Asset 35</title><g id="Layer_2" data-name="Layer 2"><g id="steak"><path class="cls-1" d="M.19,102.6c1.67-9.16,13.5-41,34.5-50.16S108,21.94,119,15.6,151.86-3.56,173.19.94s28.34,8.66,30.17,10.5,3.44,13.84,4,18.66-14.67,44-14.67,44L87.86,126.77l-69.17-7Z"/><path class="cls-2" d="M.19,102.6s5.5,31,23.34,33.84,73.33,2.83,96.66-8.34c12.45-5.95,37.38-16,56.67-30.66,16.89-12.87,29-30.65,30.5-35,3.17-9.34,0-32.34,0-32.34a145.73,145.73,0,0,1-15.83,25.34C178.81,71.76,152.71,82.11,142.06,87c-18.83,8.66-63.7,18.75-77.53,17.42s-38,10.28-48.84,6.33C7,107.6-1.39,101.8.19,102.6Z"/><path class="cls-3" d="M148.88,6.77s48.81,5.07,53,15.5c-10.16-2.5-22.66-1.67-22.66-1.67S76.38,87.27,28.38,91.77c34.67-21,139.74-65.35,141.34-73.5C169.72,18.27,162.72,11.77,148.88,6.77Z"/></g></g></svg>