<svg xmlns="http://www.w3.org/2000/svg" xmlns:xlink="http://www.w3.org/1999/xlink" viewBox="0 0 410.65 193.17"><defs><style>.cls-1{fill:#9e9e9e;}.cls-2{fill:#727272;}.cls-3{fill:#e2e2e2;}.cls-4,.cls-5{fill:none;stroke-miterlimit:10;}.cls-4{stroke:#000;}.cls-5{stroke:#fff;}.cls-6{fill:#ffa1a1;}.cls-7{fill:#b3dfff;}.cls-8{fill:url(#linear-gradient);}</style><linearGradient id="linear-gradient" x1="313.7" y1="177.21" x2="369.88" y2="177.21" gradientUnits="userSpaceOnUse"><stop offset="0" stop-color="#ff7373"/><stop offset="1" stop-color="#8dc9ff"/></linearGradient></defs><title>Asset 1</title><g id="Layer_2" data-name="Layer 2"><g id="Layer_1-2" data-name="Layer 1"><path class="cls-1" d="M.5,37H410.09S416,3.82,385.73.5H22.85S-1.87-.56.5,37Z"/><path class="cls-2" d="M.58,157.42H410.17s5.93,33.16-23.86,35.25H23.43S-1.79,195,.58,157.42Z"/><polygon class="cls-1" points="0.5 36.98 0.5 158.63 410.09 158.63 410.09 36.98 410.56 28.75 0.5 28.75 0.5 36.98"/><path class="cls-3" d="M294.62.5c18.07-4.9,130.13,42.85,101.55,158.15l13.92,0,.47-125.38L335.91.5Z"/><path class="cls-3" d="M335.67,1.64Q344,11.53,352.74,21q7.49,8.13,15.24,16h42.11S416,3.82,385.73.5h-51Z"/><path class="cls-3" d="M116.51.5C98.45-4.4-13.62,43.35,15,158.65l-13.92,0L.58,33.25,75.24.5Z"/><path class="cls-3" d="M75.55,1.26C70,7.85,64,14.68,58.15,21q-7.49,8.13-15.24,16H.81S-5.12,3.82,25.16.5h51C75.86.88,75.87.89,75.55,1.26Z"/><rect class="cls-4" x="0.5" y="0.5" width="409.59" height="192.17" rx="24.36" ry="24.36"/><line class="cls-4" x1="410.09" y1="158.63" x2="0.5" y2="158.63"/><circle class="cls-5" cx="109.58" cy="82.21" r="61.34"/><circle class="cls-5" cx="109.58" cy="82.21" r="41.34"/><circle class="cls-5" cx="311.26" cy="82.21" r="50.66"/><circle class="cls-5" cx="311.26" cy="82.21" r="34.14"/><path class="cls-5" d="M235,82.12c49.59-.33,98.59-.33,148.3.09"/><path class="cls-5" d="M22.85,82.21c58.72-.42,117.72-.42,176.63-.06"/><line class="cls-5" x1="109.58" y1="11.74" x2="109.58" y2="151.43"/><line class="cls-5" x1="311.26" y1="20.87" x2="311.26" y2="143.55"/><circle class="cls-6" cx="48.24" cy="175.66" r="9.02"/><circle class="cls-7" cx="85.35" cy="175.66" r="9.02"/><ellipse class="cls-8" cx="341.79" cy="177.21" rx="28.09" ry="1.55"/></g></g></svg>