<svg xmlns="http://www.w3.org/2000/svg" viewBox="0 0 233.02 49.63"><defs><style>.cls-1,.cls-4{fill:none;stroke:#a58a84;stroke-miterlimit:10;}.cls-1{stroke-width:7px;}.cls-2{fill:#715144;}.cls-3{fill:#a58a84;}.cls-4{stroke-width:1.95px;}</style></defs><title>sieve?</title><g id="Layer_2" data-name="Layer 2"><g id="strainer"><g id="sieve_" data-name="sieve?"><line class="cls-1" x1="213.1" y1="11.81" x2="199.1" y2="21.31"/><rect class="cls-2" x="209.12" y="3.23" width="24.63" height="9.62" rx="4.81" ry="4.81" transform="translate(424.77 -80.03) rotate(154.5)"/><line class="cls-1" x1="19.92" y1="12.33" x2="33.92" y2="21.83"/><rect class="cls-2" x="-0.73" y="3.75" width="24.63" height="9.62" rx="4.81" ry="4.81" transform="translate(4.81 -4.15) rotate(25.5)"/><rect class="cls-3" x="25.11" y="14.45" width="185.33" height="11.71" rx="5.86" ry="5.86"/><path class="cls-4" d="M142.67,28.52,153,20.7h4.41l7.55,5.74-12.5,9.5ZM153,20.7H132.37l10.3,7.82ZM107.4,39l10.73,8.15L128.85,39l-10.72-8.15ZM83.83,35.94l13.82,10.5L107.4,39,93.59,28.52Zm45,3.08,9.76,7.42,13.81-10.5-9.75-7.42ZM107.4,39l10.73-8.15L104.74,20.7h-.86L93.59,28.52Zm21.45,0,13.82-10.5-10.3-7.82h-.86L118.13,30.87Zm2.66-18.32H104.74l13.39,10.17ZM61.58,33.85,50.4,25.36l-9.76,7.41,7.25,5.51c1.71.65,3.5,1.28,5.39,1.88ZM28.23,23.34c1.17,3.88,4.9,7.52,10.64,10.78l1.77-1.35Zm22.17,2L44.27,20.7H27.83a9.19,9.19,0,0,0,.4,2.64l12.41,9.43Zm6.13-4.66H44.27l6.13,4.66Zm5,13.15,9.75-7.41L63.78,20.7H56.53L50.4,25.36Zm-22.71.27a68.3,68.3,0,0,0,9,4.16l-7.25-5.51Zm65-13.42H83.29l10.3,7.82Zm68.59,0h-15.1l7.55,5.74Zm-108.69,0,7.55,5.74,7.56-5.74Zm98.4,22.65,12.5-9.5-9.76-7.41-12.5,9.5ZM83.83,35.94l-9.75,7.41,3,2.26c5.92.94,12.21,1.68,18.8,2.19l1.8-1.36Zm78.35,7.41L164,44.74a153,153,0,0,0,18.88-4.65l-8.2-6.24Zm23.68-18-11.18,8.49,8.2,6.24c2.05-.66,4-1.34,5.81-2.06l6.92-5.26ZM188.69,38a65.28,65.28,0,0,0,8.55-4l-1.63-1.24Zm-29.4,7.52q2.4-.39,4.71-.81l-1.82-1.39Zm5.63-19.11,9.76,7.41,11.18-8.49-6.13-4.66h-7.26Zm-12.5,9.5-13.81,10.5,1.77,1.34c6.63-.52,13-1.28,18.91-2.23l2.89-2.2ZM197.24,34c5.49-3.13,9.09-6.63,10.36-10.35l-12,9.11ZM192,20.7H179.73l6.13,4.66Zm3.62,12.07,12-9.11a9.15,9.15,0,0,0,.5-3H192l-6.13,4.66Zm-99.76,15c1.31.11,2.63.2,4,.29l-2.17-1.65ZM61.58,33.85l-8.3,6.31a152,152,0,0,0,18.91,4.62l1.89-1.43Zm74.89,14.21c1.31-.08,2.62-.18,3.91-.28l-1.77-1.34ZM93.59,28.52,83.29,20.7h-4.4l-7.56,5.74,12.5,9.5Zm-9.76,7.42-12.5-9.5-9.75,7.41,12.5,9.5ZM72.19,44.78c1.59.29,3.21.57,4.86.83l-3-2.26ZM128.85,39l-10.72,8.15,1.93,1.48c5.61,0,11.1-.24,16.41-.59l2.14-1.62Zm-12.66,9.63h3.87l-1.93-1.48ZM107.4,39l-9.75,7.42,2.17,1.65c5.3.33,10.77.52,16.37.56l1.94-1.48Z"/></g></g></g></svg>