<svg xmlns="http://www.w3.org/2000/svg" viewBox="0 0 134.42 126.76"><defs><style>.cls-1{fill:none;stroke:#715144;stroke-miterlimit:10;stroke-width:4px;}.cls-2{fill:#715144;}.cls-3{fill:#a58a84;}</style></defs><title>sushi mat</title><g id="Layer_2" data-name="Layer 2"><g id="sushi_mat" data-name="sushi mat"><g id="sushi_mat-2" data-name="sushi mat"><line class="cls-1" x1="21.97" y1="6.28" x2="21.97" y2="116.33"/><line class="cls-1" x1="114.5" y1="10.33" x2="114.5" y2="120.39"/><rect class="cls-2" width="134.42" height="12.56"/><rect class="cls-3" x="1.75" width="132.67" height="10.33"/><rect class="cls-2" y="16.31" width="134.42" height="12.56"/><rect class="cls-3" x="1.75" y="16.31" width="132.67" height="10.33"/><rect class="cls-2" y="32.63" width="134.42" height="12.56"/><rect class="cls-3" x="1.75" y="32.63" width="132.67" height="10.33"/><rect class="cls-2" y="48.94" width="134.42" height="12.56"/><rect class="cls-3" x="1.75" y="48.94" width="132.67" height="10.33"/><rect class="cls-2" y="65.26" width="134.42" height="12.56"/><rect class="cls-3" x="1.75" y="65.26" width="132.67" height="10.33"/><rect class="cls-2" y="81.57" width="134.42" height="12.56"/><rect class="cls-3" x="1.75" y="81.57" width="132.67" height="10.33"/><rect class="cls-2" y="97.89" width="134.42" height="12.56"/><rect class="cls-3" x="1.75" y="97.89" width="132.67" height="10.33"/><rect class="cls-2" y="114.2" width="134.42" height="12.56"/><rect class="cls-3" x="1.75" y="114.2" width="132.67" height="10.33"/></g></g></g></svg>