<svg xmlns="http://www.w3.org/2000/svg" xmlns:xlink="http://www.w3.org/1999/xlink" viewBox="0 0 535.46 533.38"><defs><style>.cls-1{fill:url(#linear-gradient);}.cls-2{fill:url(#radial-gradient);}.cls-3{fill:url(#linear-gradient-2);}.cls-4{fill:url(#linear-gradient-3);}.cls-5{fill:url(#linear-gradient-4);}.cls-6{fill:url(#linear-gradient-5);}.cls-7{fill:url(#linear-gradient-6);}.cls-8{fill:url(#linear-gradient-7);}.cls-9{fill:url(#linear-gradient-8);}.cls-10{fill:url(#linear-gradient-9);}.cls-11{fill:url(#linear-gradient-10);}.cls-12{fill:url(#linear-gradient-11);}.cls-13{fill:url(#linear-gradient-12);}.cls-14{fill:url(#linear-gradient-13);}.cls-15{fill:url(#linear-gradient-14);}.cls-16{fill:url(#linear-gradient-15);}.cls-17{fill:url(#linear-gradient-16);}.cls-18{fill:url(#linear-gradient-17);}.cls-19{fill:url(#linear-gradient-18);}.cls-20{fill:url(#linear-gradient-19);}.cls-21{fill:url(#linear-gradient-20);}.cls-22{fill:url(#linear-gradient-21);}.cls-23{fill:url(#linear-gradient-22);}.cls-24{fill:url(#linear-gradient-23);}.cls-25{fill:url(#linear-gradient-24);}.cls-26{fill:url(#linear-gradient-25);}.cls-27{fill:url(#linear-gradient-26);}.cls-28{fill:url(#linear-gradient-27);}.cls-29{fill:url(#linear-gradient-28);}.cls-30{fill:url(#linear-gradient-29);}</style><linearGradient id="linear-gradient" x1="113.23" y1="268.67" x2="422.23" y2="268.67" gradientUnits="userSpaceOnUse"><stop offset="0" stop-color="silver"/><stop offset="0.66" stop-color="#262626"/></linearGradient><radialGradient id="radial-gradient" cx="267.73" cy="268.67" r="144.5" gradientUnits="userSpaceOnUse"><stop offset="0" stop-color="#5a5a5a"/><stop offset="0.66"/></radialGradient><linearGradient id="linear-gradient-2" x1="-126.5" y1="442.75" x2="627.5" y2="439.75" gradientUnits="userSpaceOnUse"><stop offset="0" stop-color="#7ea853"/><stop offset="1" stop-color="#ef4033"/></linearGradient><linearGradient id="linear-gradient-3" x1="-126.64" y1="409.51" x2="627.36" y2="406.51" xlink:href="#linear-gradient-2"/><linearGradient id="linear-gradient-4" x1="-126.79" y1="372" x2="627.21" y2="369" xlink:href="#linear-gradient-2"/><linearGradient id="linear-gradient-5" x1="-126.95" y1="331.37" x2="627.05" y2="328.37" xlink:href="#linear-gradient-2"/><linearGradient id="linear-gradient-6" x1="-127.12" y1="288.86" x2="626.88" y2="285.86" xlink:href="#linear-gradient-2"/><linearGradient id="linear-gradient-7" x1="-127.29" y1="245.18" x2="626.71" y2="242.18" xlink:href="#linear-gradient-2"/><linearGradient id="linear-gradient-8" x1="-127.46" y1="202.88" x2="626.54" y2="199.88" xlink:href="#linear-gradient-2"/><linearGradient id="linear-gradient-9" x1="-127.62" y1="162.61" x2="626.38" y2="159.61" xlink:href="#linear-gradient-2"/><linearGradient id="linear-gradient-10" x1="-127.77" y1="125.57" x2="626.23" y2="122.57" xlink:href="#linear-gradient-2"/><linearGradient id="linear-gradient-11" x1="-127.9" y1="92.9" x2="626.1" y2="89.9" xlink:href="#linear-gradient-2"/><linearGradient id="linear-gradient-12" x1="-128" y1="65.59" x2="626" y2="62.59" xlink:href="#linear-gradient-2"/><linearGradient id="linear-gradient-13" x1="-128.09" y1="44.47" x2="625.91" y2="41.47" xlink:href="#linear-gradient-2"/><linearGradient id="linear-gradient-14" x1="-128.15" y1="30.18" x2="625.85" y2="27.18" xlink:href="#linear-gradient-2"/><linearGradient id="linear-gradient-15" x1="-128.17" y1="23.16" x2="625.83" y2="20.16" xlink:href="#linear-gradient-2"/><linearGradient id="linear-gradient-16" x1="-128.17" y1="23.12" x2="625.83" y2="20.12" xlink:href="#linear-gradient-2"/><linearGradient id="linear-gradient-17" x1="-128.14" y1="30.95" x2="625.86" y2="27.95" xlink:href="#linear-gradient-2"/><linearGradient id="linear-gradient-18" x1="-128.08" y1="46.02" x2="625.92" y2="43.02" xlink:href="#linear-gradient-2"/><linearGradient id="linear-gradient-19" x1="-128" y1="67.87" x2="626" y2="64.87" xlink:href="#linear-gradient-2"/><linearGradient id="linear-gradient-20" x1="-127.88" y1="95.85" x2="626.12" y2="92.85" xlink:href="#linear-gradient-2"/><linearGradient id="linear-gradient-21" x1="-127.75" y1="129.09" x2="626.25" y2="126.09" xlink:href="#linear-gradient-2"/><linearGradient id="linear-gradient-22" x1="-127.6" y1="166.6" x2="626.4" y2="163.6" xlink:href="#linear-gradient-2"/><linearGradient id="linear-gradient-23" x1="-127.44" y1="207.23" x2="626.56" y2="204.23" xlink:href="#linear-gradient-2"/><linearGradient id="linear-gradient-24" x1="-127.27" y1="249.74" x2="626.73" y2="246.74" xlink:href="#linear-gradient-2"/><linearGradient id="linear-gradient-25" x1="-127.1" y1="293.42" x2="626.9" y2="290.42" xlink:href="#linear-gradient-2"/><linearGradient id="linear-gradient-26" x1="-126.93" y1="335.71" x2="627.07" y2="332.71" xlink:href="#linear-gradient-2"/><linearGradient id="linear-gradient-27" x1="-126.77" y1="375.99" x2="627.23" y2="372.99" xlink:href="#linear-gradient-2"/><linearGradient id="linear-gradient-28" x1="-126.62" y1="413.03" x2="627.38" y2="410.03" xlink:href="#linear-gradient-2"/><linearGradient id="linear-gradient-29" x1="-126.49" y1="445.7" x2="627.51" y2="442.7" xlink:href="#linear-gradient-2"/></defs><title>Asset 1</title><g id="Layer_2" data-name="Layer 2"><g id="Layer_2-2" data-name="Layer 2"><circle class="cls-1" cx="267.73" cy="268.67" r="154.5"/><circle class="cls-2" cx="267.73" cy="268.67" r="144.5"/><polygon points="267.73 72.67 241.97 117.28 293.48 117.28 267.73 72.67"/><path d="M77.59,480.94h6.66v46h22v5.59H77.59Z"/><path d="M154.83,506.2c0,17.76-10.79,27.18-24,27.18-13.62,0-23.19-10.57-23.19-26.18,0-16.39,10.18-27.1,24-27.1C145.72,480.1,154.83,490.89,154.83,506.2Zm-40,.84c0,11,6,20.9,16.46,20.9s16.53-9.72,16.53-21.43c0-10.26-5.36-21-16.46-21S114.8,495.71,114.8,507Z"/><path d="M171.91,532.54l-13.09-51.6h7L172,507c1.54,6.43,2.91,12.86,3.83,17.84H176c.84-5.13,2.45-11.25,4.21-17.91l6.89-26h7l6.28,26.18c1.45,6.12,2.83,12.25,3.6,17.68h.15c1.07-5.66,2.53-11.4,4.13-17.83l6.82-26h6.81l-14.62,51.6h-7l-6.5-26.87a155.28,155.28,0,0,1-3.37-16.85h-.16a157.53,157.53,0,0,1-4,16.85l-7.35,26.87Z"/><path d="M314.61,480.94v21.59h25V480.94h6.73v51.59h-6.73V508.34h-25v24.19H308V480.94Z"/><path d="M364.52,480.94v51.59h-6.66V480.94Z"/><path d="M415.43,530.24a48.09,48.09,0,0,1-15.84,2.83c-7.81,0-14.24-2-19.29-6.81-4.44-4.29-7.2-11.18-7.2-19.22.08-15.39,10.64-26.64,27.94-26.64a31.94,31.94,0,0,1,12.86,2.37l-1.6,5.44A26.87,26.87,0,0,0,400.89,486c-12.56,0-20.75,7.81-20.75,20.75s7.89,20.82,19.91,20.82c4.36,0,7.35-.61,8.88-1.38V510.79H398.44v-5.36h17Z"/><path d="M432.28,480.94v21.59h25V480.94H464v51.59h-6.73V508.34h-25v24.19h-6.66V480.94Z"/><polygon class="cls-3" points="417.9 439.73 444.7 468.73 471.73 439.73 444.7 412.23 417.9 439.73"/><polygon class="cls-4" points="445.49 411.04 476.91 434.94 498.5 401.69 467.1 379.3 445.49 411.04"/><polygon class="cls-5" points="467.67 377.99 502.77 396.08 518.25 359.58 483.45 342.99 467.67 377.99"/><polygon class="cls-6" points="483.78 341.6 521.49 353.31 530.4 314.69 493.24 304.38 483.78 341.6"/><polygon class="cls-7" points="493.33 302.96 532.49 307.95 534.56 268.36 496.18 264.67 493.33 302.96"/><polygon class="cls-8" points="496.02 263.25 535.46 261.36 530.62 222.01 492.18 225.04 496.02 263.25"/><polygon class="cls-9" points="491.77 223.68 530.28 214.97 518.68 177.06 481.35 186.72 491.77 223.68"/><polygon class="cls-10" points="480.72 185.44 517.13 170.18 499.13 134.86 464.04 150.85 480.72 185.44"/><polygon class="cls-11" points="463.19 149.71 496.4 128.35 472.54 96.69 440.76 118.54 463.19 149.71"/><polygon class="cls-12" points="439.73 117.56 468.73 90.76 439.73 63.73 412.23 90.76 439.73 117.56"/><polygon class="cls-13" points="411.04 89.97 434.94 58.55 401.69 36.96 379.3 68.36 411.04 89.97"/><polygon class="cls-14" points="377.99 67.78 396.08 32.69 359.58 17.2 342.99 52.01 377.99 67.78"/><polygon class="cls-15" points="341.6 51.68 353.31 13.97 314.69 5.06 304.38 42.22 341.6 51.68"/><polygon class="cls-16" points="302.96 42.13 307.95 2.96 268.36 0.9 264.67 39.28 302.96 42.13"/><polygon class="cls-17" points="263.25 39.44 261.36 0 222.01 4.84 225.04 43.28 263.25 39.44"/><polygon class="cls-18" points="223.68 43.69 214.97 5.17 177.06 16.77 186.72 54.1 223.68 43.69"/><polygon class="cls-19" points="185.44 54.74 170.18 18.32 134.86 36.33 150.85 71.42 185.44 54.74"/><polygon class="cls-20" points="149.71 72.26 128.35 39.05 96.69 62.92 118.54 94.69 149.71 72.26"/><polygon class="cls-21" points="117.56 95.73 90.76 66.73 63.73 95.73 90.76 123.23 117.56 95.73"/><polygon class="cls-22" points="89.97 124.42 58.55 100.51 36.96 133.77 68.36 156.15 89.97 124.42"/><polygon class="cls-23" points="67.78 157.46 32.69 139.38 17.2 175.87 52.01 192.47 67.78 157.46"/><polygon class="cls-24" points="51.68 193.86 13.97 182.14 5.06 220.77 42.22 231.07 51.68 193.86"/><polygon class="cls-25" points="42.13 232.5 2.96 227.51 0.9 267.1 39.28 270.79 42.13 232.5"/><polygon class="cls-26" points="39.44 272.21 0 274.09 4.84 313.44 43.28 310.41 39.44 272.21"/><polygon class="cls-27" points="43.69 311.78 5.17 320.49 16.77 358.4 54.1 348.74 43.69 311.78"/><polygon class="cls-28" points="54.74 350.02 18.32 365.28 36.33 400.6 71.42 384.6 54.74 350.02"/><polygon class="cls-29" points="72.26 385.75 39.05 407.11 62.92 438.76 94.69 416.92 72.26 385.75"/><polygon class="cls-30" points="95.73 417.9 66.73 444.7 95.73 471.73 123.23 444.7 95.73 417.9"/></g></g></svg>