<svg xmlns="http://www.w3.org/2000/svg" viewBox="0 0 51.39 208.23"><defs><style>.cls-1{fill:#a58a84;}</style></defs><title>thingy</title><g id="Layer_2" data-name="Layer 2"><g id="spatula"><g id="thingy"><path class="cls-1" d="M39.39,137.26H12c-6.6,0-12,3.66-12,8.14v54.69c0,4.48,5.4,8.14,12,8.14H39.39c6.6,0,12-3.66,12-8.14V145.4C51.39,140.92,46,137.26,39.39,137.26ZM16.54,201.45c0,1.36-1.65,2.48-3.66,2.48s-3.67-1.12-3.67-2.48V151c0-1.37,1.65-2.49,3.67-2.49s3.66,1.12,3.66,2.49Zm12.82,0c0,1.36-1.65,2.48-3.67,2.48S22,202.81,22,201.45V151c0-1.37,1.65-2.49,3.66-2.49s3.67,1.12,3.67,2.49Zm12.82,0c0,1.36-1.65,2.48-3.67,2.48s-3.67-1.12-3.67-2.48V151c0-1.37,1.65-2.49,3.67-2.49s3.67,1.12,3.67,2.49Z"/><rect class="cls-1" x="24.19" y="5.43" width="3" height="136.14"/><rect class="cls-1" x="21.36" width="8.66" height="81.44" rx="4.33" ry="4.33"/></g></g></g></svg>