<svg xmlns="http://www.w3.org/2000/svg" viewBox="0 0 205.61 142.44"><defs><style>.cls-1{fill:#b60002;}.cls-2{fill:#0d8f00;}.cls-3{fill:#a2d104;}.cls-4{fill:#beea06;}.cls-5{fill:#840007;}.cls-6{fill:#fefefe;}</style></defs><title>Asset 41</title><g id="Layer_2" data-name="Layer 2"><g id="tomato"><path class="cls-1" d="M153.68,28.88c-4,.08-10,1-13.05,3.49-2.56,2.1-5.38,6.55-10.28,6.27-6.22-.37-5.23-2.52-16-6,0,0-4.5-1-12,1.25-27,8.23-42.74,34-40,58.18,3.52,31.33,38.38,53.14,77.87,48.7S208.84,107.34,205.32,76C202.63,52,188.92,28.24,153.68,28.88Z"/><path class="cls-2" d="M119.91,38.25s-19.39,13.91,8.47,40.3c-7.16-19.65-7.36-30.36,3.46-38.62,8,8.49,9.8,8.8,8.95,22.56,7.6-3.63,3.38-17.24,1.32-23.72,0,0,17.8-8.7,36.6,9.31,0,0-7.57-21.29-35.19-15.5,0,0,6.62-14.83,27.79-14.53,0,0-12.51-10.67-34.25,11.23,0,0-1-10.41,4.24-16.47,0,0-10,4.37-9.26,14,0,0-18.63-7.63-39.79-1.9,0,0,24.7.24,30.74,5.6,0,0-20-2.68-26.58,19.48C96.41,50,109.75,40.39,119.91,38.25Z"/><path class="cls-3" d="M127.53,36.18S108.59,5.61,127.16,0c0,0-8.15,24.48,9.05,32C136.21,32,139.47,39.46,127.53,36.18Z"/><path class="cls-4" d="M124,5.55s-3.55,17.59,6.69,26.29C130.72,31.84,117.62,27.57,124,5.55Z"/><path class="cls-3" d="M100.08,45s6.94-12.1,16.31-11.52A51.4,51.4,0,0,0,100.08,45Z"/><path class="cls-3" d="M119.33,42.81s-8.62,9.52,1.51,24.61C120.84,67.42,114.4,53.8,119.33,42.81Z"/><path class="cls-3" d="M138.19,42.7a15.48,15.48,0,0,1,3.64,14.56S148.64,48.45,138.19,42.7Z"/><path class="cls-3" d="M144.64,34.05s16.6-3.37,26.09,5A61.17,61.17,0,0,0,144.64,34.05Z"/><path class="cls-3" d="M143.88,27.35s8.52-8.46,17.46-9.23C161.34,18.12,153,15.38,143.88,27.35Z"/><path class="cls-3" d="M117.49,26.38s-10.41-3.07-18.7-1.83A26.44,26.44,0,0,1,117.49,26.38Z"/><path class="cls-5" d="M182.69,35.83c15.49,24.86,16,59.31-6,80.54-20.73,19.52-49.07,24.57-76.4,19.62a85.47,85.47,0,0,0,39.94,4.78c39.49-4.43,68.65-33.43,65.13-64.76C203.55,60.23,197,44.53,182.69,35.83Z"/><ellipse class="cls-6" cx="179.02" cy="65.79" rx="7" ry="11" transform="translate(-6.22 20.39) rotate(-6.41)"/><circle class="cls-6" cx="178.21" cy="84.74" r="4.09"/><path class="cls-1" d="M101.29,34.55c-4-.65-10.05-.81-13.46,1.09-2.89,1.62-6.47,5.49-11.24,4.34-6-1.48-4.69-3.41-14.69-8.77,0,0-4.24-1.81-12-.91C21.8,33.56,1.76,56.09.11,80.38-2,111.84,28.37,139.53,68,142.23s73.52-20.62,75.66-52.08C145.31,66.07,136.08,40.22,101.29,34.55Z"/><path class="cls-2" d="M66.39,37.73S44.83,48,67.52,78.9C64,58.28,65.71,47.7,77.82,41.51c6.36,9.79,8.08,10.42,4.78,23.8C90.72,63.1,89,49,88.13,42.21c0,0,19.08-5.38,34.35,15.7,0,0-3.63-22.3-31.85-21.54,0,0,9.17-13.41,29.94-9.33,0,0-10.39-12.73-35.7,4.93,0,0,.86-10.42,7.11-15.45,0,0-10.62,2.51-11.61,12.13,0,0-17-10.84-38.81-9,0,0,24.25,4.65,29.24,11,0,0-19.21-6.22-29.64,14.41C41.16,45.09,56,38,66.39,37.73Z"/><path class="cls-3" d="M74.26,37.06S61.08,3.59,80.36,1.39c0,0-12.4,22.63,3.18,33.13C83.54,34.52,85.42,42.41,74.26,37.06Z"/><path class="cls-4" d="M76.29,6.29S69.65,23,78.17,33.36C78.17,33.36,66,26.81,76.29,6.29Z"/><path class="cls-3" d="M45.67,40.8s9-10.67,18.12-8.42A51.45,51.45,0,0,0,45.67,40.8Z"/><path class="cls-3" d="M65,42.11s-10.18,7.83-2.91,24.48C62.09,66.59,58.19,52.05,65,42.11Z"/><path class="cls-3" d="M83.58,45.38a15.47,15.47,0,0,1,1,15S92.84,52.9,83.58,45.38Z"/><path class="cls-3" d="M91.47,38s16.94-.35,24.78,9.58A61.17,61.17,0,0,0,91.47,38Z"/><path class="cls-3" d="M91.93,31.29s9.89-6.8,18.82-6C110.75,25.33,103,21.14,91.93,31.29Z"/><path class="cls-3" d="M66.13,25.62s-9.7-4.88-18.07-5.14A26.38,26.38,0,0,1,66.13,25.62Z"/><path class="cls-5" d="M128.59,46.57c10.8,27.23,5.11,61.21-20.34,78.16-23.88,15.5-52.67,15.41-78.67,5.66A85.62,85.62,0,0,0,68,142.23c39.64,2.69,73.52-20.62,75.66-52.08C144.75,74.3,141.12,57.69,128.59,46.57Z"/><ellipse class="cls-6" cx="119.62" cy="75.39" rx="11" ry="7" transform="translate(36.29 189.62) rotate(-86.11)"/><circle class="cls-6" cx="115.44" cy="93.89" r="4.09"/></g></g></svg>