<svg xmlns="http://www.w3.org/2000/svg" viewBox="0 0 343.17 153.73"><defs><style>.cls-1{fill:#ffcb01;}.cls-2{fill:#fe9a00;}.cls-3{fill:#ffc908;}.cls-4{fill:#45c3cc;}.cls-5{fill:#116d78;}.cls-6{fill:#0d96a4;}.cls-7{fill:#c4eed8;}.cls-8{fill:#0e6a75;}</style></defs><title>Asset 9</title><g id="Layer_2" data-name="Layer 2"><g id="tuna"><path class="cls-1" d="M96,38.24S86.61,14.64,110.9,0c25,11,67.55,29.28,67.55,29.28V41.93Z"/><polygon class="cls-2" points="75.02 123.96 98.6 153.73 100.93 127.4 80.3 120.78 75.02 123.96"/><path class="cls-2" d="M183.45,115.9s6,22.52,43.26,28.84c-9.65-6.65-26.29-12.78-17.64-35.5C194,113.56,183.45,115.9,183.45,115.9Z"/><path class="cls-3" d="M200.42,49.23s12-30.61,43.26-30.61c-20.63,20-26,27.29-24,36.27C211.4,57.55,200.42,49.23,200.42,49.23Z"/><path class="cls-2" d="M319.12,80.55q-16,.15-32,1.16c7,8.91,44.35,56.3,56.09,69.55C326.11,124.79,319.79,100.88,319.12,80.55Z"/><path class="cls-3" d="M339.45,13.62,285.94,80.4l1.14,1.45q16-1,32-1.16A108.64,108.64,0,0,1,339.45,13.62Z"/><path class="cls-4" d="M51.06,38.9C9.1,51.92,0,78,0,78L22.63,91.5a48.24,48.24,0,0,1-13.31.67c7,8.76,25.67,19.12,48.86,26.83C64.65,109.67,70,99.69,71.87,88.18,74.07,69.51,65.38,50.84,51.06,38.9Z"/><path class="cls-5" d="M79.64,58.9c17.3,0,35.93-1.34,53.23,0,49.25,5.32,97.16,17.3,146.41,20,8.87.4,17.73,1.18,26.6,2.24C170.2,26,93.52,25.66,50.84,38.9c14.32,11.94,23,30.61,20.81,49.28C69.73,99.69,64.42,109.67,58,119c3.85,1.28,7.83,2.49,11.89,3.6C82.13,104.26,88.83,79.59,79.64,58.9Z"/><path class="cls-6" d="M305.88,81.1c-8.87-1.06-17.73-1.84-26.6-2.24C230,76.2,182.12,64.22,132.87,58.9c-17.3-1.34-35.93,0-53.23,0,9.19,20.69,2.49,45.36-9.8,63.7,6.92,1.9,14.1,3.53,21.38,4.8,51.81-46.48,127-41.07,192.06-36.05,8.27-2.67,16.7-5.67,25.28-9.16Z"/><path class="cls-4" d="M91.22,127.4c21.44,3.74,43.78,4.34,62.95-.63,34.84-16,79-19.25,129.11-35.42C218.23,86.33,143,80.92,91.22,127.4Z"/><circle class="cls-7" cx="29.63" cy="70.86" r="6.48"/><circle class="cls-8" cx="29.63" cy="70.86" r="2.88"/><path class="cls-2" d="M89.51,80.4l25.06.27s-.88,20.15,24.85,35.23C117.62,115.46,103,109.67,89.51,80.4Z"/><path class="cls-3" d="M339.45,13.62,343.17,9A56.51,56.51,0,0,0,339.45,13.62Z"/></g></g></svg>